<svg width="78px" height="78px" version="1.1" id="Layer_1" xmlns="http://www.w3.org/2000/svg" xmlns:xlink="http://www.w3.org/1999/xlink" x="0px" y="0px" viewBox="0 0 80 80" enable-background="new 0 0 80 80" xml:space="preserve">
<g>
	<g>
		<path fill="#F04A4B" d="M40,71.8c-17.6,0-32-14.4-32-32c0-17.6,14.4-32,32-32c17.6,0,32,14.4,32,32C72,57.5,57.6,71.8,40,71.8z
			 M40,9.8c-16.5,0-30,13.5-30,30s13.5,30,30,30c16.5,0,30-13.5,30-30S56.5,9.8,40,9.8z"/>
		<path fill="#F04A4B" d="M30.9,22.3v11.4v14.7c-1.9-0.8-4.6-0.8-7.3,0.5c-3.9,2-5,5.6-3.5,7.9c1.5,2.3,5.6,3.3,9.5,1.3
			c2.8-1.4,4.1-3.7,4.1-5.8V33.1l18.6-3.5v14c-1.9-0.8-4.6-0.8-7.3,0.5c-3.9,2-5,5.6-3.5,7.9c1.5,2.3,5.6,3.3,9.5,1.3
			c2.8-1.4,4.1-3.7,4.1-5.8V29.1v-8.5v-2.8L30.9,22.3z"/>
	</g>
</g>
</svg>
