<svg width="78px" height="78px" version="1.1" id="Layer_1" xmlns="http://www.w3.org/2000/svg" xmlns:xlink="http://www.w3.org/1999/xlink" x="0px" y="0px" viewBox="0 0 80 80" enable-background="new 0 0 80 80" xml:space="preserve">
<g>
	<g>
		<g>
			<path fill="#BCBEC0" d="M40,72.4C22.1,72.4,7.6,57.9,7.6,40C7.6,22.1,22.1,7.6,40,7.6c17.9,0,32.4,14.6,32.4,32.4
				C72.4,57.9,57.9,72.4,40,72.4z M40,8.3C22.5,8.3,8.3,22.5,8.3,40c0,17.5,14.2,31.7,31.7,31.7c17.5,0,31.7-14.2,31.7-31.7
				C71.7,22.5,57.5,8.3,40,8.3z"/>
			<path fill="#BCBEC0" d="M40,72.8C21.9,72.8,7.2,58.1,7.2,40S21.9,7.2,40,7.2c18.1,0,32.8,14.7,32.8,32.8S58.1,72.8,40,72.8z
				 M40,8.7C22.7,8.7,8.7,22.7,8.7,40S22.7,71.3,40,71.3c17.3,0,31.3-14.1,31.3-31.3S57.3,8.7,40,8.7z"/>
		</g>
		<g>
			<path fill="#BCBEC0" d="M40,72.8C21.9,72.8,7.2,58.1,7.2,40S21.9,7.2,40,7.2S72.8,21.9,72.8,40S58.1,72.8,40,72.8z M40,7.9
				C22.3,7.9,7.9,22.3,7.9,40S22.3,72.1,40,72.1c17.7,0,32.1-14.4,32.1-32.1S57.7,7.9,40,7.9z M40,72C22.3,72,8,57.7,8,40
				S22.3,8,40,8c17.7,0,32,14.4,32,32S57.7,72,40,72z M40,8.6C22.7,8.6,8.6,22.7,8.6,40S22.7,71.4,40,71.4S71.4,57.3,71.4,40
				S57.3,8.6,40,8.6z"/>
			<path fill="#BCBEC0" d="M40,73.2C21.7,73.2,6.8,58.3,6.8,40S21.7,6.8,40,6.8S73.2,21.7,73.2,40S58.3,73.2,40,73.2z M40,9
				C22.9,9,9,22.9,9,40c0,17.1,13.9,31,31,31c17.1,0,31-13.9,31-31C71,22.9,57.1,9,40,9z"/>
		</g>
	</g>
	<g>
		<g>
			<g>
				<path fill="#BCBEC0" d="M22,53.2V27.4l0.6-0.1c0.3-0.1,7.5-1.5,12.4-1.5c1.2,0,5,0,5,2.1v25.3h-1.2c0,0,0-0.2,0-0.2
					c0,0-0.6-0.5-3.8-0.5c-4.8,0-12.2,0.7-12.3,0.7L22,53.2z M24,28.4v23.5c2-0.2,7.5-0.7,11.5-0.7c1.7,0,2.5,0.1,3.5,0.3V27.9
					c0-0.4-0.8-0.9-3.5-0.9C31.4,27,26,28,24,28.4z"/>
				<path fill="#BCBEC0" d="M58,53.2l-1-0.1c-0.1,0-7.5-0.8-12.3-0.8c-3.2,0-3.8,0.6-3.8,0.6c0,0-0.1,0.2-0.1,0.2H40V27.9
					c0-2.1,3.5-2.1,4.7-2.1c4.9,0,12.3,1.5,12.6,1.5l0.7,0.1V53.2z M44.5,51.2c4,0,9.5,0.5,11.5,0.7V28.4C54,28,48.6,27,44.5,27
					c-2.7,0-3.5,0.5-3.5,0.9v23.6C42,51.2,42.8,51.2,44.5,51.2z"/>
				<polygon fill="#BCBEC0" points="56,53.2 24,53.2 24,52.2 40,51.5 56,52.2 				"/>
				<rect x="38" y="53.2" fill="#BCBEC0" width="4" height="1"/>
			</g>
		</g>
		<rect x="25.5" y="31.3" fill="#BCBEC0" width="10.5" height="0.3"/>
		<rect x="25.5" y="33.3" fill="#BCBEC0" width="10.5" height="0.3"/>
		<rect x="25.5" y="35.4" fill="#BCBEC0" width="10.5" height="0.3"/>
		<rect x="25.5" y="37.4" fill="#BCBEC0" width="10.5" height="0.3"/>
		<rect x="25.5" y="39.5" fill="#BCBEC0" width="10.5" height="0.3"/>
		<rect x="25.5" y="41.6" fill="#BCBEC0" width="10.5" height="0.3"/>
		<rect x="25.5" y="43.6" fill="#BCBEC0" width="10.5" height="0.3"/>
		<rect x="25.5" y="45.7" fill="#BCBEC0" width="10.5" height="0.3"/>
		<rect x="25.5" y="47.7" fill="#BCBEC0" width="7.1" height="0.3"/>
		<rect x="43.3" y="31.3" fill="#BCBEC0" width="10.5" height="0.3"/>
		<rect x="43.3" y="33.3" fill="#BCBEC0" width="10.5" height="0.3"/>
		<rect x="43.3" y="35.4" fill="#BCBEC0" width="10.5" height="0.3"/>
		<rect x="43.3" y="37.4" fill="#BCBEC0" width="10.5" height="0.3"/>
		<rect x="43.3" y="39.5" fill="#BCBEC0" width="10.5" height="0.3"/>
		<rect x="43.3" y="41.6" fill="#BCBEC0" width="10.5" height="0.3"/>
		<rect x="43.3" y="43.6" fill="#BCBEC0" width="10.5" height="0.3"/>
		<rect x="43.3" y="45.7" fill="#BCBEC0" width="10.5" height="0.3"/>
		<rect x="43.3" y="47.7" fill="#BCBEC0" width="3.7" height="0.3"/>
	</g>
</g>
</svg>
