<svg width="78px" height="78px" version="1.1" id="Layer_1" xmlns="http://www.w3.org/2000/svg" xmlns:xlink="http://www.w3.org/1999/xlink" x="0px" y="0px" viewBox="0 0 80 80" enable-background="new 0 0 80 80" xml:space="preserve">
<g>
	<g>
		<g>
			<path fill="#BCBEC0" d="M40,72.4C22.1,72.4,7.6,57.9,7.6,40C7.6,22.1,22.1,7.6,40,7.6S72.4,22.1,72.4,40
				C72.4,57.9,57.9,72.4,40,72.4z M40,8.3C22.5,8.3,8.3,22.5,8.3,40c0,17.5,14.2,31.7,31.7,31.7S71.7,57.5,71.7,40
				C71.7,22.5,57.5,8.3,40,8.3z"/>
			<path fill="#BCBEC0" d="M40,72.8C21.9,72.8,7.2,58.1,7.2,40S21.9,7.2,40,7.2S72.8,21.9,72.8,40S58.1,72.8,40,72.8z M40,8.7
				C22.7,8.7,8.7,22.7,8.7,40S22.7,71.3,40,71.3S71.3,57.3,71.3,40S57.3,8.7,40,8.7z"/>
		</g>
		<g>
			<path fill="#BCBEC0" d="M40,72.8C21.9,72.8,7.2,58.1,7.2,40S21.9,7.2,40,7.2S72.8,21.9,72.8,40S58.1,72.8,40,72.8z M40,7.9
				C22.3,7.9,7.9,22.3,7.9,40S22.3,72.1,40,72.1c17.7,0,32.1-14.4,32.1-32.1S57.7,7.9,40,7.9z M40,72C22.3,72,8,57.7,8,40
				S22.3,8,40,8c17.7,0,32,14.4,32,32S57.7,72,40,72z M40,8.6C22.7,8.6,8.6,22.7,8.6,40S22.7,71.4,40,71.4S71.4,57.3,71.4,40
				S57.3,8.6,40,8.6z"/>
			<path fill="#BCBEC0" d="M40,73.2C21.7,73.2,6.8,58.3,6.8,40S21.7,6.8,40,6.8S73.2,21.7,73.2,40S58.3,73.2,40,73.2z M40,9
				C22.9,9,9,22.9,9,40c0,17.1,13.9,31,31,31s31-13.9,31-31C71,22.9,57.1,9,40,9z"/>
		</g>
	</g>
	<g>
		<g>
			<path fill="#BCBEC0" d="M28.3,37.5c0.2-2.4,0.4-4.9,1.3-7.2c0.3-0.7,0.8-1.1,1.3-1.1c7.7,0.2,15.7-7.7,21.4,9.9
				c-1.9,2.7-15.8,6.2-24.3,1c0,0,0,0,0,0c0,0,0,0-0.1,0c0,0,0,0,0,0c3.7,2.3,8.1,2.7,11.1,2.7h0c6.2,0,12.1-1.9,13.3-3.7
				c0,0,0,0,0-0.1C49,28.8,44.9,27.5,41.7,27.5c-1.7,0-3.4,0.4-5.1,0.8c-1.7,0.4-3.5,0.8-5.3,0.8h0c-0.1,0-0.2,0-0.3,0
				c-0.5,0-1,0.4-1.4,1.2c-0.9,2.1-1.1,4.3-1.3,6.5C28.2,37,28.2,37.2,28.3,37.5C28.2,37.5,28.2,37.5,28.3,37.5z"/>
			<path fill="#BCBEC0" d="M52.3,39.1c-5.8-17.6-13.7-9.6-21.4-9.9c-0.5,0-1,0.4-1.3,1.1c-1,2.3-1.1,4.7-1.3,7.2c0,0,0,0,0,0
				c0,0,0,0,0,0.1h0l0,0c0,0.2-0.1,0.7-0.3,2.4c0,0,0,0,0,0C36.5,45.2,50.5,41.8,52.3,39.1z M28.4,36.8c0.2-2.2,0.4-4.4,1.3-6.5
				c0.3-0.7,0.7-1.1,1.2-1.1c0,0,0,0,0,0c0.1,0,0.2,0,0.3,0h0c1.8,0,3.6-0.4,5.3-0.8c1.7-0.4,3.4-0.8,5.1-0.8c2.2,0,4,0.7,5.6,2.2
				c1.9,1.8,3.5,4.8,5,9.2c-1.2,1.7-7.1,3.6-13.2,3.6c-3,0-7.4-0.5-11-2.7C28.2,38.9,28.3,37.8,28.4,36.8z"/>
			<path fill="#BCBEC0" fill-opacity="0.9917" d="M21.1,44.9c0.7,4.5,8.8,8.3,18.4,8.7c0.6,0,1.2,0,1.8,0h0c3.5,0,7.2-0.5,10.4-1.3
				c-0.2,0-0.4,0.1-0.7,0.1c-0.7,0.1-1.5,0.2-2.4,0.2c-1.8,0.1-3.8-0.1-6-0.7c-2.1-0.5-4.3-1.4-6.5-2.3c-2.2-0.9-4.3-1.9-6.4-2.3
				c-0.5-0.1-1-0.1-1.6-0.1c-0.5,0-1,0.1-1.5,0.1c-1,0-2-0.1-2.9-0.3c-0.9-0.2-1.6-0.7-2-1.3c-0.4-0.7-0.4-1.3-0.3-1.8
				c0.1-0.5,0.2-0.9,0.4-1.1c0.1-0.2,0.2-0.4,0.2-0.4s-0.1,0.1-0.2,0.4c-0.1,0.3-0.2,0.6-0.3,1.1c0,0.5,0,1.1,0.4,1.7
				c0.4,0.6,1.1,1,1.9,1.1c0.8,0.2,1.8,0.2,2.7,0.2c1,0,2-0.3,3.2-0.1c1.1,0.2,2.2,0.5,3.3,0.9c1.1,0.4,2.2,0.9,3.2,1.3
				c2.1,0.9,4.3,1.8,6.4,2.3c2.1,0.6,4.1,0.9,5.8,0.8c1.7,0,3.2-0.2,4.2-0.4c0.3,0,0.5-0.1,0.7-0.1c3.5-1.1,6.1-2.8,6.6-4.8
				c0.5-2.3-1.9-4.9-6.9-7.4c0.4,1.2,0.4,3,0.4,3c0,0,0,0,0,0c-2,2.6-8.3,3.6-13.6,3.6h0c-5.3,0-11.3-1-12.4-2.9c0,0,0,0,0,0
				c-0.2-1,0.2-3,0.4-3.4c0,0,0,0,0,0c0,0,0,0,0.1,0c0.1-0.8,0.2-1.9,0.3-2.2C23.2,39.5,20.7,42.1,21.1,44.9z"/>
			<path fill="#BCBEC0" d="M53,39.4C53,39.4,52.9,39.4,53,39.4c-0.1,0-0.1,0.1-0.1,0.1c0.4,1.2,0.4,2.9,0.4,3.1
				c-2,2.6-8.3,3.5-13.4,3.5h0c-6.2,0-11.3-1.2-12.3-2.8c-0.2-0.9,0.2-2.7,0.3-3.2l0,0l0,0c0,0,0,0,0-0.1c0,0,0,0,0,0c0,0,0,0,0,0
				c-0.1,0.4-0.6,2.4-0.4,3.3c2.1,3.6,22,4.4,25.9-0.7C53.4,42.6,53.4,40.7,53,39.4c16.9,8.3,0.5,14.9-13.5,14.3
				c-16.3-0.6-25.9-10.6-11.3-16.1c0,0,0-0.1,0-0.1l0,0c-5.1,1.9-7.7,4.6-7.2,7.5c0.4,2.2,2.4,4.3,5.7,5.9c3.4,1.7,8,2.7,12.8,2.9
				c0.6,0,1.2,0,1.8,0h0c4.4,0,8.9-0.7,12.4-1.8c3.8-1.3,6.1-3,6.5-4.9C60.7,44.6,58.2,42,53,39.4z"/>
			<path fill="#BCBEC0" d="M28.2,37.5c0-0.2-0.2,1.6-0.3,2.4c0,0,0,0-0.1,0c0,0,0,0,0,0c0,0,0,0.1,0,0.1c0,0,0,0,0.1,0c0,0,0,0,0,0
				c0,0,0,0-0.1,0C28.1,39.2,28.2,38.3,28.2,37.5C28.2,37.5,28.2,37.5,28.2,37.5C28.2,37.5,28.2,37.5,28.2,37.5
				C28.2,37.6,28.2,37.5,28.2,37.5z"/>
			<path fill="#BCBEC0" d="M28.3,37.6L28.3,37.6L28.3,37.6C28.3,37.5,28.3,37.5,28.3,37.6C28.3,37.5,28.3,37.5,28.3,37.6
				c-0.1,0.8-0.2,1.6-0.3,2.4c0,0,0,0,0.1,0c0,0,0,0,0,0C28.2,38.2,28.3,37.7,28.3,37.6z"/>
			<path fill="#BCBEC0" d="M39.5,53.7c14,0.6,30.4-6,13.5-14.2c0.4,1.3,0.4,3.1,0.4,3.1c-3.9,5-23.8,4.2-25.9,0.7
				c-0.2-1,0.2-3,0.4-3.3c0,0,0,0,0,0c0.1-0.8,0.2-1.6,0.3-2.4C13.6,43.1,23.2,53.1,39.5,53.7z M27.8,39.9
				C27.8,39.9,27.8,39.9,27.8,39.9c-0.2,0.4-0.7,2.5-0.4,3.4c0,0,0,0,0,0c1.1,1.9,7.1,2.9,12.4,2.9h0c5.2,0,11.5-0.9,13.6-3.6
				c0,0,0,0,0,0c0,0,0-1.7-0.4-3c5.1,2.5,7.5,5.1,6.9,7.4c-0.5,2-3.1,3.7-6.6,4.8c0.2,0,0.3-0.1,0.5-0.1c0.3-0.1,0.4-0.1,0.4-0.1
				s-0.1,0-0.4,0.1c-0.3,0.1-0.6,0.2-1.1,0.3c-0.3,0.1-0.7,0.2-1.1,0.3c-3.2,0.8-6.9,1.3-10.4,1.3h0c-0.6,0-1.2,0-1.8,0
				c-9.6-0.3-17.6-4.2-18.4-8.7c-0.5-2.8,2-5.4,7-7.3C28.1,38,28,39.1,27.8,39.9C27.9,39.9,27.9,39.9,27.8,39.9z"/>
			<path fill="#BCBEC0" d="M28.2,37.5C28.2,37.5,28.2,37.6,28.2,37.5c-0.1,0.8-0.2,1.6-0.3,2.4c0,0,0,0,0.1,0
				C28.1,39.1,28.3,37.4,28.2,37.5z"/>
		</g>
		<g>
			<polygon fill="#BCBEC0" points="26.3,24.1 27.1,26.8 29.9,27.6 27.1,28.4 26.3,31.1 25.5,28.4 22.8,27.6 25.5,26.8 			"/>
			<polygon fill="#BCBEC0" points="22.8,21.1 23.2,22.5 24.6,22.9 23.2,23.3 22.8,24.6 22.4,23.3 21.1,22.9 22.4,22.5 			"/>
			<polygon fill="#BCBEC0" points="32.4,24.1 32.7,25.2 33.8,25.5 32.7,25.8 32.4,27 32,25.8 30.9,25.5 32,25.2 			"/>
		</g>
		<polygon fill="#BCBEC0" points="58.5,33.9 59.1,36.2 61.4,36.8 59.1,37.5 58.5,39.7 57.8,37.5 55.6,36.8 57.8,36.2 		"/>
		<polygon fill="#BCBEC0" points="55.3,53.9 55.8,55.6 57.5,56.1 55.8,56.5 55.3,58.2 54.8,56.5 53.1,56.1 54.8,55.6 		"/>
		<polygon fill="#BCBEC0" points="58.4,51.7 58.8,52.8 59.9,53.1 58.8,53.4 58.4,54.6 58.1,53.4 57,53.1 58.1,52.8 		"/>
		<path fill="#BCBEC0" fill-opacity="0.9917" d="M47.3,29.9c-1.6-1.5-3.4-2.2-5.6-2.2c-1.7,0-3.4,0.4-5.1,0.8
			c-1.8,0.4-3.6,0.8-5.3,0.8h0c-0.1,0-0.2,0-0.3,0c0,0,0,0,0,0c-0.4,0-0.8,0.4-1.2,1.1c-0.9,2-1.1,4.3-1.3,6.5
			c-0.1,1-0.2,2.1-0.4,3.2c3.6,2.2,8,2.7,11,2.7c6.1,0,12-1.9,13.2-3.6C50.8,34.7,49.2,31.7,47.3,29.9z M39.7,31.1
			c-0.1,0.2-0.4,0.4-0.7,0.7c-0.2,0.1-0.3,0.3-0.5,0.4c-0.2,0.1-0.4,0.2-0.7,0.3c-0.2,0.1-0.5,0.2-0.7,0.2c-0.3,0.1-0.5,0.1-0.8,0.1
			c-0.5,0.1-1.1,0-1.6,0c-0.5-0.1-0.9-0.2-1.3-0.3c-0.7-0.3-1.2-0.6-1.2-0.6s0.5,0.1,1.3,0.2c0.4,0.1,0.8,0.1,1.3,0.1
			c0.2,0,0.5,0,0.7,0c0.2,0,0.5,0,0.7-0.1c0.2,0,0.5-0.1,0.7-0.1c0.2,0,0.5-0.1,0.7-0.2c0.2-0.1,0.4-0.1,0.6-0.2
			c0.2-0.1,0.4-0.2,0.6-0.2c0.2-0.1,0.3-0.2,0.5-0.2C39.4,31.2,39.5,31.1,39.7,31.1c0.1-0.2,0.2-0.3,0.2-0.3S39.8,31,39.7,31.1z"/>
	</g>
</g>
</svg>
