<svg width="78px" height="78px" version="1.1" id="Layer_1" xmlns="http://www.w3.org/2000/svg" xmlns:xlink="http://www.w3.org/1999/xlink" x="0px" y="0px" viewBox="0 0 80 80" enable-background="new 0 0 80 80" xml:space="preserve">
<g>
	<g>
		<g>
			<path fill="#BCBEC0" d="M40,72.4C22.1,72.4,7.6,57.9,7.6,40C7.6,22.1,22.1,7.6,40,7.6S72.4,22.1,72.4,40
				C72.4,57.9,57.9,72.4,40,72.4z M40,8.3C22.5,8.3,8.3,22.5,8.3,40c0,17.5,14.2,31.7,31.7,31.7c17.5,0,31.7-14.2,31.7-31.7
				C71.7,22.5,57.5,8.3,40,8.3z"/>
			<path fill="#BCBEC0" d="M40,72.8C21.9,72.8,7.2,58.1,7.2,40S21.9,7.2,40,7.2S72.8,21.9,72.8,40S58.1,72.8,40,72.8z M40,8.7
				C22.7,8.7,8.7,22.7,8.7,40S22.7,71.3,40,71.3S71.3,57.3,71.3,40S57.3,8.7,40,8.7z"/>
		</g>
		<g>
			<path fill="#BCBEC0" d="M40,72.8C21.9,72.8,7.2,58.1,7.2,40S21.9,7.2,40,7.2S72.8,21.9,72.8,40S58.1,72.8,40,72.8z M40,7.9
				C22.3,7.9,7.9,22.3,7.9,40S22.3,72.1,40,72.1c17.7,0,32.1-14.4,32.1-32.1S57.7,7.9,40,7.9z M40,72C22.3,72,8,57.7,8,40
				S22.3,8,40,8c17.7,0,32,14.4,32,32S57.7,72,40,72z M40,8.6C22.7,8.6,8.6,22.7,8.6,40S22.7,71.4,40,71.4S71.4,57.3,71.4,40
				S57.3,8.6,40,8.6z"/>
			<path fill="#BCBEC0" d="M40,73.2C21.7,73.2,6.8,58.3,6.8,40S21.7,6.8,40,6.8S73.2,21.7,73.2,40S58.3,73.2,40,73.2z M40,9
				C22.9,9,9,22.9,9,40c0,17.1,13.9,31,31,31s31-13.9,31-31C71,22.9,57.1,9,40,9z"/>
		</g>
	</g>
	<path fill="#BCBEC0" d="M31.4,27.6v7.8v12.1c-1.3-0.6-3.2-0.6-5,0.3c-2.7,1.4-3.4,3.9-2.4,5.5c1,1.6,3.8,2.3,6.5,0.9
		c1.9-1,2.8-2.6,2.8-4V35L49,31.9v13.7c-1.3-0.6-3.2-0.6-5,0.3c-2.7,1.4-3.4,3.9-2.4,5.5c1,1.6,3.8,2.3,6.5,0.9c1.9-1,2.8-2.6,2.8-4
		V31.5v-5.9v-2L31.4,27.6z"/>
</g>
</svg>
