<svg width="78px" height="78px" version="1.1" id="Layer_1" xmlns="http://www.w3.org/2000/svg" xmlns:xlink="http://www.w3.org/1999/xlink" x="0px" y="0px" viewBox="0 0 83.3 100" enable-background="new 0 0 83.3 100" xml:space="preserve">
<g>
	<path class="tower-band" fill="#FFFFFF" d="M41.7,40.6c-2.3,0-4.5-0.8-6.3-2.2c-2.4-1.9-3.8-4.8-3.8-7.9c0-5.6,4.5-10.1,10.1-10.1s10.1,4.5,10.1,10.1
		c0,3-1.3,5.8-3.6,7.7C46.5,39.7,44.1,40.6,41.7,40.6z M41.7,22.3c-4.5,0-8.1,3.6-8.1,8.1c0,2.5,1.1,4.8,3.1,6.4
		c1.5,1.2,3.2,1.8,5.1,1.8c1.9,0,3.8-0.7,5.3-1.9c1.8-1.5,2.9-3.8,2.9-6.2C49.9,25.9,46.2,22.3,41.7,22.3z"/>
	<path class="tower-band" fill="#FFFFFF" d="M36.1,46.2C29.5,43.8,25,37.5,25,30.4c0-9.2,7.5-16.7,16.7-16.7s16.7,7.5,16.7,16.7
		c0,6.9-4.4,13.2-10.9,15.7l-0.7-1.9c5.7-2.1,9.6-7.7,9.6-13.8c0-8.1-6.6-14.7-14.7-14.7S27,22.3,27,30.4c0,6.2,3.9,11.8,9.8,13.9
		L36.1,46.2z"/>
	<path class="tower-band" fill="#FFFFFF" d="M33.5,52.2c-9-3.4-15.1-12.1-15.1-21.8c0-12.8,10.4-23.2,23.2-23.2S65,17.6,65,30.4
		c0,9.5-5.7,17.9-14.4,21.5l-0.8-1.9c8-3.3,13.2-11,13.2-19.7c0-11.7-9.5-21.2-21.2-21.2s-21.2,9.5-21.2,21.2
		c0,8.8,5.5,16.8,13.8,19.9L33.5,52.2z"/>
	<g>
		<path fill="#27AAE1" d="M58.5,79.1l0.7,1.8h4.5L44.7,33.9c1-0.8,1.6-2.1,1.6-3.4c0-1.1-0.4-2.2-1.1-3c-0.8-0.9-2-1.5-3.4-1.5
			c-1.4,0-2.6,0.6-3.4,1.5c-0.7,0.8-1.1,1.8-1.1,2.9c0,1.5,0.8,2.9,2,3.7l-19,46.8h4.5l0.7-1.8l6.9-3.4l7.4,13.5v3.6H40h4h0.2v-3.6
			l7.4-13.5L58.5,79.1z M52.8,73.7l2-3.7l2.4,5.9L52.8,73.7z M47,55.2L44.2,52v-8.2l3.7,9.1L47,55.2z M49.2,56.1l1.2,3l-1.6-1.9
			L49.2,56.1z M39.9,62.5L38,57.6l1.9-2.1V62.5z M44.2,55.5l1.9,2.1l-1.9,4.8V55.5z M39.9,52l-2.8,3.2l-0.9-2.3l3.7-9.1V52z
			 M35.4,57.2L33.7,59l1.2-3L35.4,57.2z M31.1,65.6l5.2-6l3.6,9.3v0.5l-6.5,3.2l-3-5.4L31.1,65.6z M44.2,68.9l3.6-9.3l5.2,6l0.6,1.6
			l-3,5.4l-6.5-3.2V68.9z M26.9,75.9l2.4-5.9l2,3.7L26.9,75.9z M34.5,74.7l5.4-2.6v12.4L34.5,74.7z M44.2,84.4V72l5.4,2.6L44.2,84.4
			z"/>
		<polygon fill="#FFFFFF" points="73.7,10 66.9,14.1 68.9,15.8 65.1,20.5 71.8,15.6 70,14.1 		"/>
		<polygon fill="#FFFFFF" points="9.6,10 16.4,14.1 14.4,15.8 18.2,20.5 11.6,15.6 13.3,14.1 		"/>
		<polygon fill="#FFFFFF" points="9.6,52.7 16.4,48.6 14.4,46.9 18.2,42.2 11.6,47.2 13.3,48.6 		"/>
		<polygon fill="#FFFFFF" points="73.7,52.7 66.9,48.6 68.9,46.9 65.1,42.2 71.8,47.2 70,48.6 		"/>
	</g>
</g>
</svg>
