<svg width="78px" height="78px" version="1.1" id="Layer_1" xmlns="http://www.w3.org/2000/svg" xmlns:xlink="http://www.w3.org/1999/xlink" x="0px" y="0px" viewBox="0 0 80 80" enable-background="new 0 0 80 80" xml:space="preserve">
<g>
	<g>
		<g>
			<path fill="#BCBEC0" d="M40,72.4C22.1,72.4,7.6,57.9,7.6,40C7.6,22.1,22.1,7.6,40,7.6S72.4,22.1,72.4,40
				C72.4,57.9,57.9,72.4,40,72.4z M40,8.3C22.5,8.3,8.3,22.5,8.3,40c0,17.5,14.2,31.7,31.7,31.7c17.5,0,31.7-14.2,31.7-31.7
				C71.7,22.5,57.5,8.3,40,8.3z"/>
			<path fill="#BCBEC0" d="M40,72.8C21.9,72.8,7.2,58.1,7.2,40S21.9,7.2,40,7.2c18.1,0,32.8,14.7,32.8,32.8S58.1,72.8,40,72.8z
				 M40,8.7C22.7,8.7,8.7,22.7,8.7,40S22.7,71.3,40,71.3c17.3,0,31.3-14.1,31.3-31.3S57.3,8.7,40,8.7z"/>
		</g>
		<g>
			<path fill="#BCBEC0" d="M40,72.8C21.9,72.8,7.2,58.1,7.2,40S21.9,7.2,40,7.2S72.8,21.9,72.8,40S58.1,72.8,40,72.8z M40,7.9
				C22.3,7.9,7.9,22.3,7.9,40S22.3,72.1,40,72.1S72.1,57.7,72.1,40S57.7,7.9,40,7.9z M40,72C22.3,72,8,57.7,8,40S22.3,8,40,8
				s32,14.4,32,32S57.7,72,40,72z M40,8.6C22.7,8.6,8.6,22.7,8.6,40S22.7,71.4,40,71.4S71.4,57.3,71.4,40S57.3,8.6,40,8.6z"/>
			<path fill="#BCBEC0" d="M40,73.2C21.7,73.2,6.8,58.3,6.8,40S21.7,6.8,40,6.8S73.2,21.7,73.2,40S58.3,73.2,40,73.2z M40,9
				C22.9,9,9,22.9,9,40c0,17.1,13.9,31,31,31s31-13.9,31-31C71,22.9,57.1,9,40,9z"/>
		</g>
	</g>
	<g>
		<g>
			<g>
				<polygon fill="#BCBEC0" points="25.5,37.7 22,37.7 22,45.3 20.8,45.3 20.8,47 21.7,48.5 22.7,47.8 21.9,46.7 21.9,46.5 25,46.5 
					25,46.9 24.4,47.9 25.4,48.4 26.1,47.2 26.1,45.3 25.5,45.3 				"/>
				<path fill="#BCBEC0" d="M38.2,27.9v-1.3h-2.1V19c0-0.2-0.2-0.4-0.4-0.4c-0.2,0-0.4,0.2-0.4,0.4v7.6h-2.1v1.3h-6.3v8.4h14.2
					c0.1-0.1,0.2-0.2,0.4-0.3l3.1-1.5v-6.6H38.2z M32.1,32.9h-2.4v-2.4h2.4V32.9z M41.8,32.9h-2.4v-2.4h2.4V32.9z"/>
				<path fill="#BCBEC0" d="M40.9,51.9c-0.1,0-0.1-0.1-0.2-0.1c-0.1,0-0.2,0-0.3-0.1c-0.1-0.1-0.3-0.1-0.4-0.2
					c-0.4-0.3-0.6-0.7-0.6-1.2v-2.9v-2.1v-5.6c0-0.6,0.3-1.1,0.8-1.3c0-0.2,0.1-0.4,0.2-0.6H26.9v9.7h1.3v4.1h-1v1.9h6.5v-1.9h-0.9
					v-4.1h5.9v4.1h-0.9v1.9h5.8L42.8,53L40.9,51.9z"/>
			</g>
			<g>
				<g id="w8ZWAg_9_">
					<g>
						<g>
							<path fill-rule="evenodd" clip-rule="evenodd" fill="#BCBEC0" d="M57.5,47.4c-4.5,0-8.9,0-13.3,0c2.2-3.6,4.4-7.2,6.7-10.9
								C53.1,40.1,55.3,43.7,57.5,47.4z"/>
						</g>
						<g>
							<path fill-rule="evenodd" clip-rule="evenodd" fill="#BCBEC0" d="M50.8,55.2c-2.2-2.3-4.4-4.5-6.6-6.8c4.4,0,8.8,0,13.3,0
								C55.2,50.7,53,52.9,50.8,55.2z"/>
						</g>
						<g>
							<path fill-rule="evenodd" clip-rule="evenodd" fill="#BCBEC0" d="M49.8,36.6c-2.1,3.5-4.2,6.9-6.3,10.5
								c-0.6-2.9-1.2-5.7-1.8-8.6C44.4,37.8,47.1,37.2,49.8,36.6C49.8,36.6,49.8,36.6,49.8,36.6z"/>
						</g>
						<g>
							<path fill-rule="evenodd" clip-rule="evenodd" fill="#BCBEC0" d="M51.8,36.5c2.8,0.7,5.5,1.3,8.2,2c-0.6,2.9-1.2,5.7-1.8,8.6
								C56.1,43.5,54,40.1,51.8,36.5z"/>
						</g>
						<g>
							<path fill-rule="evenodd" clip-rule="evenodd" fill="#BCBEC0" d="M58.3,48.5c0.6,0.7,1.1,1.4,1.7,2.1c-2.7,1.5-5.3,3-8,4.4
								c0,0,0,0,0,0C54.1,52.9,56.2,50.7,58.3,48.5z"/>
						</g>
						<g>
							<path fill-rule="evenodd" clip-rule="evenodd" fill="#BCBEC0" d="M49.6,55c-2.6-1.5-5.3-2.9-7.9-4.4c0.6-0.7,1.1-1.4,1.7-2.1
								C45.4,50.7,47.5,52.8,49.6,55C49.6,55,49.6,55,49.6,55z"/>
						</g>
						<g>
							<path fill-rule="evenodd" clip-rule="evenodd" fill="#BCBEC0" d="M60.8,50.3c-0.1-0.1-0.2-0.2-0.3-0.3
								c-0.5-0.6-0.9-1.2-1.4-1.8c-0.1-0.1-0.1-0.3-0.1-0.5c0.5-2.6,1.1-5.2,1.6-7.9c0-0.1,0.1-0.2,0.1-0.3
								C60.8,43.1,60.8,46.7,60.8,50.3z"/>
						</g>
						<g>
							<path fill-rule="evenodd" clip-rule="evenodd" fill="#BCBEC0" d="M40.9,50.3c0-3.6,0-7.2,0-10.7c0,0,0,0,0,0
								c0.2,0.7,0.3,1.5,0.5,2.2c0.4,1.9,0.8,3.9,1.2,5.8c0.1,0.3,0,0.4-0.2,0.6C42,48.9,41.5,49.6,40.9,50.3z"/>
						</g>
						<g>
							<path fill-rule="evenodd" clip-rule="evenodd" fill="#BCBEC0" d="M51.3,35.5c0-0.7,0-1.4,0-2.1c2.8,1.4,5.5,2.7,8.2,4
								c0,0,0,0,0,0.1C56.8,36.9,54,36.2,51.3,35.5z"/>
						</g>
						<g>
							<path fill-rule="evenodd" clip-rule="evenodd" fill="#BCBEC0" d="M50.4,33.4c0,0.7,0,1.4,0,2.1c-2.7,0.7-5.5,1.3-8.2,2
								c0,0,0,0,0-0.1C44.9,36.1,47.6,34.8,50.4,33.4z"/>
						</g>
					</g>
				</g>
			</g>
		</g>
	</g>
</g>
</svg>
