<svg width="78px" height="78px" version="1.1" id="Layer_1" xmlns="http://www.w3.org/2000/svg" xmlns:xlink="http://www.w3.org/1999/xlink" x="0px" y="0px" viewBox="0 0 80 80" enable-background="new 0 0 80 80" xml:space="preserve">
<g>
	<g>
		<g>
			<path fill="#BCBEC0" d="M40,72.4C22.1,72.4,7.6,57.9,7.6,40C7.6,22.1,22.1,7.6,40,7.6c17.9,0,32.4,14.6,32.4,32.4
				C72.4,57.9,57.9,72.4,40,72.4z M40,8.3C22.5,8.3,8.3,22.5,8.3,40c0,17.5,14.2,31.7,31.7,31.7c17.5,0,31.7-14.2,31.7-31.7
				C71.7,22.5,57.5,8.3,40,8.3z"/>
			<path fill="#BCBEC0" d="M40,72.8C21.9,72.8,7.2,58.1,7.2,40S21.9,7.2,40,7.2c18.1,0,32.8,14.7,32.8,32.8S58.1,72.8,40,72.8z
				 M40,8.7C22.7,8.7,8.7,22.7,8.7,40S22.7,71.3,40,71.3c17.3,0,31.3-14.1,31.3-31.3S57.3,8.7,40,8.7z"/>
		</g>
		<g>
			<path fill="#BCBEC0" d="M40,72.8C21.9,72.8,7.2,58.1,7.2,40S21.9,7.2,40,7.2S72.8,21.9,72.8,40S58.1,72.8,40,72.8z M40,7.9
				C22.3,7.9,7.9,22.3,7.9,40S22.3,72.1,40,72.1c17.7,0,32.1-14.4,32.1-32.1S57.7,7.9,40,7.9z M40,72C22.3,72,8,57.7,8,40
				S22.3,8,40,8c17.7,0,32,14.4,32,32S57.7,72,40,72z M40,8.6C22.7,8.6,8.6,22.7,8.6,40S22.7,71.4,40,71.4S71.4,57.3,71.4,40
				S57.3,8.6,40,8.6z"/>
			<path fill="#BCBEC0" d="M40,73.2C21.7,73.2,6.8,58.3,6.8,40S21.7,6.8,40,6.8S73.2,21.7,73.2,40S58.3,73.2,40,73.2z M40,9
				C22.9,9,9,22.9,9,40c0,17.1,13.9,31,31,31c17.1,0,31-13.9,31-31C71,22.9,57.1,9,40,9z"/>
		</g>
	</g>
	<g>
		<g>
			<path fill="#BCBEC0" d="M41,50.2c5.1,0,9.2-4.1,9.2-9.2c0-5.1-4.1-9.2-9.2-9.2c-5.1,0-9.2,4.1-9.2,9.2
				C31.8,46.1,35.9,50.2,41,50.2z"/>
			<path fill="#BCBEC0" d="M41,52.7c6.4,0,11.7-5.2,11.7-11.7c0-6.4-5.2-11.7-11.7-11.7c-6.4,0-11.7,5.2-11.7,11.7
				C29.3,47.5,34.5,52.7,41,52.7z M41,30.8c5.7,0,10.3,4.6,10.3,10.3c0,5.7-4.6,10.3-10.3,10.3c-5.7,0-10.3-4.6-10.3-10.3
				C30.7,35.4,35.3,30.8,41,30.8z"/>
			<path fill="#BCBEC0" d="M59.1,53.8l-0.7-26.2c0-0.6-0.5-1-1-1c-0.2,0-0.3,0-0.4,0.1v0c0,0,0,0-0.1,0c-0.1,0.1-0.2,0.1-0.3,0.2
				c-0.7,0.6-3.1,3.1-3.3,6.5c-0.3,5.2,2.2,7.2,3.1,9.1l-0.7,11.2c0,0.6,1.1,1,1.7,1C58,54.8,59.1,54.4,59.1,53.8z"/>
			<path fill="#BCBEC0" d="M21.3,37.9l1.8,0.9c0.2,0.1,0.4,0.2,0.7,0.2l-0.7,15.3c0,0.5,1.1,0.9,1.7,0.9c0.6,0,1.7-0.4,1.7-0.9
				l-0.7-15.4c0.2-0.1,0.5-0.2,0.7-0.3l1.3-0.8c0.9-0.6,1.7-1.8,1.7-2.9V28c0-0.6-0.5-1-1-1c-0.6,0-1,0.5-1,1v6.2h-0.6V28
				c0-0.6-0.5-1-1-1c-0.6,0-1,0.5-1,1v6.2h-0.6V28c0-0.6-0.5-1-1-1c-0.6,0-1,0.5-1,1v6.2h-0.6v-6c0-0.6-0.5-1-1-1c-0.6,0-1,0.5-1,1
				V35C19.5,36.1,20.3,37.4,21.3,37.9z"/>
		</g>
	</g>
</g>
</svg>
