<svg width="78px" height="78px" version="1.1" id="Layer_1" xmlns="http://www.w3.org/2000/svg" xmlns:xlink="http://www.w3.org/1999/xlink" x="0px" y="0px" viewBox="0 0 80 80" enable-background="new 0 0 80 80" xml:space="preserve">
<g>
	<g>
		<g>
			<path fill="#BCBEC0" d="M40,72.4C22.1,72.4,7.6,57.9,7.6,40C7.6,22.1,22.1,7.6,40,7.6c17.9,0,32.4,14.6,32.4,32.4
				C72.4,57.9,57.9,72.4,40,72.4z M40,8.3C22.5,8.3,8.3,22.5,8.3,40c0,17.5,14.2,31.7,31.7,31.7c17.5,0,31.7-14.2,31.7-31.7
				C71.7,22.5,57.5,8.3,40,8.3z"/>
			<path fill="#BCBEC0" d="M40,72.8C21.9,72.8,7.2,58.1,7.2,40S21.9,7.2,40,7.2S72.8,21.9,72.8,40S58.1,72.8,40,72.8z M40,8.7
				C22.7,8.7,8.7,22.7,8.7,40S22.7,71.3,40,71.3S71.3,57.3,71.3,40S57.3,8.7,40,8.7z"/>
		</g>
		<g>
			<path fill="#BCBEC0" d="M40,72.8C21.9,72.8,7.2,58.1,7.2,40S21.9,7.2,40,7.2S72.8,21.9,72.8,40S58.1,72.8,40,72.8z M40,7.9
				C22.3,7.9,7.9,22.3,7.9,40S22.3,72.1,40,72.1S72.1,57.7,72.1,40S57.7,7.9,40,7.9z M40,72C22.3,72,8,57.7,8,40S22.3,8,40,8
				s32,14.4,32,32S57.7,72,40,72z M40,8.6C22.7,8.6,8.6,22.7,8.6,40S22.7,71.4,40,71.4S71.4,57.3,71.4,40S57.3,8.6,40,8.6z"/>
			<path fill="#BCBEC0" d="M40,73.2C21.7,73.2,6.8,58.3,6.8,40S21.7,6.8,40,6.8S73.2,21.7,73.2,40S58.3,73.2,40,73.2z M40,9
				C22.9,9,9,22.9,9,40c0,17.1,13.9,31,31,31s31-13.9,31-31C71,22.9,57.1,9,40,9z"/>
		</g>
	</g>
	<g>
		<g>
			<g>
				<g>
					<g>
						
							<rect x="25.6" y="26.4" transform="matrix(-0.7071 0.7071 -0.7071 -0.7071 66.7888 26.074)" fill="#BCBEC0" width="4.8" height="0.9"/>
						
							<rect x="24.8" y="25.6" transform="matrix(-0.7071 0.7071 -0.7071 -0.7071 64.8268 25.2615)" fill="#BCBEC0" width="4.8" height="0.9"/>
						<path fill="#BCBEC0" d="M25.2,22.6L23.7,24c-0.5,0.5-0.5,1.4,0,1.9l1.1,1.1l3.4-3.4l-1.1-1.1C26.6,22,25.7,22,25.2,22.6z"/>
						<g>
							<path fill="#BCBEC0" d="M40,35.4l-9.6-9.6l-3.4,3.4l9.4,9.4C37.9,37.3,38.9,36.5,40,35.4z M32.1,32l-1.9-1.9
								c-0.2-0.2-0.2-0.7,0.1-1c0.3-0.3,0.7-0.3,1-0.1l1.9,1.9c0.2,0.2,0.2,0.7-0.1,1C32.8,32.2,32.3,32.3,32.1,32z"/>
							<path fill="#BCBEC0" d="M40.3,42.6l9.4,9.4l0.3-1.2l1.8-0.1l0.1-1.8l1.3-0.3L43.5,39C42.5,40.1,41.6,41.1,40.3,42.6z"/>
						</g>
						<g>
							<g>
								<path fill="#BCBEC0" d="M55,52.3c0,0-0.6,0-1.1,0.5c-0.5,0.5-0.4,1.2-0.4,1.2l2.7,1.1L55,52.3z"/>
							</g>
						</g>
					</g>
					<g>
						<path fill="#BCBEC0" d="M37.4,44.5c4.3-4.8,5-5.6,8.2-9.1c4.8-5.2,11.1-11,10-12.1l0,0l0,0l0,0l0,0c-1.1-1.1-6.8,5.2-12.1,10
							c-3.5,3.3-4.3,4-9.1,8.2c-4.8,4.3-4.5,5.7-4.5,5.7l0.8,0.8l0,0l0.8,0.8C31.6,49,33.1,49.4,37.4,44.5z"/>
						
							<rect x="28.6" y="48.2" transform="matrix(0.7072 0.707 -0.707 0.7072 43.2212 -7.0662)" fill="#BCBEC0" width="3.1" height="0.9"/>
						<path fill="#BCBEC0" d="M29.7,49.1c0,0-1.3-1.7-3.4,0.4c-1.8,1.8-1,4.2-2.4,5.4C22.6,56.1,33.4,52.8,29.7,49.1z"/>
					</g>
				</g>
			</g>
		</g>
	</g>
</g>
</svg>
