<svg width="78px" height="78px" version="1.1" id="Layer_1" xmlns="http://www.w3.org/2000/svg" xmlns:xlink="http://www.w3.org/1999/xlink" x="0px" y="0px" viewBox="0 0 138.7 100" enable-background="new 0 0 138.7 100" xml:space="preserve">
<g>
	<g>
		<g>
			<path fill="#27AAE1" d="M7.7,12.4h5.9l4.8,7.8l4.8-7.8h5.9v20.2h-5.6V21l-5.2,7.9h-0.1L13.3,21v11.6H7.7V12.4z"/>
			<path fill="#27AAE1" d="M39.8,12.2h5.4l8.6,20.4h-6L46.4,29h-7.8l-1.4,3.6h-5.9L39.8,12.2z M44.8,24.6l-2.3-5.8l-2.3,5.8H44.8z"
				/>
			<path fill="#27AAE1" d="M63.8,32.9c-1.8,0-3.5-0.3-5.2-0.8c-1.6-0.6-3.1-1.4-4.3-2.5l3.1-3.7c2,1.6,4.2,2.4,6.6,2.4
				c0.8,0,1.3-0.1,1.7-0.4c0.4-0.2,0.6-0.6,0.6-1v-0.1c0-0.2,0-0.4-0.1-0.6c-0.1-0.2-0.3-0.3-0.5-0.5c-0.3-0.2-0.6-0.3-1-0.4
				c-0.4-0.1-1-0.3-1.7-0.4c-1.1-0.2-2.1-0.5-3-0.8c-0.9-0.3-1.7-0.7-2.4-1.2c-0.7-0.5-1.2-1.1-1.6-1.8c-0.4-0.7-0.6-1.6-0.6-2.6
				v-0.1c0-0.9,0.2-1.8,0.5-2.6c0.4-0.8,0.9-1.5,1.6-2.1s1.5-1,2.5-1.3c1-0.3,2.1-0.5,3.3-0.5c1.7,0,3.3,0.2,4.6,0.7
				c1.4,0.5,2.6,1.1,3.7,2l-2.8,4c-0.9-0.7-1.9-1.2-2.8-1.5c-1-0.3-1.9-0.5-2.8-0.5c-0.7,0-1.2,0.1-1.5,0.4
				c-0.3,0.3-0.5,0.6-0.5,0.9V18c0,0.2,0.1,0.4,0.2,0.6c0.1,0.2,0.3,0.3,0.5,0.5c0.3,0.1,0.6,0.3,1.1,0.4c0.5,0.1,1,0.3,1.7,0.4
				c1.2,0.3,2.2,0.5,3.1,0.9c0.9,0.3,1.7,0.7,2.4,1.2s1.2,1.1,1.5,1.7c0.3,0.7,0.5,1.5,0.5,2.4v0.1c0,1-0.2,2-0.6,2.8
				c-0.4,0.8-0.9,1.5-1.7,2.1c-0.7,0.6-1.6,1-2.6,1.3C66.1,32.8,65,32.9,63.8,32.9z"/>
			<path fill="#27AAE1" d="M79.6,17.3h-6.1v-4.9h17.8v4.9h-6.1v15.3h-5.6V17.3z"/>
			<path fill="#27AAE1" d="M93.8,12.4H110v4.8H99.3v3.1h9.7v4.4h-9.7v3.2h10.9v4.8H93.8V12.4z"/>
			<path fill="#27AAE1" d="M113.1,12.4h9.6c1.6,0,2.9,0.2,4,0.6c1.1,0.4,2,0.9,2.6,1.6c1.2,1.2,1.8,2.7,1.8,4.7v0.1
				c0,1.6-0.4,2.9-1.1,3.9c-0.8,1-1.8,1.8-3,2.3l4.8,7.1h-6.5l-4.1-6.1h-0.1h-2.4v6.1h-5.6V12.4z M122.4,22.1c1,0,1.7-0.2,2.2-0.7
				c0.5-0.4,0.8-1,0.8-1.8v-0.1c0-0.8-0.3-1.4-0.8-1.8c-0.5-0.4-1.3-0.6-2.2-0.6h-3.7v4.9H122.4z"/>
			<path fill="#27AAE1" d="M18.7,61.4c-1.7,0-3.3-0.3-4.7-0.9c-1.4-0.6-2.7-1.4-3.7-2.4c-1-1-1.9-2.2-2.5-3.6C7.2,53.1,7,51.6,7,50
				V50c0-1.6,0.3-3,0.9-4.4c0.6-1.4,1.4-2.6,2.5-3.6c1.1-1,2.3-1.8,3.8-2.4c1.4-0.6,3-0.9,4.7-0.9c1.7,0,3.3,0.3,4.7,0.9
				c1.4,0.6,2.7,1.4,3.7,2.4c1,1,1.9,2.2,2.5,3.6c0.6,1.4,0.9,2.9,0.9,4.4V50c0,1.6-0.3,3-0.9,4.4c-0.6,1.4-1.4,2.6-2.5,3.6
				c-1.1,1-2.3,1.8-3.8,2.4C22,61.1,20.4,61.4,18.7,61.4z M18.8,55.9c0.8,0,1.6-0.2,2.3-0.5c0.7-0.3,1.3-0.7,1.8-1.3
				c0.5-0.5,0.9-1.2,1.1-1.9s0.4-1.5,0.4-2.3V50c0-0.8-0.1-1.5-0.4-2.3s-0.7-1.3-1.2-1.9c-0.5-0.5-1.1-1-1.8-1.3
				c-0.7-0.3-1.5-0.5-2.3-0.5c-0.8,0-1.6,0.2-2.3,0.5c-0.7,0.3-1.3,0.7-1.8,1.3c-0.5,0.5-0.9,1.2-1.1,1.9c-0.3,0.7-0.4,1.5-0.4,2.3
				V50c0,0.8,0.1,1.5,0.4,2.3s0.7,1.3,1.1,1.9c0.5,0.5,1.1,1,1.8,1.3C17.2,55.7,17.9,55.9,18.8,55.9z"/>
			<path fill="#27AAE1" d="M33.7,39h17.5v5.3H39.8V48h10.4v5.1H39.8v7.8h-6.1V39z"/>
			<path fill="#27AAE1" d="M21.4,71.2h4.9c0.7,0,1.4,0.1,2,0.3c0.6,0.2,1.1,0.5,1.6,0.8c0.4,0.4,0.8,0.8,1,1.3
				c0.2,0.5,0.4,1.1,0.4,1.8v0c0,0.7-0.1,1.3-0.4,1.9c-0.3,0.5-0.7,1-1.2,1.4c-0.5,0.4-1,0.6-1.7,0.8c-0.6,0.2-1.3,0.3-2,0.3h-3.7
				v5.1h-1V71.2z M26.2,78.8c0.6,0,1.2-0.1,1.7-0.2c0.5-0.2,1-0.4,1.3-0.7s0.7-0.6,0.9-1.1c0.2-0.4,0.3-0.9,0.3-1.4v0
				c0-0.5-0.1-1-0.3-1.4c-0.2-0.4-0.5-0.8-0.8-1c-0.4-0.3-0.8-0.5-1.3-0.6c-0.5-0.1-1.1-0.2-1.7-0.2h-3.8v6.7H26.2z"/>
			<path fill="#27AAE1" d="M40.6,85c-1,0-2-0.2-2.8-0.6c-0.8-0.4-1.5-0.9-2.1-1.5c-0.6-0.6-1.1-1.4-1.4-2.2
				c-0.3-0.8-0.5-1.7-0.5-2.7v0c0-0.9,0.2-1.8,0.5-2.7c0.3-0.8,0.8-1.6,1.4-2.2c0.6-0.6,1.3-1.2,2.2-1.5c0.8-0.4,1.8-0.6,2.8-0.6
				c1,0,2,0.2,2.8,0.6c0.8,0.4,1.6,0.9,2.2,1.5c0.6,0.6,1.1,1.4,1.4,2.2c0.3,0.8,0.5,1.7,0.5,2.7c0,0,0,0,0,0c0,0.9-0.2,1.8-0.5,2.7
				c-0.3,0.8-0.8,1.6-1.4,2.2c-0.6,0.6-1.3,1.2-2.2,1.5C42.5,84.8,41.6,85,40.6,85z M40.6,84.1c0.8,0,1.6-0.2,2.3-0.5
				c0.7-0.3,1.3-0.7,1.8-1.3c0.5-0.5,0.9-1.2,1.2-1.9c0.3-0.7,0.4-1.5,0.4-2.4v0c0-0.8-0.1-1.6-0.4-2.4c-0.3-0.7-0.7-1.4-1.2-1.9
				c-0.5-0.5-1.1-1-1.8-1.3s-1.5-0.5-2.3-0.5s-1.6,0.2-2.3,0.5c-0.7,0.3-1.3,0.8-1.8,1.3c-0.5,0.5-0.9,1.2-1.2,1.9
				c-0.3,0.7-0.4,1.5-0.4,2.4v0c0,0.8,0.1,1.6,0.4,2.4c0.3,0.7,0.7,1.4,1.2,1.9c0.5,0.5,1.1,1,1.8,1.3C39,84,39.8,84.1,40.6,84.1z"
				/>
			<path fill="#27AAE1" d="M50.9,71.2h4.5c1.1,0,2,0.2,2.9,0.5c0.9,0.3,1.6,0.8,2.3,1.4c0.6,0.6,1.1,1.3,1.5,2.1
				c0.3,0.8,0.5,1.7,0.5,2.7v0c0,1-0.2,1.8-0.5,2.7c-0.3,0.8-0.8,1.5-1.5,2.2c-0.6,0.6-1.4,1.1-2.3,1.4c-0.9,0.3-1.9,0.5-2.9,0.5
				h-4.5V71.2z M55.4,83.9c0.9,0,1.8-0.2,2.6-0.5c0.8-0.3,1.4-0.7,1.9-1.2c0.5-0.5,0.9-1.1,1.2-1.8c0.3-0.7,0.4-1.5,0.4-2.3v0
				c0-0.8-0.1-1.6-0.4-2.3c-0.3-0.7-0.7-1.3-1.2-1.9c-0.5-0.5-1.2-1-1.9-1.3c-0.8-0.3-1.6-0.5-2.6-0.5h-3.5v11.8H55.4z"/>
			<path fill="#27AAE1" d="M72.2,85c-1,0-1.9-0.2-2.7-0.5c-0.8-0.4-1.5-0.9-2.1-1.5c-0.6-0.6-1.1-1.4-1.4-2.2
				c-0.3-0.9-0.5-1.8-0.5-2.7v0c0-1,0.2-1.9,0.5-2.7c0.3-0.9,0.8-1.6,1.4-2.2c0.6-0.6,1.3-1.1,2.1-1.5c0.8-0.4,1.7-0.6,2.7-0.6
				c0.6,0,1.2,0.1,1.6,0.2c0.5,0.1,0.9,0.3,1.4,0.4c0.4,0.2,0.8,0.4,1.2,0.7c0.4,0.3,0.7,0.6,1.1,0.9l-0.7,0.7
				c-0.3-0.3-0.6-0.5-0.9-0.8c-0.3-0.2-0.7-0.5-1-0.6c-0.4-0.2-0.8-0.3-1.2-0.4c-0.4-0.1-0.9-0.2-1.4-0.2c-0.8,0-1.6,0.2-2.3,0.5
				c-0.7,0.3-1.3,0.7-1.8,1.3c-0.5,0.5-0.9,1.2-1.2,1.9c-0.3,0.7-0.4,1.5-0.4,2.4v0c0,0.9,0.1,1.7,0.4,2.4s0.7,1.4,1.2,1.9
				c0.5,0.5,1.1,1,1.8,1.3c0.7,0.3,1.5,0.5,2.3,0.5c1,0,1.8-0.2,2.6-0.5c0.7-0.4,1.4-0.9,2.1-1.6l0.7,0.7c-0.4,0.3-0.7,0.7-1.1,1
				c-0.4,0.3-0.8,0.5-1.2,0.7c-0.4,0.2-0.9,0.4-1.4,0.5S72.8,85,72.2,85z"/>
			<path fill="#27AAE1" d="M85.5,71.1h1l6.3,13.7h-1.1L90,81h-8l-1.7,3.8h-1L85.5,71.1z M89.5,80.1L86,72.2l-3.6,7.9H89.5z"/>
			<path fill="#27AAE1" d="M100.3,85c-1.1,0-2.1-0.2-2.9-0.5c-0.9-0.4-1.7-0.9-2.5-1.6l0.7-0.8c0.4,0.3,0.7,0.6,1.1,0.9
				c0.4,0.3,0.7,0.5,1.1,0.6c0.4,0.2,0.8,0.3,1.2,0.4c0.4,0.1,0.9,0.1,1.4,0.1s1-0.1,1.4-0.2c0.4-0.1,0.8-0.3,1.1-0.6
				c0.3-0.2,0.5-0.5,0.7-0.9c0.2-0.3,0.3-0.7,0.3-1.1v0c0-0.4-0.1-0.7-0.2-1c-0.1-0.3-0.3-0.5-0.6-0.8c-0.3-0.2-0.7-0.4-1.2-0.6
				c-0.5-0.2-1.1-0.4-1.9-0.5c-0.8-0.2-1.5-0.4-2.1-0.6c-0.6-0.2-1.1-0.5-1.4-0.8c-0.4-0.3-0.6-0.7-0.8-1.1
				c-0.2-0.4-0.3-0.9-0.3-1.4v0c0-0.5,0.1-1,0.3-1.4c0.2-0.4,0.5-0.8,0.9-1.1c0.4-0.3,0.8-0.6,1.4-0.8c0.5-0.2,1.1-0.3,1.7-0.3
				c1,0,1.8,0.1,2.6,0.4c0.7,0.3,1.4,0.7,2.1,1.2l-0.6,0.8c-0.6-0.6-1.3-1-1.9-1.2c-0.7-0.2-1.4-0.3-2.1-0.3c-0.5,0-1,0.1-1.4,0.2
				c-0.4,0.1-0.8,0.3-1,0.6c-0.3,0.2-0.5,0.5-0.7,0.8c-0.2,0.3-0.2,0.6-0.2,1v0c0,0.4,0.1,0.7,0.2,1c0.1,0.3,0.3,0.6,0.6,0.8
				c0.3,0.2,0.7,0.5,1.2,0.6c0.5,0.2,1.2,0.4,2,0.5c1.6,0.3,2.7,0.8,3.4,1.4c0.7,0.6,1,1.4,1,2.4v0c0,0.5-0.1,1-0.3,1.5
				c-0.2,0.5-0.5,0.9-0.9,1.2c-0.4,0.3-0.9,0.6-1.4,0.8C101.5,84.9,100.9,85,100.3,85z"/>
			<path fill="#27AAE1" d="M111.8,72.1h-4.7v-0.9h10.5v0.9h-4.7v12.7h-1V72.1z"/>
			<g>
				<g>
					<g>
						<path fill="#27AAE1" d="M73.8,61.4c-1.7,0-3.3-0.3-4.7-0.9c-1.4-0.6-2.7-1.4-3.7-2.4c-1-1-1.9-2.2-2.5-3.6
							C62.3,53.1,62,51.6,62,50V50c0-1.6,0.3-3.1,0.9-4.5c0.6-1.4,1.4-2.6,2.5-3.7c1.1-1,2.3-1.9,3.8-2.5c1.4-0.6,3-0.9,4.7-0.9
							c1.7,0,3.3,0.3,4.7,0.9c1.4,0.6,2.7,1.4,3.7,2.4c1,1,1.9,2.2,2.5,3.6c0.6,1.4,0.9,2.9,0.9,4.4V50c0,1.6-0.3,3.1-0.9,4.5
							c-0.6,1.4-1.4,2.6-2.5,3.7c-1.1,1-2.3,1.9-3.8,2.5C77.1,61.1,75.5,61.4,73.8,61.4z M73.8,55.9c0.8,0,1.6-0.2,2.3-0.5
							c0.7-0.3,1.3-0.7,1.8-1.3c0.5-0.5,0.9-1.2,1.1-1.9c0.3-0.7,0.4-1.5,0.4-2.3V50c0-0.8-0.1-1.6-0.4-2.3
							c-0.3-0.7-0.7-1.3-1.2-1.9c-0.5-0.5-1.1-1-1.8-1.3c-0.7-0.3-1.5-0.5-2.3-0.5c-0.8,0-1.6,0.2-2.3,0.5c-0.7,0.3-1.3,0.7-1.8,1.3
							c-0.5,0.5-0.9,1.2-1.1,1.9c-0.3,0.7-0.4,1.5-0.4,2.3V50c0,0.8,0.1,1.6,0.4,2.3c0.3,0.7,0.7,1.3,1.2,1.9c0.5,0.5,1.1,1,1.8,1.3
							C72.2,55.8,73,55.9,73.8,55.9z"/>
						<path fill="#27AAE1" d="M113.6,39h17.7v5.2h-11.7v3.3h10.6v4.8h-10.6v3.5h11.8V61h-17.8V39z"/>
					</g>
					<polygon fill="#27AAE1" points="94.9,39 88.9,39 86.4,42.9 88.9,42.9 88.9,58 86.4,58 86.4,61 96.9,61 96.9,58 94.9,58 					
						"/>
				</g>
				<polygon fill="#27AAE1" points="103.6,39 103.6,50.6 96.9,41.6 96.9,51.5 104.3,61 109.7,61 109.7,39 				"/>
			</g>
		</g>
		<path class="logo-square" fill="#27AAE1" d="M129.2,67.8V88H9.3V67.8H129.2 M131.2,65.8H7.3V90h123.9V65.8L131.2,65.8z"/>
	</g>
</g>
</svg>
