<svg width="78px" height="78px" version="1.1" id="Layer_1" xmlns="http://www.w3.org/2000/svg" xmlns:xlink="http://www.w3.org/1999/xlink" x="0px" y="0px" viewBox="0 0 80 80" enable-background="new 0 0 80 80" xml:space="preserve">
<g>
	<g>
		<g>
			<path fill="#BCBEC0" d="M40,72.4C22.1,72.4,7.6,57.9,7.6,40C7.6,22.1,22.1,7.6,40,7.6c17.9,0,32.4,14.6,32.4,32.4
				C72.4,57.9,57.9,72.4,40,72.4z M40,8.3C22.5,8.3,8.3,22.5,8.3,40c0,17.5,14.2,31.7,31.7,31.7c17.5,0,31.7-14.2,31.7-31.7
				C71.7,22.5,57.5,8.3,40,8.3z"/>
			<path fill="#BCBEC0" d="M40,72.8C21.9,72.8,7.2,58.1,7.2,40S21.9,7.2,40,7.2c18.1,0,32.8,14.7,32.8,32.8S58.1,72.8,40,72.8z
				 M40,8.7C22.7,8.7,8.7,22.7,8.7,40S22.7,71.3,40,71.3c17.3,0,31.3-14.1,31.3-31.3S57.3,8.7,40,8.7z"/>
		</g>
		<g>
			<path fill="#BCBEC0" d="M40,72.8C21.9,72.8,7.2,58.1,7.2,40S21.9,7.2,40,7.2S72.8,21.9,72.8,40S58.1,72.8,40,72.8z M40,7.9
				C22.3,7.9,7.9,22.3,7.9,40S22.3,72.1,40,72.1S72.1,57.7,72.1,40S57.7,7.9,40,7.9z M40,72C22.3,72,8,57.7,8,40S22.3,8,40,8
				s32,14.4,32,32S57.7,72,40,72z M40,8.6C22.7,8.6,8.6,22.7,8.6,40S22.7,71.4,40,71.4S71.4,57.3,71.4,40S57.3,8.6,40,8.6z"/>
			<path fill="#BCBEC0" d="M40,73.2C21.7,73.2,6.8,58.3,6.8,40S21.7,6.8,40,6.8S73.2,21.7,73.2,40S58.3,73.2,40,73.2z M40,9
				C22.9,9,9,22.9,9,40c0,17.1,13.9,31,31,31s31-13.9,31-31C71,22.9,57.1,9,40,9z"/>
		</g>
	</g>
	<g>
		<g>
			<path fill="#BCBEC0" d="M55.6,29.2v1.6h-3v-1.6H41.5l4.4-8.7c0.1-0.2,0-0.4-0.2-0.5c-0.2-0.1-0.4,0-0.5,0.2l-4.5,9.1h-1.1
				l-7-10.3c-0.1-0.2-0.4-0.2-0.6-0.1c-0.2,0.1-0.2,0.4-0.1,0.6l6.7,9.8H27.2v1.6h-2.9v-1.6h-2v25h2v-1.6h2.9v1.6h25.4v-1.6h3v1.6h2
				v-25H55.6z M55.6,32.9v2.9h-3v-2.9H55.6z M52.6,40.7v-2.9h3v2.9H52.6z M55.6,42.7v2.9h-3v-2.9H55.6z M27.2,32.9v2.9h-2.9v-2.9
				H27.2z M24.4,40.7v-2.9h2.9v2.9H24.4z M27.2,42.7v2.9h-2.9v-2.9H27.2z M24.4,50.5v-2.9h2.9v2.9H24.4z M50.7,47.1
				c0,2-1.6,3.6-3.6,3.6H33c-2,0-3.6-1.6-3.6-3.6V35.7c0-2,1.6-3.6,3.6-3.6H47c2,0,3.6,1.6,3.6,3.6V47.1z M52.6,50.5v-2.9h3v2.9
				H52.6z"/>
		</g>
	</g>
</g>
</svg>
