<svg id="Layer_1" data-name="Layer 1" xmlns="http://www.w3.org/2000/svg" xmlns:xlink="http://www.w3.org/1999/xlink" viewBox="0 0 692.83 41.29"><defs><style>.cls-logo-grad-1{fill:url(#linear-gradient);}.cls-logo-grad-2{fill:url(#linear-gradient-2);}.cls-logo-grad-3{fill:url(#linear-gradient-3);}.cls-logo-grad-4{fill:url(#linear-gradient-4);}.cls-logo-grad-5{fill:url(#linear-gradient-5);}.cls-logo-grad-6{fill:url(#linear-gradient-6);}.cls-logo-grad-7{fill:url(#linear-gradient-7);}.cls-logo-grad-8{fill:url(#linear-gradient-8);}.cls-logo-grad-9{fill:url(#linear-gradient-9);}.cls-logo-grad-10{fill:url(#linear-gradient-10);}.cls-logo-grad-11{fill:url(#linear-gradient-11);}.cls-logo-grad-12{fill:url(#linear-gradient-12);}.cls-logo-grad-13{fill:url(#linear-gradient-13);}.cls-logo-grad-14{fill:url(#linear-gradient-14);}.cls-logo-grad-15{fill:url(#linear-gradient-15);}.cls-logo-grad-16{fill:url(#linear-gradient-16);}.cls-logo-grad-17{fill:url(#linear-gradient-17);}.cls-logo-grad-18{fill:url(#linear-gradient-18);}.cls-logo-grad-19{fill:url(#linear-gradient-19);}.cls-logo-grad-20{fill:url(#linear-gradient-20);}</style><linearGradient id="linear-gradient" x1="726.05" y1="274.31" x2="775.55" y2="356.81" gradientUnits="userSpaceOnUse"><stop offset="0" stop-color="#f15b2a"/><stop offset="1" stop-color="#da1c5c"/></linearGradient><linearGradient id="linear-gradient-2" x1="753.52" y1="257.83" x2="803.02" y2="340.33" xlink:href="#linear-gradient"/><linearGradient id="linear-gradient-3" x1="787.93" y1="237.19" x2="837.43" y2="319.68" xlink:href="#linear-gradient"/><linearGradient id="linear-gradient-4" x1="819.05" y1="218.52" x2="868.55" y2="301.01" xlink:href="#linear-gradient"/><linearGradient id="linear-gradient-5" x1="841.86" y1="204.83" x2="891.36" y2="287.33" xlink:href="#linear-gradient"/><linearGradient id="linear-gradient-6" x1="867.82" y1="189.25" x2="917.32" y2="271.75" xlink:href="#linear-gradient"/><linearGradient id="linear-gradient-7" x1="910.91" y1="163.4" x2="960.41" y2="245.89" xlink:href="#linear-gradient"/><linearGradient id="linear-gradient-8" x1="940.6" y1="145.59" x2="990.09" y2="228.08" xlink:href="#linear-gradient"/><linearGradient id="linear-gradient-9" x1="979.75" y1="122.1" x2="1029.25" y2="204.59" xlink:href="#linear-gradient"/><linearGradient id="linear-gradient-10" x1="1040.5" y1="85.65" x2="1089.99" y2="168.14" xlink:href="#linear-gradient"/><linearGradient id="linear-gradient-11" x1="347.22" y1="-58.16" x2="396.72" y2="24.34" xlink:href="#linear-gradient"/><linearGradient id="linear-gradient-12" x1="366.55" y1="-69.76" x2="416.05" y2="12.74" xlink:href="#linear-gradient"/><linearGradient id="linear-gradient-13" x1="1088.25" y1="57" x2="1137.75" y2="139.49" xlink:href="#linear-gradient"/><linearGradient id="linear-gradient-14" x1="1106.85" y1="45.84" x2="1156.34" y2="128.33" xlink:href="#linear-gradient"/><linearGradient id="linear-gradient-15" x1="1124.94" y1="34.99" x2="1174.43" y2="117.48" xlink:href="#linear-gradient"/><linearGradient id="linear-gradient-16" x1="1145.88" y1="22.42" x2="1195.38" y2="104.91" xlink:href="#linear-gradient"/><linearGradient id="linear-gradient-17" x1="1158.92" y1="14.59" x2="1208.42" y2="97.09" xlink:href="#linear-gradient"/><linearGradient id="linear-gradient-18" x1="1179.72" y1="2.11" x2="1229.22" y2="84.61" xlink:href="#linear-gradient"/><linearGradient id="linear-gradient-19" x1="1198.18" y1="-8.96" x2="1247.68" y2="73.53" xlink:href="#linear-gradient"/><linearGradient id="linear-gradient-20" x1="1143.65" y1="23.76" x2="1193.15" y2="106.25" xlink:href="#linear-gradient"/></defs><title>logo-gradient</title><path class="cls-logo-grad-1" d="M653.58,168.28h11.2l9.12,14.8,9.12-14.8h11.19V206.5H683.67v-22l-9.75,15h-0.22L664,184.66V206.5H653.58V168.28Z" transform="translate(-653.58 -167.62)"/><path class="cls-logo-grad-2" d="M714.2,168h10.21l16.28,38.5H729.33l-2.79-6.83H711.8l-2.73,6.83H697.93Zm9.29,23.48-4.26-10.87-4.31,10.87h8.57Z" transform="translate(-653.58 -167.62)"/><path class="cls-logo-grad-3" d="M759.42,207.16a29.66,29.66,0,0,1-9.75-1.59,23.62,23.62,0,0,1-8.16-4.78l5.9-7.06a19.45,19.45,0,0,0,12.4,4.59,6.33,6.33,0,0,0,3.25-.68,2.15,2.15,0,0,0,1.12-1.94v-0.11a2.06,2.06,0,0,0-.27-1.06,2.78,2.78,0,0,0-1-.9,10.41,10.41,0,0,0-2-.84,32.74,32.74,0,0,0-3.2-.85q-3.06-.71-5.68-1.55a17.34,17.34,0,0,1-4.56-2.18,9.31,9.31,0,0,1-4.18-8.26v-0.11a11.73,11.73,0,0,1,1-4.91,10.86,10.86,0,0,1,2.95-3.87,13.91,13.91,0,0,1,4.67-2.54,19.72,19.72,0,0,1,6.17-.9,27.52,27.52,0,0,1,8.77,1.29,22.13,22.13,0,0,1,7,3.82l-5.3,7.51a21.47,21.47,0,0,0-5.38-2.81,16.23,16.23,0,0,0-5.32-1,4.79,4.79,0,0,0-2.87.71,2.1,2.1,0,0,0-1,1.74V179a2.14,2.14,0,0,0,.3,1.14,2.75,2.75,0,0,0,1,.9,11.52,11.52,0,0,0,2,.82q1.28,0.41,3.25.85a46.78,46.78,0,0,1,5.93,1.66,17.73,17.73,0,0,1,4.5,2.32,9.3,9.3,0,0,1,2.84,3.3,10.07,10.07,0,0,1,1,4.61v0.11a11.78,11.78,0,0,1-1.12,5.23,11.22,11.22,0,0,1-3.14,3.9,14.21,14.21,0,0,1-4.86,2.45A22.18,22.18,0,0,1,759.42,207.16Z" transform="translate(-653.58 -167.62)"/><path class="cls-logo-grad-4" d="M789.34,177.56H777.88v-9.28h33.53v9.28H799.94V206.5H789.34V177.56Z" transform="translate(-653.58 -167.62)"/><path class="cls-logo-grad-5" d="M816,168.28h30.69v9H826.48v5.79h18.35v8.36H826.48v6.06H847v9H816V168.28Z" transform="translate(-653.58 -167.62)"/><path class="cls-logo-grad-6" d="M852.47,168.28h18.08a22.43,22.43,0,0,1,7.48,1.09,12.82,12.82,0,0,1,5,3.06,11.81,11.81,0,0,1,3.38,8.9v0.11a12,12,0,0,1-2.13,7.32,13.47,13.47,0,0,1-5.73,4.42l9.12,13.33H875.41l-7.7-11.58h-4.64V206.5H852.47V168.28Zm17.58,18.35a6.39,6.39,0,0,0,4.2-1.23,4.08,4.08,0,0,0,1.48-3.3V182a4,4,0,0,0-1.53-3.41,7,7,0,0,0-4.21-1.12h-6.93v9.17h7Z" transform="translate(-653.58 -167.62)"/><path class="cls-logo-grad-7" d="M925.47,207.14a20.7,20.7,0,0,1-8-1.52,19.68,19.68,0,0,1-6.34-4.13,19.05,19.05,0,0,1-4.18-6.13,18.72,18.72,0,0,1-1.52-7.51v-0.11A19,19,0,0,1,911.2,174a20.05,20.05,0,0,1,6.39-4.15,21.78,21.78,0,0,1,16,0A19.7,19.7,0,0,1,939.9,174a19,19,0,0,1,4.18,6.13,18.72,18.72,0,0,1,1.52,7.51v0.11a19,19,0,0,1-5.75,13.72,20.08,20.08,0,0,1-6.39,4.15A20.7,20.7,0,0,1,925.47,207.14Zm0.08-9.32a9.33,9.33,0,0,0,3.9-.8,9,9,0,0,0,3-2.16,10.05,10.05,0,0,0,1.92-3.17,10.61,10.61,0,0,0,.69-3.84v-0.11a10.61,10.61,0,0,0-.69-3.83,9.86,9.86,0,0,0-2-3.2,9.75,9.75,0,0,0-3-2.21,9.71,9.71,0,0,0-7.77,0,9.31,9.31,0,0,0-4.91,5.33,11,11,0,0,0-.67,3.83v0.11a10.62,10.62,0,0,0,.69,3.84,10.07,10.07,0,0,0,1.95,3.2,9.39,9.39,0,0,0,3,2.21A9.06,9.06,0,0,0,925.55,197.82Z" transform="translate(-653.58 -167.62)"/><path class="cls-logo-grad-8" d="M951,169.11h29.83v9.06H961.32v6.28h17.63v8.63H961.32v13.32H951V169.11Z" transform="translate(-653.58 -167.62)"/><path class="cls-logo-grad-9" d="M1019.09,207.23a20.82,20.82,0,0,1-8-1.53,19.76,19.76,0,0,1-6.37-4.15,19.14,19.14,0,0,1-4.2-6.15,18.83,18.83,0,0,1-1.52-7.54v-0.11a19.09,19.09,0,0,1,5.78-13.78,20.17,20.17,0,0,1,6.42-4.17,21.88,21.88,0,0,1,16.05,0,19.78,19.78,0,0,1,6.37,4.15,19.17,19.17,0,0,1,4.2,6.15,18.83,18.83,0,0,1,1.52,7.54v0.11a19.09,19.09,0,0,1-5.78,13.78,20.17,20.17,0,0,1-6.42,4.17A20.82,20.82,0,0,1,1019.09,207.23Zm0.08-9.36a9.38,9.38,0,0,0,3.92-.8,9,9,0,0,0,3-2.17,10.06,10.06,0,0,0,1.93-3.18,10.67,10.67,0,0,0,.7-3.85v-0.11a10.67,10.67,0,0,0-.7-3.85,9.91,9.91,0,0,0-2-3.21,9.78,9.78,0,0,0-3.06-2.22,9.75,9.75,0,0,0-7.81,0,9.33,9.33,0,0,0-4.94,5.35,11,11,0,0,0-.67,3.85v0.11a10.67,10.67,0,0,0,.7,3.85,10.12,10.12,0,0,0,2,3.21,9.44,9.44,0,0,0,3,2.22A9.11,9.11,0,0,0,1019.17,197.87Z" transform="translate(-653.58 -167.62)"/><path class="cls-logo-grad-10" d="M1086.72,169h30.07v8.83h-19.85v5.67h18v8.19h-18v5.94h20.12v8.83h-30.34V169Z" transform="translate(-653.58 -167.62)"/><polygon class="cls-logo-grad-11" points="401.36 1.41 391.14 1.41 387.03 8.1 391.14 8.1 391.14 33.74 387.03 33.74 387.03 38.86 404.75 38.86 404.75 33.74 401.36 33.74 401.36 1.41"/><polygon class="cls-logo-grad-12" points="416.28 1.41 416.28 21.2 404.75 5.91 404.75 22.67 417.39 38.86 426.5 38.86 426.5 1.41 416.28 1.41"/><path class="cls-logo-grad-13" d="M1160.44,177.36h8.26a11.74,11.74,0,0,1,3.43.47,8,8,0,0,1,2.67,1.37,6.2,6.2,0,0,1,1.74,2.18,6.74,6.74,0,0,1,.62,2.94v0.06a6.52,6.52,0,0,1-2.65,5.43,8.58,8.58,0,0,1-2.83,1.37,12.41,12.41,0,0,1-3.4.46h-6.14v8.49h-1.69V177.36Zm7.93,12.74a10,10,0,0,0,2.89-.39,6.62,6.62,0,0,0,2.23-1.13,5.11,5.11,0,0,0,2-4.1v-0.07a5.4,5.4,0,0,0-.51-2.4,4.69,4.69,0,0,0-1.41-1.72,6.52,6.52,0,0,0-2.18-1,10.25,10.25,0,0,0-2.8-.36h-6.43V190.1h6.24Z" transform="translate(-653.58 -167.62)"/><path class="cls-logo-grad-14" d="M1192.55,200.51a11.06,11.06,0,0,1-8.29-3.53,11.38,11.38,0,0,1-2.31-3.72,12.29,12.29,0,0,1-.81-4.45v-0.06a12.23,12.23,0,0,1,.83-4.47,11.85,11.85,0,0,1,2.32-3.75,11,11,0,0,1,3.61-2.58,12,12,0,0,1,9.39,0,11.16,11.16,0,0,1,3.61,2.57,11.43,11.43,0,0,1,2.31,3.72,12.34,12.34,0,0,1,.81,4.45,0,0,0,0,1,0,.07,12.22,12.22,0,0,1-.83,4.47,11.81,11.81,0,0,1-2.32,3.75,11,11,0,0,1-3.62,2.58A11.32,11.32,0,0,1,1192.55,200.51Zm0.07-1.53a9.31,9.31,0,0,0,6.94-3,10,10,0,0,0,2-3.23,10.93,10.93,0,0,0,.72-4v-0.06a10.82,10.82,0,0,0-.73-4,10.19,10.19,0,0,0-2-3.25,9.55,9.55,0,0,0-3.07-2.19,9.5,9.5,0,0,0-10.84,2.16,10,10,0,0,0-2,3.23,10.94,10.94,0,0,0-.71,4v0.07a10.81,10.81,0,0,0,.73,4,10.18,10.18,0,0,0,2,3.25,9.53,9.53,0,0,0,3.07,2.2A9.33,9.33,0,0,0,1192.62,199Z" transform="translate(-653.58 -167.62)"/><path class="cls-logo-grad-15" d="M1209.78,177.36h7.58a13.47,13.47,0,0,1,4.89.86,11.56,11.56,0,0,1,3.83,2.39,10.63,10.63,0,0,1,2.49,3.59,11.33,11.33,0,0,1,.88,4.47v0.07a11.45,11.45,0,0,1-.88,4.49,10.59,10.59,0,0,1-2.49,3.61,11.77,11.77,0,0,1-3.83,2.41,13.24,13.24,0,0,1-4.89.88h-7.58V177.36Zm7.58,21.23a11.48,11.48,0,0,0,4.29-.77,9.64,9.64,0,0,0,3.25-2.09,9.34,9.34,0,0,0,2.06-3.1,10,10,0,0,0,.73-3.83v-0.06a10,10,0,0,0-.73-3.82,9.47,9.47,0,0,0-2.06-3.13,9.7,9.7,0,0,0-3.25-2.12,11.24,11.24,0,0,0-4.29-.78h-5.88v19.7h5.88Z" transform="translate(-653.58 -167.62)"/><path class="cls-logo-grad-16" d="M1245.51,200.51a11.11,11.11,0,0,1-8.11-3.4,11.28,11.28,0,0,1-2.36-3.72,12.38,12.38,0,0,1-.84-4.58v-0.06a12.07,12.07,0,0,1,.86-4.55,11.93,11.93,0,0,1,2.37-3.75,11,11,0,0,1,8.14-3.46,13.44,13.44,0,0,1,2.76.26,10.74,10.74,0,0,1,2.29.75,12.09,12.09,0,0,1,2,1.15,19,19,0,0,1,1.8,1.48l-1.2,1.23a18,18,0,0,0-1.56-1.33,9.84,9.84,0,0,0-1.74-1.06,10.32,10.32,0,0,0-2-.7,10.14,10.14,0,0,0-2.36-.26,9.22,9.22,0,0,0-6.85,2.94,10.22,10.22,0,0,0-2,3.23,10.77,10.77,0,0,0-.73,4v0.07a10.72,10.72,0,0,0,.75,4,10.35,10.35,0,0,0,2,3.25,9.39,9.39,0,0,0,3,2.18,9.11,9.11,0,0,0,3.8.8,9.49,9.49,0,0,0,4.29-.91,13.75,13.75,0,0,0,3.54-2.63l1.14,1.11a21.19,21.19,0,0,1-1.87,1.61,11.57,11.57,0,0,1-2,1.25,11.4,11.4,0,0,1-2.36.81A12.28,12.28,0,0,1,1245.51,200.51Z" transform="translate(-653.58 -167.62)"/><path class="cls-logo-grad-17" d="M1267.85,177.2h1.63l10.6,22.92h-1.85l-2.89-6.37H1261.9l-2.89,6.37h-1.76Zm6.76,15-6-13.17-6,13.17h12Z" transform="translate(-653.58 -167.62)"/><path class="cls-logo-grad-18" d="M1292.58,200.44a12.76,12.76,0,0,1-4.92-.91,15.17,15.17,0,0,1-4.24-2.73l1.11-1.27a16.23,16.23,0,0,0,1.87,1.51,10.4,10.4,0,0,0,4,1.66,12.06,12.06,0,0,0,2.34.21,7.67,7.67,0,0,0,2.34-.34,5.53,5.53,0,0,0,1.82-.94,4.36,4.36,0,0,0,1.17-1.43,3.9,3.9,0,0,0,.42-1.8v-0.06a4.45,4.45,0,0,0-.28-1.63,3.13,3.13,0,0,0-1-1.3,7.35,7.35,0,0,0-2-1.06,20.42,20.42,0,0,0-3.18-.86,22.09,22.09,0,0,1-3.51-1,8.65,8.65,0,0,1-2.39-1.33,4.56,4.56,0,0,1-1.35-1.77,5.94,5.94,0,0,1-.42-2.31V183a5.13,5.13,0,0,1,.55-2.36,6,6,0,0,1,1.53-1.9,7.19,7.19,0,0,1,2.31-1.27,9,9,0,0,1,2.93-.46,12.07,12.07,0,0,1,4.28.68,12.84,12.84,0,0,1,3.53,2.08l-1.07,1.33a9.77,9.77,0,0,0-6.79-2.57,7.21,7.21,0,0,0-2.29.34,5.64,5.64,0,0,0-1.76.93,4.1,4.1,0,0,0-1.12,1.37,3.67,3.67,0,0,0-.39,1.66v0.06a4.58,4.58,0,0,0,.28,1.64,3.2,3.2,0,0,0,1,1.33,7.16,7.16,0,0,0,2,1.09,23.22,23.22,0,0,0,3.32.91,13.1,13.1,0,0,1,5.72,2.29,4.94,4.94,0,0,1,1.76,4v0.06a5.62,5.62,0,0,1-.57,2.52,5.89,5.89,0,0,1-1.56,2,7.33,7.33,0,0,1-2.37,1.27A9.68,9.68,0,0,1,1292.58,200.44Z" transform="translate(-653.58 -167.62)"/><path class="cls-logo-grad-19" d="M1312,178.89h-7.93v-1.53h17.55v1.53h-7.93v21.23H1312V178.89Z" transform="translate(-653.58 -167.62)"/><path class="cls-logo-grad-20" d="M1343.06,171.63v33.93H1142V171.63h201m3.35-3.35H1138.69v40.64h207.73V168.28h0Z" transform="translate(-653.58 -167.62)"/></svg>