<svg id="Layer_1" data-name="Layer 1" xmlns="http://www.w3.org/2000/svg" viewBox="0 0 1026.1 583.22"><defs><style>.cls-reimagine-1{fill:#ef6222;}.cls-reimagine-10,.cls-reimagine-12,.cls-reimagine-2,.cls-reimagine-3,.cls-reimagine-4{fill:#fff;}.cls-reimagine-3{font-size:83.51px;letter-spacing:10px;}.cls-reimagine-10,.cls-reimagine-12,.cls-reimagine-3,.cls-reimagine-7{font-family:'GothamBold';}.cls-reimagine-4{font-size:47.29px;font-family:'GothamBook';letter-spacing:4px;}.cls-reimagine-13,.cls-reimagine-14,.cls-reimagine-5,.cls-reimagine-6,.cls-reimagine-9{fill:none;stroke-miterlimit:10;}.cls-reimagine-13,.cls-reimagine-14,.cls-reimagine-5,.cls-reimagine-6{stroke:#fff;}.cls-reimagine-14,.cls-reimagine-5,.cls-reimagine-6,.cls-reimagine-9{stroke-width:4.77px;}.cls-reimagine-6{stroke-dasharray:14.48 14.48;}.cls-reimagine-10,.cls-reimagine-7{font-size:36.12px;}.cls-reimagine-7{fill:#525252;letter-spacing:-2px;}.cls-reimagine-8{font-size:78.52px;font-family:'GothamBlack';letter-spacing:7px;}.cls-reimagine-9{stroke:#58595b;stroke-dasharray:14.32;}.cls-reimagine-11{font-size:29.83px;}.cls-reimagine-12{font-size:43.34px;}.cls-reimagine-13{stroke-width:6.09px;}.cls-reimagine-14{stroke-dasharray:14.33 14.33;}</style></defs><title>reimagine</title><path class="cls-reimagine-1" d="M505.44,628.36v3q3.63-1.55,7.29-3h-7.29Z" transform="translate(-486.95 -628.36)"/><path class="cls-reimagine-1" d="M508.44,806.58L565,935.34l44.55-19.57-16.78-38.19,16.65-7.31,40,28L697.68,877l93.71-41.18,0,0,8.46-3.72a208.35,208.35,0,0,0-17.67-91.5,210.75,210.75,0,0,0-118-112.25H512.73q-3.66,1.41-7.29,3v51.91a165.63,165.63,0,0,1,16.84-8.58C605.56,638.06,703,676,739.63,759.3a164.42,164.42,0,0,1,13,48.65l-95.1,41.79-10.18-6.92c14.85-19.38,17-43.1,6.44-67.08-16.24-37-53.93-54.27-98.72-34.59l-18.6,8.18-31,13.61v45Zm60.95-26.78c20.07-8.82,32.47-.54,39.57,15.61s4.7,30.64-15.37,39.46l-16.4,7.21L553,787Z" transform="translate(-486.95 -628.36)"/><path class="cls-reimagine-1" d="M673.67,1019.19a209.91,209.91,0,0,0,72.78-53.06l19,13.35-1.06-86.8-32.2,14.24-0.06-.11-0.11.18-42.93,19,19,13.3A164.62,164.62,0,0,1,505.44,968v51.9A210.83,210.83,0,0,0,673.67,1019.19Z" transform="translate(-486.95 -628.36)"/><path class="cls-reimagine-2" d="M499.77,648.56a12.83,12.83,0,0,1-12.82,12.82v13.12a12.82,12.82,0,1,1,0,25.65v13.12a12.82,12.82,0,1,1,0,25.65v13.12a12.82,12.82,0,1,1,0,25.65v13.12a12.82,12.82,0,1,1,0,25.65V829.6a12.82,12.82,0,1,1,0,25.65v13.12a12.82,12.82,0,1,1,0,25.65v13.12a12.82,12.82,0,1,1,0,25.65v13.12a12.82,12.82,0,1,1,0,25.65v13.12a12.82,12.82,0,0,1,0,25.65v13.12a12.82,12.82,0,0,1,0,25.65v13.12a12.82,12.82,0,1,1,0,25.65V1101a12.82,12.82,0,1,1,0,25.65v13.12a12.82,12.82,0,0,1,0,25.65v13.12a12.82,12.82,0,1,1,0,25.65v7.37h18.49V628.36H486.95v7.37A12.83,12.83,0,0,1,499.77,648.56Z" transform="translate(-486.95 -628.36)"/><path class="cls-reimagine-2" d="M1494.14,634.45v571H511.53v-571h982.61m6.09-6.09H505.44v583.22h994.78V628.36h0Z" transform="translate(-486.95 -628.36)"/><text class="cls-reimagine-3" transform="translate(111.78 408.69)">LIVESTREAM</text><path class="cls-reimagine-2" d="M660.94,783.82H641.39L632,768.33h-6.75v15.48H607.16V716.34h25.6c18.16,0,28.38,11.51,28.38,26.5,0,9.72-4.27,17.46-12.21,21.83Zm-29.08-29.87c8.14,0,11.12-4.56,11.12-11.11s-3-11.22-11.12-11.22h-6.65v22.33h6.65Z" transform="translate(-486.95 -628.36)"/><path class="cls-reimagine-2" d="M684.45,716.34h47.34v15.18H702.51V747.2h24.41v14.39H702.51v7.53h30.67v14.7H684.45V716.34Z" transform="translate(-486.95 -628.36)"/><path class="cls-reimagine-2" d="M757.17,716.34h18.06v67.48H757.17V716.34Z" transform="translate(-486.95 -628.36)"/><path class="cls-reimagine-2" d="M804.4,715.64c0.1-.69.5-0.6,0.89-0.1l32.35,36.32,31.86-36.32c0.4-.5.79-0.6,0.89,0.1l4,68.18H856.6L855,755l-16.87,19.55a0.56,0.56,0,0,1-.89,0l-17.56-19.65-1.59,28.88H800.43Z" transform="translate(-486.95 -628.36)"/><path class="cls-reimagine-2" d="M928.24,715.14c-0.3-.69-0.89-0.69-1.19,0L894.2,783.79h17.66l2.48-5.75,12.5-29.17L939.75,778l2.58,5.75H961Z" transform="translate(-486.95 -628.36)"/><path class="cls-reimagine-2" d="M1022,761.09h-13.4V747.2h29.47v28.19c-6.25,5.16-14.39,9.33-29.37,9.33-19.85,0-36.32-14.29-36.32-34.63s16.47-34.53,35.93-34.53c11.91,0,21.24,4.47,27.09,12l-12.6,10.92a17.88,17.88,0,0,0-14.89-7.25c-11,0-17.07,8.24-17.07,18.86s6.15,19.45,18.06,19.45c6.55,0,10.22-1.29,13.1-2.68v-5.76Z" transform="translate(-486.95 -628.36)"/><path class="cls-reimagine-2" d="M1062.37,716.34h18.06v67.48h-18.06V716.34Z" transform="translate(-486.95 -628.36)"/><path class="cls-reimagine-2" d="M1124.39,750.17v33.64h-17V715.44c0-.6.3-1.09,1.39-0.2l42.37,34.93V716.34h17v68.47c0,0.79-.3,1.09-1.39.2Z" transform="translate(-486.95 -628.36)"/><path class="cls-reimagine-2" d="M1194.72,716.34h47.34v15.18h-29.28V747.2h24.41v14.39h-24.41v7h30.67v15.18h-48.73V716.34Z" transform="translate(-486.95 -628.36)"/><path class="cls-reimagine-2" d="M772.73,790.25c-4.52,0-7.1,3.28-7.1,7.53s2.58,7.58,7.1,7.58,7.1-3.33,7.1-7.58S777.25,790.25,772.73,790.25Z" transform="translate(-486.95 -628.36)"/><path class="cls-reimagine-2" d="M947.35,790.4h-2.66v8.92h2.66c3.25,0,4.44-1.82,4.44-4.44S950.6,790.4,947.35,790.4Z" transform="translate(-486.95 -628.36)"/><path class="cls-reimagine-2" d="M684.45,769.12v56.55h483.7V769.12H684.45Zm42.8,42.5a13.75,13.75,0,0,1-14-13.85A13.6,13.6,0,0,1,726.85,784c5.83,0,9.4,2.46,11.66,5.78l-5.43,3.69a6.67,6.67,0,0,0-6.11-3.21c-4,0-6.39,3.28-6.39,7.53s2.5,7.58,6.63,7.58a6.47,6.47,0,0,0,6.35-3.73l5.55,3.58C736.45,809.67,732.72,811.62,727.25,811.62Zm45.48,0c-7.78,0-14.48-5.71-14.48-13.85S765,784,772.73,784s14.48,5.67,14.48,13.8S780.51,811.62,772.73,811.62Zm60.4,0c0,0.32-.12.44-0.56,0.08l-16.94-13.92v13.45h-6.78V783.94c0-.24.12-0.44,0.55-0.09l16.94,14V784.29h6.78v27.37Zm41.28-21.3H863.3v6.27h9.8v6.07h-9.8v8.57h-7.22v-27H874.4v6.08Zm41.31,20.9H896.24v-27h18.92v6.08h-11.7v6.27h9.76v5.75h-9.76v2.82h12.26v6.07Zm43.26,0h-7.81l-3.77-6.18h-2.7v6.18h-7.22v-27h10.23c7.26,0,11.34,4.6,11.34,10.6a9.44,9.44,0,0,1-4.88,8.72Zm41.2,0H980.7v-27h18.92v6.08h-11.7v6.27h9.76v5.75h-9.76v2.82h12.26v6.07Zm46,0.4c0,0.32-.12.44-0.56,0.08l-16.94-13.92v13.45h-6.78V783.94c0-.24.12-0.44,0.55-0.09l16.94,14V784.29h6.78v27.37Zm35.69,0a13.75,13.75,0,0,1-14-13.85,13.6,13.6,0,0,1,13.64-13.8c5.83,0,9.4,2.46,11.66,5.78l-5.43,3.69a6.67,6.67,0,0,0-6.11-3.21c-4,0-6.39,3.28-6.39,7.53s2.5,7.58,6.62,7.58a6.47,6.47,0,0,0,6.35-3.73l5.55,3.58C1091.09,809.67,1087.36,811.62,1081.89,811.62Zm52.38-.36H1114.8v-27h18.92v6.08H1122v6.27h9.76v5.75H1122v2.82h12.26v6.07Z" transform="translate(-486.95 -628.36)"/><text class="cls-reimagine-4" transform="translate(532.48 453.5)">TICKETS</text><line class="cls-reimagine-5" x1="12.83" y1="276.72" x2="19.98" y2="276.72"/><line class="cls-reimagine-6" x1="34.46" y1="276.72" x2="838.02" y2="276.72"/><line class="cls-reimagine-5" x1="845.26" y1="276.72" x2="852.41" y2="276.72"/><rect class="cls-reimagine-2" x="845.56" width="162.05" height="408.7"/><text class="cls-reimagine-7" transform="translate(909.93 115.21) rotate(-90)">NOV<tspan class="cls-reimagine-8"><tspan x="-6.03" y="65.95">19</tspan></tspan></text><text class="cls-reimagine-7" transform="translate(909.93 249.19) rotate(-90)">NOV<tspan class="cls-reimagine-8"><tspan x="-4.77" y="65.95">18</tspan></tspan></text><text class="cls-reimagine-7" transform="translate(909.93 387.22) rotate(-90)">NOV<tspan class="cls-reimagine-8"><tspan x="-4.15" y="65.95">17</tspan></tspan></text><line class="cls-reimagine-9" x1="848.94" y1="276.72" x2="1002.24" y2="276.72"/><line class="cls-reimagine-9" x1="848.94" y1="140.76" x2="1002.24" y2="140.76"/><path class="cls-reimagine-2" d="M1500.23,1191.38a12.83,12.83,0,0,1,12.82-12.82v-13.12a12.82,12.82,0,0,1,0-25.65v-13.12a12.82,12.82,0,0,1,0-25.65v-13.12a12.82,12.82,0,0,1,0-25.65v-13.12a12.82,12.82,0,0,1,0-25.65v-13.12a12.82,12.82,0,0,1,0-25.65V971.57a12.82,12.82,0,0,1,0-25.65V932.8a12.82,12.82,0,0,1,0-25.65V894a12.82,12.82,0,0,1,0-25.65V855.25a12.82,12.82,0,0,1,0-25.65V816.48a12.82,12.82,0,0,1,0-25.65V777.7a12.82,12.82,0,0,1,0-25.65V738.93a12.82,12.82,0,0,1,0-25.65V700.16a12.82,12.82,0,0,1,0-25.65V661.38a12.82,12.82,0,0,1,0-25.65v-7.37h-18.49v583.22h18.49v-7.37A12.83,12.83,0,0,1,1500.23,1191.38Z" transform="translate(-486.95 -628.36)"/><text class="cls-reimagine-10" transform="translate(915.18 525.76) rotate(-90)">ALL<tspan class="cls-reimagine-11"><tspan x="-25.5" y="50.11">ACCESS</tspan></tspan></text><text class="cls-reimagine-12" transform="translate(242.39 558.75)">NOW AVAILABLE</text><line class="cls-reimagine-13" x1="22.73" y1="508.98" x2="841.02" y2="508.98"/><line class="cls-reimagine-5" x1="848.61" x2="848.61" y2="7.16"/><line class="cls-reimagine-14" x1="848.61" y1="21.49" x2="848.61" y2="558.88"/><line class="cls-reimagine-5" x1="848.61" y1="566.05" x2="848.61" y2="573.2"/></svg>