<svg width="91px" height="58px" viewBox="0 0 91 58" version="1.1" xmlns="http://www.w3.org/2000/svg" xmlns:xlink="http://www.w3.org/1999/xlink">
    <defs>
        <polygon id="path-1" points="12.8379563 0.282418255 0.0462773282 0.282418255 0.0462773282 15.4320617 12.8379563 15.4320617 12.8379563 0.282418255"></polygon>
        <polygon id="path-3" points="13.9072716 14.6553478 13.9072716 0.00736897201 0.423880247 0.00736897201 0.423880247 14.6553478 13.9072716 14.6553478"></polygon>
        <polygon id="path-5" points="0 56.7365326 90.3023333 56.7365326 90.3023333 0.282418255 0 0.282418255"></polygon>
    </defs>
    <g id="Page-1" stroke="none" stroke-width="1" fill="none" fill-rule="evenodd">
        <g id="MO-Home" transform="translate(-675.000000, -3503.000000)">
            <g id="Page-1" transform="translate(675.000000, 3503.000000)">
                <polygon id="Fill-1" fill="#9A9393" points="11.8512333 0.847408516 8.3550358 6.51864422 4.85883827 0.847408516 0.566109877 0.847408516 0.566109877 15.4953873 4.56673951 15.4953873 4.56673951 7.12607612 8.28201111 12.8163993 8.36514691 12.8163993 12.1028877 7.08453272 12.1028877 15.4953873 16.1428383 15.4953873 16.1428383 0.847408516"></polygon>
                <path d="M23.8056,0.743325453 L17.5670444,15.4957242 L21.8384272,15.4957242 L22.8854889,12.8796127 L28.5387235,12.8796127 L29.6060074,15.4957242 L33.9616494,15.4957242 L27.7219704,0.743325453 L23.8056,0.743325453 Z M25.7323284,5.57807916 L27.3658346,9.74140167 L24.0786,9.74140167 L25.7323284,5.57807916 Z" id="Fill-2" fill="#9A9393"></path>
                <g id="Group-41" transform="translate(0.000000, 0.314719)">
                    <g id="Group-5" transform="translate(34.229715, 0.000000)">
                        <mask id="mask-2" fill="white">
                            <use xlink:href="#path-1"></use>
                        </mask>
                        <g id="Clip-4"></g>
                        <path d="M6.91284523,15.4320617 C5.6006477,15.4320617 4.35473412,15.2277131 3.17510449,14.8212614 C1.99659832,14.413687 0.951783501,13.8040095 0.0462773282,12.9899834 L2.30667239,10.2851711 C3.7727835,11.4562459 5.35573412,12.0412219 7.05889461,12.0412219 C7.60377116,12.0412219 8.01832671,11.9547667 8.30593165,11.7818564 C8.59128967,11.6078232 8.73509214,11.3596856 8.73509214,11.0396891 L8.73509214,10.9981457 C8.73509214,10.8443228 8.69914153,10.7084647 8.6294872,10.5905713 C8.55983288,10.4726778 8.43175881,10.35703 8.24301807,10.2458733 C8.05427733,10.1347166 7.80262301,10.0269283 7.48917856,9.92250845 C7.17461066,9.81808854 6.76679585,9.70917746 6.2634872,9.5980208 C5.48268474,9.41725086 4.75580819,9.21851621 4.08622795,9.00293964 C3.4166477,8.78736307 2.83357362,8.50891 2.33812918,8.16758043 C1.84156128,7.82625086 1.45059832,7.40183449 1.16524029,6.89320852 C0.879882266,6.38458255 0.736079797,5.75469475 0.736079797,5.00242235 L0.736079797,4.96087895 C0.736079797,4.27821981 0.865277328,3.6517004 1.12367239,3.08132072 C1.38094399,2.51094105 1.75842548,2.01578861 2.25499338,1.59810901 C2.74931437,1.1804294 3.34699338,0.85706455 4.04466004,0.626891649 C4.74232671,0.397841543 5.53099338,0.282193696 6.41066004,0.282193696 C7.66668474,0.282193696 8.7856477,0.447244507 9.7709193,0.77734613 C10.753944,1.10744775 11.6437218,1.59474063 12.4402526,2.24034754 L10.4090428,5.11582461 C9.73946251,4.64200527 9.05190696,4.28271099 8.34637609,4.03794175 C7.64196869,3.79429532 6.96115387,3.6719107 6.30505511,3.6719107 C5.8163514,3.6719107 5.45122795,3.76285707 5.20631437,3.94362701 C4.96140078,4.12551974 4.84006745,4.34671028 4.84006745,4.61168981 L4.84006745,4.65435601 C4.84006745,4.82052962 4.87826498,4.96649292 4.95466004,5.09224592 C5.03217856,5.21799892 5.16474646,5.33252397 5.35236375,5.43806667 C5.54110449,5.54136377 5.79949955,5.64578367 6.12754893,5.75020358 C6.45559832,5.85574627 6.87015387,5.96353456 7.37346251,6.07469123 C8.21043782,6.25546116 8.9676477,6.46766935 9.6462156,6.71131578 C10.3225366,6.95496222 10.8977465,7.25025721 11.3718452,7.59832355 C11.8470675,7.94638988 12.2088205,8.36856067 12.4615983,8.86259031 C12.7121292,9.35661995 12.8379563,9.94608713 12.8379563,10.6276235 L12.8379563,10.6691669 C12.8379563,11.4214393 12.6941539,12.0895021 12.4087958,12.6744781 C12.1234378,13.2594541 11.7212403,13.7568521 11.2044502,14.1689178 C10.68766,14.5787378 10.0675119,14.8931203 9.34175881,15.1075741 C8.61600572,15.3242734 7.80599338,15.4320617 6.91284523,15.4320617" id="Fill-3" fill="#9A9393" mask="url(#mask-2)"></path>
                    </g>
                    <polygon id="Fill-6" fill="#9A9393" points="52.6157506 4.09003943 48.2196642 4.09003943 48.2196642 0.533026017 61.0753802 0.533026017 61.0753802 4.09003943 56.6781704 4.09003943 56.6781704 15.1810048 52.6157506 15.1810048"></polygon>
                    <polygon id="Fill-8" fill="#9A9393" points="62.8535877 0.533138297 74.6206741 0.533138297 74.6206741 3.9857318 66.8542173 3.9857318 66.8542173 6.20437401 73.8881802 6.20437401 73.8881802 9.40546151 66.8542173 9.40546151 66.8542173 11.7285236 74.7251556 11.7285236 74.7251556 15.1811171 62.8535877 15.1811171"></polygon>
                    <g id="Group-12" transform="translate(76.395062, 0.525994)">
                        <mask id="mask-4" fill="white">
                            <use xlink:href="#path-3"></use>
                        </mask>
                        <g id="Clip-11"></g>
                        <path d="M7.16574444,7.03830899 C7.86453457,7.03830899 8.40154691,6.88111774 8.77790494,6.56785803 C9.15538642,6.25347554 9.34412716,5.83130475 9.34412716,5.30134568 L9.34412716,5.25980228 C9.34412716,4.67370348 9.14864568,4.23805916 8.75768272,3.95174653 C8.36671975,3.66655669 7.82858395,3.52283898 7.14439877,3.52283898 L4.4863,3.52283898 L4.4863,7.03830899 L7.16574444,7.03830899 Z M0.423880247,0.00736897201 L7.35448519,0.00736897201 C8.48468272,0.00736897201 9.44074444,0.146595507 10.2237938,0.425048577 C11.0045963,0.704624441 11.6393494,1.09535697 12.1280531,1.59724618 C12.9931148,2.43372818 13.4256457,3.57224194 13.4256457,5.00829628 L13.4256457,5.04983968 C13.4256457,6.17937109 13.1537691,7.11465902 12.610016,7.85458069 C12.066263,8.59337956 11.3326457,9.15814526 10.4125346,9.54887779 L13.9076086,14.6553478 L9.2183,14.6553478 L6.26585556,10.2191862 L6.22428765,10.2191862 L4.4863,10.2191862 L4.4863,14.6553478 L0.423880247,14.6553478 L0.423880247,0.00736897201 Z" id="Fill-10" fill="#9A9393" mask="url(#mask-4)"></path>
                    </g>
                    <path d="M8.55849383,32.0322436 C9.16516049,32.0322436 9.71790123,31.9188413 10.2178395,31.6920368 C10.7177778,31.4663551 11.1424444,31.1598322 11.490716,30.7747136 C11.8389877,30.389595 12.1119877,29.9404772 12.309716,29.42736 C12.506321,28.9131201 12.6051852,28.3696875 12.6051852,27.7959394 L12.6051852,27.7499048 C12.6051852,27.1761568 12.506321,26.6327242 12.309716,26.1184842 C12.1119877,25.6053671 11.8322469,25.1528809 11.4682469,24.7587799 C11.1042469,24.3669246 10.671716,24.0536649 10.1729012,23.8190008 C9.67296296,23.5854595 9.11909877,23.4686889 8.5124321,23.4686889 C7.90688889,23.4686889 7.35751852,23.5809684 6.86432099,23.8077729 C6.37224691,24.0345774 5.94758025,24.3399775 5.59144444,24.7250961 C5.23530864,25.1102147 4.96230864,25.5593325 4.77244444,26.0735725 C4.5837037,26.5866896 4.48820988,27.131245 4.48820988,27.7049931 L4.48820988,27.7499048 C4.48820988,28.3236529 4.58707407,28.8682083 4.78480247,29.3813255 C4.98140741,29.8955654 5.25777778,30.3480516 5.61391358,30.7410298 C5.97004938,31.1340079 6.39808642,31.4472676 6.89914815,31.6808089 C7.39908642,31.9154729 7.95182716,32.0322436 8.55849383,32.0322436 M8.52479012,35.9968315 C7.29909877,35.9968315 6.16665432,35.7823777 5.12296296,35.3512245 C4.08151852,34.9211942 3.18162963,34.3350954 2.42554321,33.5951737 C1.67058025,32.8552521 1.07739506,31.986209 0.645987654,30.9902902 C0.214580247,29.9932485 0,28.9277164 0,27.7959394 L0,27.7499048 C0,26.6170051 0.214580247,25.5492274 0.645987654,24.5443262 C1.07739506,23.539425 1.67732099,22.6636451 2.4491358,21.9158639 C3.21982716,21.1680827 4.12645679,20.5786155 5.16902469,20.1485852 C6.21159259,19.7185548 7.34516049,19.5029782 8.5697284,19.5029782 C9.7942963,19.5029782 10.9267407,19.7185548 11.9704321,20.1485852 C13.0118765,20.5786155 13.9117654,21.1647143 14.6678519,21.904636 C15.4239383,22.6445576 16.0171235,23.5136007 16.4474074,24.5095195 C16.8788148,25.5065612 17.0933951,26.5720933 17.0933951,27.7049931 L17.0933951,27.7499048 C17.0933951,28.8828046 16.8788148,29.9517051 16.4474074,30.9566063 C16.0171235,31.9603847 15.4160741,32.8361645 14.6453827,33.5839458 C13.8746914,34.331727 12.9669383,34.9211942 11.9243704,35.3512245 C10.8818025,35.7823777 9.74823457,35.9968315 8.52479012,35.9968315" id="Fill-13" fill="#9A9393"></path>
                    <polygon id="Fill-15" fill="#9A9393" points="19.383337 19.8196063 32.0783988 19.8196063 32.0783988 23.6719147 23.7816704 23.6719147 23.7816704 26.3452888 31.2852383 26.3452888 31.2852383 30.0157044 23.7816704 30.0157044 23.7816704 35.6790806 19.383337 35.6790806"></polygon>
                    <path d="M13.9064852,48.6224326 C14.3637321,48.6224326 14.7805346,48.5662928 15.1546457,48.4540134 C15.5287568,48.3406111 15.848942,48.1778059 16.1163247,47.9667205 C16.382584,47.7545123 16.5915469,47.4985151 16.7409667,47.1976062 C16.8903864,46.8966972 16.965658,46.5632272 16.965658,46.1960734 L16.965658,46.1668807 C16.965658,45.7727798 16.8937568,45.426959 16.7477074,45.1305413 C16.6027815,44.8341235 16.3994358,44.5871087 16.1376704,44.3894968 C15.8759049,44.1930077 15.561337,44.0414305 15.1962136,43.9392562 C14.8322136,43.8348363 14.4288926,43.7831877 13.989621,43.7831877 L11.2124358,43.7831877 L11.2124358,48.6224326 L13.9064852,48.6224326 Z M10.4810654,43.1241072 L14.0469173,43.1241072 C14.5884235,43.1241072 15.081621,43.1925977 15.5265099,43.3273331 C15.9713988,43.4631912 16.355621,43.6596803 16.6780531,43.9168003 C17.0004852,44.1739202 17.251016,44.4871799 17.4285222,44.8565794 C17.6060284,45.2259788 17.6959049,45.6492724 17.6959049,46.1253373 L17.6959049,46.1534072 C17.6959049,46.6676471 17.5925469,47.1212562 17.3869543,47.5142343 C17.1813617,47.9072124 16.9027444,48.2339456 16.5511025,48.4955568 C16.200584,48.7582907 15.7938926,48.953657 15.3310284,49.085024 C14.8670407,49.2163909 14.378337,49.281513 13.8637938,49.281513 L11.2124358,49.281513 L11.2124358,52.9429463 L10.4810654,52.9429463 L10.4810654,43.1241072 Z" id="Fill-17" fill="#9A9393"></path>
                    <path d="M24.3751926,52.4513869 C24.9841062,52.4513869 25.5424642,52.3368618 26.0525136,52.1078117 C26.5614395,51.8787616 27.0007111,51.5655019 27.3714519,51.1680326 C27.7410691,50.7705633 28.0275506,50.3057263 28.2342667,49.7723988 C28.4398593,49.2390714 28.5432173,48.6698145 28.5432173,48.0612598 L28.5432173,48.03319 C28.5432173,47.4257581 28.4376123,46.8531328 28.2275259,46.3153142 C28.016316,45.7774955 27.7264642,45.310413 27.3568469,44.9129437 C26.9872296,44.5154744 26.5457111,44.1999691 26.0311679,43.9664278 C25.5166247,43.7317637 24.9548963,43.6149931 24.3471062,43.6149931 C23.7381926,43.6149931 23.1798346,43.7295181 22.6697852,43.9585682 C22.1597358,44.1876183 21.7204642,44.500878 21.3508469,44.8983473 C20.9801062,45.2958166 20.6936247,45.7617764 20.4869086,46.2939811 C20.281316,46.8273085 20.1790815,47.3976882 20.1790815,48.0051201 L20.1790815,48.03319 C20.1790815,48.6417446 20.283563,49.2143699 20.4947728,49.7510657 C20.7048593,50.2888844 20.9947111,50.7570897 21.3643284,51.1534363 C21.7339457,51.5520283 22.1754642,51.8664108 22.6900074,52.1010749 C23.2045506,52.3346162 23.766279,52.4513869 24.3751926,52.4513869 M24.3471062,53.1104673 C23.5977605,53.1104673 22.922563,52.9723636 22.3192667,52.6972789 C21.7148469,52.4210714 21.1980568,52.051672 20.7688963,51.5890806 C20.3374889,51.1253664 20.0049457,50.5909161 19.7723901,49.9823614 C19.5375877,49.3749295 19.4207481,48.7349366 19.4207481,48.0612598 L19.4207481,48.03319 C19.4207481,47.360636 19.5398346,46.7172746 19.7791309,46.1053516 C20.0184272,45.4923057 20.3520938,44.9522415 20.7823778,44.4851589 C21.2126617,44.0169535 21.7316988,43.6453085 22.3406123,43.3702238 C22.947279,43.0940163 23.6258469,42.9559126 24.3751926,42.9559126 C25.1144272,42.9559126 25.7873778,43.0940163 26.3962914,43.3702238 C27.0040815,43.6453085 27.5231185,44.014708 27.9534025,44.4772993 C28.3836864,44.9410135 28.7162296,45.4765866 28.9499086,46.0840185 C29.1835877,46.6914504 29.3004272,47.3314433 29.3004272,48.0051201 C29.3105383,48.0141024 29.3105383,48.0242076 29.3004272,48.03319 C29.3004272,48.7068667 29.1813407,49.3491053 28.9431679,49.9621511 C28.7049951,50.5740742 28.3690815,51.1141384 27.9387975,51.5823438 C27.509637,52.0494264 26.9872296,52.4210714 26.3749457,52.6972789 C25.7626617,52.9723636 25.0852173,53.1104673 24.3471062,53.1104673" id="Fill-19" fill="#9A9393"></path>
                    <path d="M35.0546605,52.2830799 C35.7377222,52.2830799 36.3556235,52.1730461 36.9061173,51.9529783 C37.458858,51.7317878 37.9273395,51.4320016 38.3104383,51.052497 C38.693537,50.6718696 38.9912531,50.2261202 39.2013395,49.7152486 C39.4125494,49.2032542 39.5170309,48.6530849 39.5170309,48.0613721 L39.5170309,48.0333022 C39.5170309,47.4516946 39.4125494,46.902648 39.2013395,46.3872853 C38.9912531,45.8707998 38.693537,45.4205591 38.3104383,45.0354406 C37.9273395,44.6514448 37.458858,44.3460446 36.9061173,44.1214857 C36.3556235,43.895804 35.7377222,43.7835245 35.0546605,43.7835245 L32.5145247,43.7835245 L32.5145247,52.2830799 L35.0546605,52.2830799 Z M31.7842778,43.1244441 L35.0546605,43.1244441 C35.8219815,43.1244441 36.5263889,43.2490743 37.1667593,43.4960891 C37.8071296,43.7442267 38.3598704,44.0878019 38.8227346,44.5268146 C39.2867222,44.9658273 39.642858,45.4834356 39.8967593,46.077394 C40.1484136,46.6702295 40.2753642,47.3135909 40.2753642,48.0052324 L40.2753642,48.0333022 C40.2753642,48.7249437 40.1484136,49.3705506 39.8967593,49.9690002 C39.642858,50.5674497 39.2867222,51.0861809 38.8227346,51.5263163 C38.3598704,51.9653291 37.8071296,52.3111498 37.1667593,52.5637786 C36.5263889,52.8164074 35.8219815,52.9421604 35.0546605,52.9421604 L31.7842778,52.9421604 L31.7842778,43.1244441 Z" id="Fill-21" fill="#9A9393"></path>
                    <path d="M47.207542,53.110355 C46.5065049,53.110355 45.8560235,52.9801108 45.257221,52.7173769 C44.6584185,52.4557657 44.1416284,52.0987171 43.7068506,51.645108 C43.2709494,51.191499 42.9327889,50.6559259 42.6901222,50.0395117 C42.4463321,49.4219746 42.3249988,48.7628942 42.3249988,48.0611475 L42.3249988,48.0342005 C42.3249988,47.3414362 42.4474556,46.6868469 42.696863,46.0693099 C42.9451469,45.4528956 43.2855543,44.9128314 43.7203321,44.45024 C44.1562333,43.9876486 44.6719,43.6216175 45.2707025,43.3555152 C45.8706284,43.0894129 46.5244802,42.9569231 47.2356284,42.9569231 C47.6760235,42.9569231 48.0737272,42.9939753 48.4287395,43.0680798 C48.7848753,43.143307 49.1140481,43.2510953 49.4185049,43.3903219 C49.7218383,43.5306712 50.0083198,43.6979676 50.274579,43.8888427 C50.5408383,44.0808406 50.8003568,44.2930487 51.0531346,44.52659 L50.5340975,45.0599175 C50.3195173,44.8544461 50.0937025,44.6624482 49.8600235,44.4850466 C49.6263444,44.3076451 49.376937,44.154945 49.1095543,44.029192 C48.8432951,43.9023162 48.5534432,43.8023875 48.2399988,43.7271602 C47.9254309,43.6530558 47.5872704,43.6148808 47.2221469,43.6148808 C46.6334556,43.6148808 46.0852086,43.7271602 45.5796531,43.9517192 C45.075221,44.1762781 44.6370728,44.4872922 44.2674556,44.8847615 C43.8989617,45.2822308 43.6079864,45.7470678 43.3979,46.2803952 C43.1866901,46.8125999 43.0822086,47.3885936 43.0822086,48.0050078 L43.0822086,48.0342005 C43.0822086,48.6506147 43.1900605,49.2277312 43.4046407,49.7655498 C43.6203444,50.3033684 43.9124432,50.7715738 44.2820605,51.1679203 C44.6516778,51.5665124 45.0887025,51.8786493 45.5931346,52.1076994 C46.0998136,52.3367495 46.646937,52.4512746 47.2356284,52.4512746 C47.9467765,52.4512746 48.5646778,52.3210304 49.0882086,52.0582964 C49.612863,51.7978081 50.1229123,51.4183035 50.6183568,50.9220283 L51.1093074,51.399216 C50.8486654,51.6518448 50.5779123,51.8831405 50.3026654,52.0931031 C50.0262951,52.3041885 49.7319494,52.4849584 49.4185049,52.6331673 C49.1050605,52.782499 48.7657765,52.9003924 48.4006531,52.984602 C48.0366531,53.0688116 47.6378259,53.110355 47.207542,53.110355" id="Fill-23" fill="#9A9393"></path>
                    <path d="M59.7690247,49.5336927 L57.187321,43.8534746 L54.5910123,49.5336927 L59.7690247,49.5336927 Z M56.8491605,43.0540449 L57.551321,43.0540449 L62.1271605,52.9424972 L61.3272593,52.9424972 L60.0779753,50.193896 L54.2820617,50.193896 L53.0327778,52.9424972 L52.2755679,52.9424972 L56.8491605,43.0540449 Z" id="Fill-25" fill="#9A9393"></path>
                    <path d="M67.5289654,53.0823974 C66.7436691,53.0823974 66.0347679,52.9510305 65.4033852,52.6894193 C64.7720025,52.4278082 64.1619654,52.0359528 63.5721506,51.5116077 L64.0496198,50.9648068 C64.3203728,51.2174355 64.5900025,51.4341349 64.8562617,51.6171504 C65.122521,51.7990432 65.3966444,51.9483749 65.6775086,52.0662683 C65.9572494,52.1830389 66.2527185,52.2717397 66.5616691,52.3323706 C66.8706198,52.3930015 67.2065333,52.423317 67.5716568,52.423317 C67.9356568,52.423317 68.2738173,52.3750368 68.5816444,52.2762309 C68.8905951,52.177425 69.1523605,52.0426896 69.3680642,51.8686564 C69.5826444,51.6968689 69.7522864,51.4902746 69.8724963,51.2522422 C69.9949531,51.0142097 70.0567432,50.7548442 70.0567432,50.4741455 L70.0567432,50.4460756 C70.0567432,50.1833417 70.0162988,49.9498004 69.9365333,49.744329 C69.8567679,49.5388576 69.711842,49.3513509 69.5017556,49.1829317 C69.2905457,49.0145125 69.008558,48.8629352 68.6524222,48.727077 C68.2962864,48.5912189 67.837916,48.4688343 67.2773111,48.3565548 C66.6874963,48.2341702 66.1819407,48.0915753 65.7617679,47.9287701 C65.3404716,47.764842 64.9966938,47.5728442 64.7304346,47.3527764 C64.4630519,47.1338315 64.2686938,46.8789571 64.1473605,46.5881533 C64.0260272,46.2984722 63.9653605,45.9672478 63.9653605,45.5933572 L63.9653605,45.5652873 C63.9653605,45.2003791 64.0440025,44.8612951 64.2035333,44.5480354 C64.3619407,44.2347757 64.5821383,43.9608138 64.8630025,43.7272725 C65.1427432,43.4937312 65.4752864,43.3107157 65.8595086,43.1804715 C66.2426074,43.0491046 66.6639037,42.9839825 67.1222741,42.9839825 C67.8334222,42.9839825 68.4479531,43.0816656 68.9681136,43.2792775 C69.4871506,43.4746437 69.9949531,43.7744299 70.4903975,44.1763904 L70.0275333,44.7512612 C69.5601753,44.3493008 69.0894469,44.0641109 68.6175951,43.8956917 C68.1446198,43.7272725 67.6368173,43.6430629 67.0953111,43.6430629 C66.7301877,43.6430629 66.3998914,43.6924659 66.1044222,43.7912718 C65.8112,43.888955 65.5584222,44.0214447 65.3472123,44.1909867 C65.1371259,44.3582831 64.9764716,44.5547722 64.8630025,44.7793311 C64.7506568,45.00389 64.694484,45.2419225 64.694484,45.4945513 L64.694484,45.5226211 C64.694484,45.7842323 64.7349284,46.0200192 64.8146938,46.2311046 C64.8933358,46.4410672 65.0393852,46.633065 65.2494716,46.8059754 C65.459558,46.9788858 65.7516568,47.136077 66.1257679,47.2764264 C66.499879,47.4167757 66.9773481,47.5470199 67.5570519,47.6682817 C68.6996074,47.9029458 69.5231012,48.2319246 70.0275333,48.6574638 C70.5330889,49.0830029 70.7858667,49.6556282 70.7858667,50.3753396 L70.7858667,50.4034094 C70.7858667,50.7963876 70.7038543,51.1590502 70.5398296,51.4902746 C70.3758049,51.8226219 70.1511136,52.1055661 69.866879,52.3391074 C69.5803975,52.5726487 69.2388667,52.7545414 68.841163,52.8870312 C68.4445827,53.0172753 68.0064346,53.0823974 67.5289654,53.0823974" id="Fill-27" fill="#9A9393"></path>
                    <polygon id="Fill-29" fill="#9A9393" points="75.9082679 43.7837491 72.4839716 43.7837491 72.4839716 43.1246686 80.0616877 43.1246686 80.0616877 43.7837491 76.6373914 43.7837491 76.6373914 52.9423849 75.9082679 52.9423849"></polygon>
                    <path d="M48.4071691,32.0518925 C49.0160827,32.0518925 49.5721938,31.9373674 50.074379,31.7105629 C50.5765642,31.4826356 51.0034778,31.1761127 51.3528728,30.7887485 C51.7033914,30.4013844 51.9775148,29.9500209 52.1752432,29.4335354 C52.3729716,28.9181727 52.4729593,28.3724945 52.4729593,27.795378 L52.4729593,27.7493434 C52.4729593,27.1733498 52.3729716,26.6265488 52.1752432,26.1111861 C51.9775148,25.5958233 51.6955272,25.1399687 51.3304037,24.744745 C50.9641568,24.3506441 50.5316259,24.0362616 50.0283173,23.8004747 C49.5261321,23.5646878 48.970021,23.4479172 48.3611074,23.4479172 C47.7521938,23.4479172 47.2005765,23.5613195 46.7051321,23.7892468 C46.2096877,24.0171741 45.7838975,24.323697 45.4266383,24.7110612 C45.0682556,25.0984253 44.7941321,25.5497888 44.6042679,26.0651515 C44.4132802,26.581637 44.3189099,27.1273152 44.3189099,27.7044317 L44.3189099,27.7493434 C44.3189099,28.3264599 44.4177741,28.8732609 44.6155025,29.3886236 C44.8132309,29.9051092 45.0907247,30.359841 45.4491074,30.7539419 C45.8074901,31.1491656 46.2366506,31.4646709 46.7399593,31.699335 C47.2421444,31.9351219 47.7982556,32.0518925 48.4071691,32.0518925 M48.372342,36.0355679 C47.1432802,36.0355679 46.0040951,35.8188685 44.9559099,35.3865926 C43.9088481,34.9543166 43.0044654,34.3659722 42.2461321,33.6226822 C41.4866753,32.8793921 40.8912432,32.0058579 40.4575889,31.0043251 C40.0261815,30.0027923 39.8093543,28.9338918 39.8093543,27.795378 L39.8093543,27.7493434 C39.8093543,26.6119525 40.0261815,25.5385608 40.4575889,24.5291684 C40.8912432,23.5197761 41.4945395,22.6395051 42.2686012,21.8883554 C43.0437864,21.1372058 43.9537864,20.5454931 45.0019716,20.1132171 C46.0490333,19.6798184 47.1882185,19.4642418 48.4184037,19.4642418 C49.6474654,19.4642418 50.7866506,19.6798184 51.8348358,20.1132171 C52.8818975,20.5454931 53.7851568,21.1338375 54.5446136,21.8771275 C55.3040704,22.6215403 55.8995025,23.492829 56.3331568,24.4954846 C56.7656877,25.4970174 56.9813914,26.5659179 56.9813914,27.7044317 L56.9813914,27.7493434 C56.9813914,28.8878572 56.7656877,29.9612489 56.3331568,30.9706413 C55.8995025,31.9800336 55.2962062,32.8603046 54.5221444,33.6114542 C53.7480827,34.3626039 52.8369593,34.9543166 51.7887741,35.3865926 C50.7417123,35.8188685 49.6025272,36.0355679 48.372342,36.0355679" id="Fill-31" fill="#9A9393"></path>
                    <polygon id="Fill-33" fill="#9A9393" points="77.1612593 19.7828909 89.9608025 19.7828909 89.9608025 23.538639 81.511284 23.538639 81.511284 25.9515247 89.1642716 25.9515247 89.1642716 29.4344336 81.511284 29.4344336 81.511284 31.9607216 90.0753951 31.9607216 90.0753951 35.7164696 77.1612593 35.7164696"></polygon>
                    <polygon id="Fill-35" fill="#9A9393" points="63.6325926 19.7828909 59.2814444 19.7828909 57.5355926 22.6325437 59.2814444 22.6325437 59.2814444 33.5404936 57.5355926 33.5404936 57.5355926 35.7164696 65.0796049 35.7164696 65.0796049 33.5404936 63.6325926 33.5404936"></polygon>
                    <polygon id="Fill-37" fill="#9A9393" points="69.9865272 19.7828909 69.9865272 28.2049735 65.0792679 21.7006242 65.0792679 28.8281245 70.4572556 35.7164696 74.3376753 35.7164696 74.3376753 19.7828909"></polygon>
                    <mask id="mask-6" fill="white">
                        <use xlink:href="#path-5"></use>
                    </mask>
                    <g id="Clip-40"></g>
                    <path d="M0.270753086,56.7365326 L89.947321,56.7365326 L89.947321,39.2040943 L0.270753086,39.2040943 L0.270753086,56.7365326 Z M1.71776543,55.2892503 L88.4991852,55.2892503 L88.4991852,40.6502538 L1.71776543,40.6502538 L1.71776543,55.2892503 Z" id="Fill-39" fill="#9A9393" mask="url(#mask-6)"></path>
                </g>
            </g>
        </g>
    </g>
</svg>