<svg width="424px" height="37px" viewBox="0 0 424 37" version="1.1" xmlns="http://www.w3.org/2000/svg" xmlns:xlink="http://www.w3.org/1999/xlink">
    <defs>
        <polygon id="path-1" points="31.3363333 0.503333333 0.876333333 0.503333333 0.876333333 36.602 31.3363333 36.602 31.3363333 0.503333333"></polygon>
        <polygon id="path-3" points="0.277666667 35.6666667 37.1143333 35.6666667 37.1143333 0.100666667 0.277666667 0.100666667"></polygon>
    </defs>
    <g id="Page-1" stroke="none" stroke-width="1" fill="none" fill-rule="evenodd">
        <g id="MO-Home" transform="translate(-508.000000, -43.000000)">
            <g id="Page-1" transform="translate(508.000000, 42.000000)">
                <polygon id="Fill-1" fill="#272727" points="27.141 1.933 18.8176667 15.4463333 10.491 1.933 0.267666667 1.933 0.267666667 36.8363333 9.791 36.8363333 9.791 16.8896667 18.641 30.4496667 18.841 30.4496667 27.7376667 16.7896667 27.7376667 36.8363333 37.361 36.8363333 37.361 1.933"></polygon>
                <path d="M55.608,1.684 L40.7513333,36.834 L50.9246667,36.834 L53.418,30.6006667 L66.878,30.6006667 L69.4246667,36.834 L79.7946667,36.834 L64.9313333,1.684 L55.608,1.684 Z M60.198,13.2006667 L64.0846667,23.1206667 L56.258,23.1206667 L60.198,13.2006667 Z" id="Fill-2" fill="#272727"></path>
                <g id="Group-30" transform="translate(79.000000, 0.831333)">
                    <g id="Group-5" transform="translate(0.666667, 0.000000)">
                        <mask id="mask-2" fill="white">
                            <use xlink:href="#path-1"></use>
                        </mask>
                        <g id="Clip-4"></g>
                        <path d="M17.2296667,36.602 C14.103,36.602 11.1363333,36.1153333 8.32966667,35.1453333 C5.51966667,34.1753333 3.033,32.722 0.876333333,30.782 L6.25966667,24.3353333 C9.74966667,27.1286667 13.5196667,28.5253333 17.5763333,28.5253333 C18.873,28.5253333 19.863,28.3153333 20.5463333,27.902 C21.2263333,27.4886667 21.5663333,26.8986667 21.5663333,26.1353333 L21.5663333,26.0353333 C21.5663333,25.672 21.483,25.3486667 21.3163333,25.0653333 C21.1496667,24.782 20.843,24.5086667 20.3963333,24.242 C19.943,23.9786667 19.3463333,23.722 18.5996667,23.472 C17.853,23.222 16.8796667,22.9653333 15.683,22.702 C13.823,22.2686667 12.093,21.7986667 10.4963333,21.282 C8.89966667,20.7686667 7.513,20.1053333 6.333,19.292 C5.153,18.4786667 4.223,17.4653333 3.543,16.2553333 C2.85966667,15.0453333 2.51966667,13.542 2.51966667,11.7486667 L2.51966667,11.652 C2.51966667,10.0253333 2.82633333,8.532 3.443,7.172 C4.05633333,5.812 4.953,4.632 6.133,3.63866667 C7.313,2.642 8.73633333,1.872 10.3963333,1.32533333 C12.0596667,0.775333333 13.9363333,0.502 16.033,0.502 C19.023,0.502 21.6896667,0.895333333 24.0363333,1.682 C26.3763333,2.46866667 28.4963333,3.62866667 30.393,5.16866667 L25.553,12.0186667 C23.9596667,10.892 22.323,10.0353333 20.643,9.452 C18.9663333,8.872 17.343,8.57866667 15.783,8.57866667 C14.6163333,8.57866667 13.7463333,8.79533333 13.163,9.22866667 C12.5796667,9.65866667 12.293,10.1886667 12.293,10.8186667 L12.293,10.9186667 C12.293,11.3186667 12.383,11.6653333 12.5663333,11.962 C12.7496667,12.262 13.0663333,12.5353333 13.513,12.7853333 C13.963,13.0353333 14.5796667,13.282 15.3563333,13.532 C16.1396667,13.782 17.1296667,14.0386667 18.3263333,14.3053333 C20.3196667,14.7353333 22.123,15.2386667 23.7363333,15.822 C25.3496667,16.402 26.7196667,17.1053333 27.8496667,17.9353333 C28.9763333,18.7653333 29.843,19.772 30.443,20.9486667 C31.0396667,22.1253333 31.3363333,23.5286667 31.3363333,25.152 L31.3363333,25.2553333 C31.3363333,27.0453333 30.9963333,28.6386667 30.3163333,30.032 C29.6363333,31.4253333 28.6796667,32.612 27.4496667,33.5886667 C26.2196667,34.5686667 24.7396667,35.3153333 23.013,35.8286667 C21.283,36.3453333 19.3563333,36.602 17.2296667,36.602" id="Fill-3" fill="#272727" mask="url(#mask-2)"></path>
                    </g>
                    <polygon id="Fill-6" fill="#272727" points="45.217 9.57733333 34.747 9.57733333 34.747 1.10066667 65.3603333 1.10066667 65.3603333 9.57733333 54.8903333 9.57733333 54.8903333 36.004 45.217 36.004"></polygon>
                    <polygon id="Fill-8" fill="#272727" points="69.5986667 1.10066667 97.622 1.10066667 97.622 9.32733333 79.122 9.32733333 79.122 14.614 95.8753333 14.614 95.8753333 22.2406667 79.122 22.2406667 79.122 27.774 97.8686667 27.774 97.8686667 36.004 69.5986667 36.004"></polygon>
                    <path d="M118.910333,17.8536667 C120.573667,17.8536667 121.853667,17.4803333 122.750333,16.7336667 C123.647,15.9836667 124.097,14.9803333 124.097,13.7136667 L124.097,13.617 C124.097,12.2203333 123.630333,11.1803333 122.700333,10.497 C121.770333,9.817 120.490333,9.477 118.860333,9.477 L112.527,9.477 L112.527,17.8536667 L118.910333,17.8536667 Z M102.857,1.10033333 L119.360333,1.10033333 C122.050333,1.10033333 124.327,1.43366667 126.190333,2.097 C128.050333,2.76366667 129.563667,3.69366667 130.727,4.89033333 C132.790333,6.88366667 133.817,9.59366667 133.817,13.017 L133.817,13.117 C133.817,15.8103333 133.170333,18.037 131.877,19.797 C130.580333,21.5603333 128.833667,22.907 126.640333,23.837 L134.963667,36.0036667 L123.797,36.0036667 L116.767,25.4303333 L116.670333,25.4303333 L112.527,25.4303333 L112.527,36.0036667 L102.857,36.0036667 L102.857,1.10033333 Z" id="Fill-10" fill="#272727"></path>
                    <path d="M169.579,28.075 C170.879,28.075 172.065667,27.8316667 173.135667,27.345 C174.212333,26.8583333 175.122333,26.2016667 175.869,25.375 C176.615667,24.5483333 177.202333,23.585 177.625667,22.4816667 C178.049,21.3816667 178.259,20.215 178.259,18.9816667 L178.259,18.885 C178.259,17.6516667 178.049,16.485 177.625667,15.3816667 C177.202333,14.2816667 176.599,13.3083333 175.819,12.465 C175.039,11.6216667 174.112333,10.9483333 173.042333,10.445 C171.969,9.945 170.782333,9.695 169.482333,9.695 C168.182333,9.695 167.002333,9.93833333 165.945667,10.425 C164.889,10.9083333 163.979,11.565 163.215667,12.3916667 C162.449,13.2183333 161.865667,14.185 161.455667,15.285 C161.052333,16.3883333 160.849,17.555 160.849,18.785 L160.849,18.885 C160.849,20.115 161.059,21.2816667 161.482333,22.385 C161.905667,23.4883333 162.495667,24.4616667 163.262333,25.3016667 C164.025667,26.145 164.945667,26.8183333 166.019,27.3216667 C167.089,27.825 168.279,28.075 169.579,28.075 M169.505667,36.585 C166.879,36.585 164.445667,36.125 162.212333,35.1983333 C159.975667,34.275 158.045667,33.0183333 156.425667,31.4283333 C154.802333,29.8416667 153.532333,27.9783333 152.605667,25.8383333 C151.682333,23.6983333 151.222333,21.4116667 151.222333,18.9816667 L151.222333,18.885 C151.222333,16.4516667 151.682333,14.1616667 152.605667,12.005 C153.532333,9.84833333 154.819,7.96833333 156.472333,6.36166667 C158.125667,4.75833333 160.072333,3.49166667 162.309,2.56833333 C164.545667,1.645 166.975667,1.185 169.602333,1.185 C172.229,1.185 174.659,1.645 176.895667,2.56833333 C179.132333,3.49166667 181.062333,4.74833333 182.682333,6.33833333 C184.302333,7.92833333 185.575667,9.79166667 186.499,11.9316667 C187.425667,14.0683333 187.885667,16.355 187.885667,18.785 L187.885667,18.885 C187.885667,21.315 187.425667,23.6083333 186.499,25.765 C185.575667,27.9216667 184.289,29.8016667 182.635667,31.4083333 C180.982333,33.0083333 179.035667,34.275 176.799,35.1983333 C174.562333,36.125 172.132333,36.585 169.505667,36.585" id="Fill-12" fill="#272727"></path>
                    <polygon id="Fill-14" fill="#272727" points="192.798667 1.864 220.028667 1.864 220.028667 10.1306667 202.232 10.1306667 202.232 15.8706667 218.328667 15.8706667 218.328667 23.7473333 202.232 23.7473333 202.232 35.904 192.798667 35.904"></polygon>
                    <g id="Group-18" transform="translate(236.333333, 1.000000)">
                        <mask id="mask-4" fill="white">
                            <use xlink:href="#path-3"></use>
                        </mask>
                        <g id="Clip-17"></g>
                        <path d="M18.721,27.1173333 C20.0276667,27.1173333 21.221,26.874 22.2976667,26.384 C23.3743333,25.8973333 24.2876667,25.2373333 25.041,24.4073333 C25.791,23.5773333 26.3776667,22.6073333 26.8043333,21.4973333 C27.2276667,20.3906667 27.441,19.2206667 27.441,17.9806667 L27.441,17.884 C27.441,16.6473333 27.2276667,15.474 26.8043333,14.3673333 C26.3776667,13.2606667 25.7743333,12.2806667 24.991,11.434 C24.2076667,10.5906667 23.2776667,9.914 22.1976667,9.40733333 C21.121,8.904 19.9276667,8.65066667 18.6243333,8.65066667 C17.3176667,8.65066667 16.131,8.894 15.071,9.384 C14.0076667,9.87066667 13.0943333,10.5306667 12.3276667,11.3606667 C11.5576667,12.1906667 10.971,13.1606667 10.5643333,14.2706667 C10.1543333,15.3773333 9.951,16.5506667 9.951,17.7873333 L9.951,17.884 C9.951,19.124 10.1643333,20.294 10.5876667,21.4006667 C11.011,22.5106667 11.6076667,23.4873333 12.3776667,24.334 C13.1443333,25.1806667 14.0676667,25.8573333 15.1443333,26.3606667 C16.221,26.864 17.4143333,27.1173333 18.721,27.1173333 M18.6476667,35.6673333 C16.011,35.6673333 13.5676667,35.204 11.3176667,34.274 C9.071,33.3473333 7.13433333,32.084 5.50433333,30.4873333 C3.87433333,28.894 2.59766667,27.0206667 1.671,24.8706667 C0.741,22.7206667 0.277666667,20.424 0.277666667,17.9806667 L0.277666667,17.884 C0.277666667,15.4406667 0.741,13.1373333 1.671,10.9706667 C2.59766667,8.804 3.89433333,6.914 5.55433333,5.304 C7.21433333,3.69066667 9.16766667,2.42066667 11.4176667,1.494 C13.6643333,0.564 16.1076667,0.100666667 18.7443333,0.100666667 C21.381,0.100666667 23.8243333,0.564 26.0743333,1.494 C28.321,2.42066667 30.2576667,3.684 31.8876667,5.28066667 C33.5143333,6.87733333 34.7943333,8.74733333 35.721,10.8973333 C36.6476667,13.0473333 37.1143333,15.344 37.1143333,17.7873333 L37.1143333,17.884 C37.1143333,20.3273333 36.6476667,22.6306667 35.721,24.7973333 C34.7943333,26.964 33.4976667,28.854 31.8376667,30.464 C30.1776667,32.0773333 28.2243333,33.3473333 25.9743333,34.274 C23.7276667,35.204 21.2843333,35.6673333 18.6476667,35.6673333" id="Fill-16" fill="#272727" mask="url(#mask-4)"></path>
                    </g>
                    <polygon id="Fill-19" fill="#272727" points="316.730667 1.78433333 344.187333 1.78433333 344.187333 9.84433333 326.060667 9.84433333 326.060667 15.0243333 342.477333 15.0243333 342.477333 22.4976667 326.060667 22.4976667 326.060667 27.921 344.430667 27.921 344.430667 35.9843333 316.730667 35.9843333"></polygon>
                    <polygon id="Fill-21" fill="#272727" points="287.712333 1.78433333 278.382333 1.78433333 274.635667 7.89766667 278.382333 7.89766667 278.382333 31.311 274.635667 31.311 274.635667 35.9843333 290.815667 35.9843333 290.815667 31.311 287.712333 31.311"></polygon>
                    <polygon id="Fill-23" fill="#272727" points="301.343333 1.78433333 301.343333 19.861 290.813333 5.901 290.813333 21.1976667 302.35 35.9843333 310.673333 35.9843333 310.673333 1.78433333"></polygon>
                </g>
            </g>
        </g>
    </g>
</svg>