<svg version="1.1" xmlns="http://www.w3.org/2000/svg" xmlns:xlink="http://www.w3.org/1999/xlink" x="0px" y="0px"
     viewBox="0 0 380 380" style="enable-background:new 0 0 380 380;" xml:space="preserve">
<style type="text/css">
    .st-flgo-0{display:none;}
    .st-flgo-1{fill:url(#SVGID_1_);}
    .st-flgo-2{opacity:0.3;fill:url(#SVGID_2_);}
    .st-flgo-3{fill:#F2B86B;}
    .st-flgo-4{fill:#FFFFFF;}
    .st-flgo-5{fill:#525252;}
    .st-flgo-6{fill:none;stroke:#000000;stroke-width:4;stroke-miterlimit:10;}
    .st-flgo-7{fill:url(#SVGID_3_);}
    .st-flgo-8{fill:#E6E6E8;}
    .st-flgo-9{fill:#D1D3D4;}
    .st-flgo-10{fill:#C43235;}
    .st-flgo-11{fill:#2B3990;}
    .st-flgo-12{fill:#F2B632;}
    .st-flgo-13{opacity:0.3;}
    .st-flgo-14{fill:#DA1C5C;}
    .st-flgo-15{fill:#BCBEC0;}
    .st-flgo-16{fill:#2D0508;}
    .st-flgo-17{fill:#F15A29;}
    .st-flgo-18{fill:none;stroke:#D1D3D4;stroke-width:4;stroke-miterlimit:10;}
    .st-flgo-19{opacity:0.8;}
    .st-flgo-20{fill:#808285;}
    .st-flgo-21{fill:#414042;}
    .st-flgo-22{fill:#58595B;}
    .st-flgo-23{enable-background:new    ;}
    .st-flgo-24{opacity:0.2;}
    .st-flgo-25{fill:url(#SVGID_4_);}
    .st-flgo-26{opacity:0.4;}
    .st-flgo-27{fill:#939598;}
</style>
<g id="Layer_4" class="st-flgo-0">
</g>
<g id="Layer_3">
</g>
<g id="Layer_2">
</g>
<g id="Layer_1">
    <g>
        <g>
            <path class="st-flgo-14" d="M225.1,130.6h-13.5l-21,52.9l-39.6-91.7H99.7v196.6h46.6V177l33.5,76h19.8l25.5-59.9V130.6z M190,215.8
                c0,1.6-1.1,2.7-2.7,2.7h-11.8c-1.6,0-2.7-1.1-2.7-2.7v-17.6c0-1.6,1.1-2.7,2.7-2.7h11.8c1.6,0,2.7,1.1,2.7,2.7V215.8z
                 M208.3,200.5h-8.7v5.2h7.5v4.9h-7.5v7.9h-5.9v-23h14.6V200.5z"/>
            <path class="st-flgo-14" d="M183.7,200.5H179c-0.1,0-0.3,0.2-0.3,0.4v12.4c0,0.2,0.2,0.3,0.3,0.3h4.7c0.2,0,0.4-0.1,0.4-0.3v-12.4
                C184,200.7,183.9,200.5,183.7,200.5z"/>
            <polygon class="st-flgo-14" points="280.3,264.6 280.3,91.7 227,91.7 214.6,122.7 232.9,122.7 232.9,264.6 213.9,264.6 213.9,288.3 
                296,288.3 296,264.6             "/>
        </g>
        <g>
            <path class="st-flgo-14" d="M190,356.6c-54.1,0-102.2-25.9-132.6-66l-7.2,4.3c31.9,42.5,82.7,70,139.8,70c57.1,0,107.9-27.5,139.8-70
                l-7.2-4.3C292.2,330.6,244.1,356.6,190,356.6z"/>
            <path class="st-flgo-14" d="M38,257.9c-9.3-20.8-14.5-43.7-14.5-67.9c0-24.2,5.2-47.1,14.5-67.9l-6.8-5c-10.2,22.2-16,46.9-16,72.9
                s5.8,50.7,16,72.9L38,257.9z"/>
            <path class="st-flgo-14" d="M348.8,262.9c10.2-22.2,16-46.9,16-72.9c0-26-5.8-50.7-16-72.9l-6.8,5c9.3,20.8,14.5,43.7,14.5,67.9
                c0,24.2-5.2,47.1-14.5,67.9L348.8,262.9z"/>
            <path class="st-flgo-14" d="M190,23.4c54.1,0,102.2,25.9,132.6,66l7.2-4.3c-31.9-42.5-82.7-70-139.8-70c-57.1,0-107.9,27.5-139.8,70
                l7.2,4.3C87.8,49.4,135.9,23.4,190,23.4z"/>
            <polygon class="st-flgo-14" points="323.8,98.4 334.4,107.6 314.4,132.3 349.6,106.2 340.3,98.5 359.9,76.8          "/>
            <polygon class="st-flgo-14" points="30.4,106.2 65.6,132.3 45.6,107.6 56.2,98.4 20.1,76.8 39.7,98.5            "/>
            <polygon class="st-flgo-14" points="56.2,281.6 45.6,272.4 65.6,247.7 30.4,273.8 39.7,281.5 20.1,303.2             "/>
            <polygon class="st-flgo-14" points="349.6,273.8 314.4,247.7 334.4,272.4 323.8,281.6 359.9,303.2 340.3,281.5           "/>
        </g>
    </g>
</g>
</svg>
