<svg version="1.1" xmlns="http://www.w3.org/2000/svg" xmlns:xlink="http://www.w3.org/1999/xlink" x="0px" y="0px"
     viewBox="0 0 903.9 129.7" style="enable-background:new 0 0 903.9 129.7;" xml:space="preserve">
<style type="text/css">
    .st-hlgo-0{display:none;}
    .st-hlgo-1{fill:url(#SVGID_1_);}
    .st-hlgo-2{opacity:0.3;fill:url(#SVGID_2_);}
    .st-hlgo-3{fill:#F2B86B;}
    .st-hlgo-4{fill:#FFFFFF;}
    .st-hlgo-5{fill:#525252;}
    .st-hlgo-6{fill:none;stroke:#000000;stroke-width:4;stroke-miterlimit:10;}
    .st-hlgo-7{fill:url(#SVGID_3_);}
    .st-hlgo-8{fill:#E6E6E8;}
    .st-hlgo-9{fill:#D1D3D4;}
    .st-hlgo-10{fill:#C43235;}
    .st-hlgo-11{fill:#2B3990;}
    .st-hlgo-12{fill:#F2B632;}
    .st-hlgo-13{opacity:0.3;}
    .st-hlgo-14{fill:#231F20;}
    .st-hlgo-15{fill:#BCBEC0;}
    .st-hlgo-16{fill:#2D0508;}
    .st-hlgo-17{fill:#F15A29;}
    .st-hlgo-18{fill:none;stroke:#D1D3D4;stroke-width:4;stroke-miterlimit:10;}
    .st-hlgo-19{opacity:0.8;}
    .st-hlgo-20{fill:#808285;}
    .st-hlgo-21{fill:#414042;}
    .st-hlgo-22{fill:#58595B;}
    .st-hlgo-23{enable-background:new    ;}
    .st-hlgo-24{opacity:0.2;}
    .st-hlgo-25{fill:url(#SVGID_4_);}
    .st-hlgo-26{opacity:0.4;}
    .st-hlgo-27{fill:#939598;}
</style>
<g id="Layer_4" class="st-hlgo-0">
</g>
<g id="Layer_3">
</g>
<g id="Layer_2">
</g>
<g id="Layer_1">
    <g>
        <g>
            <g>
                <path class="st-hlgo-14" d="M45.5,58.7v52.7H23.4V18.2h24.3l18.8,43.5l17.3-43.5h25.4v93.2H86.5V57.7l-15.7,37h-9.4L45.5,58.7z"/>
                <path class="st-hlgo-14" d="M193.6,111.4h-24V88.2h-21.1v23.2h-24V29.1c0-6.5,4.4-10.9,10.9-10.9h47.3c6.5,0,10.9,4.4,10.9,10.9V111.4
                    z M169.6,68V40c0-1.7-1.4-2.8-3.3-2.8h-14.9c-1.7,0-2.9,1.2-2.9,2.8v28H169.6z"/>
                <path class="st-hlgo-14" d="M207,91.2h34.9c1,0,1.5-0.6,1.5-1.2V76.5c0-0.7-0.6-1.2-1.5-1.2h-24c-6.5,0-10.9-4.4-10.9-10.9V29.1
                    c0-6.5,4.4-10.9,10.9-10.9H266v20h-33.7c-0.8,0-1.4,0.7-1.4,1.5v13.7c0,0.6,0.6,1.2,1.4,1.2h24c6.5,0,10.9,4.4,10.9,10.9v34.9
                    c0,6.5-4.4,10.9-10.9,10.9H207V91.2z"/>
                <path class="st-hlgo-14" d="M338.5,18.2v20.1h-21.1v73h-24v-73h-21.1V18.2H338.5z"/>
                <path class="st-hlgo-14" d="M345.9,18.2h60.9v20h-37v16.3h32v19.9h-32v16.8h37v20.1h-60.9V18.2z"/>
                <path class="st-hlgo-14" d="M478.1,18.2c5.7,0,10.5,4.6,10.5,10.5v42.6c0,5.7-4.8,10.5-10.5,10.5h-0.7l11.5,29.5h-23.5l-11.6-29.5
                    h-10.2v29.5h-24V18.2H478.1z M464.8,39.6c0-0.7-0.7-1.4-1.2-1.4h-19.9v24.8h19.9c0.6,0,1.2-0.7,1.2-1.2V39.6z"/>
                <path class="st-hlgo-14" d="M559.7,37.5c3.8,0,6.4,2.6,6.4,6.4v41.9c0,3.8-2.6,6.4-6.4,6.4h-28.1c-3.8,0-6.4-2.6-6.4-6.4V43.9
                    c0-3.8,2.6-6.4,6.4-6.4H559.7z M552.1,50.2c0-0.5-0.4-0.9-0.9-0.9h-11.1c-0.3,0-0.7,0.4-0.7,0.9v29.4c0,0.4,0.4,0.7,0.7,0.7
                    h11.1c0.5,0,0.9-0.3,0.9-0.7V50.2z"/>
                <path class="st-hlgo-14" d="M575.1,37.5h34.7v11.7h-20.6v12.4h17.8v11.7h-17.8v18.9h-14V37.5z"/>
                <path class="st-hlgo-14" d="M819.6,18.2h60.9v20h-37v16.3h32v19.9h-32v16.8h37v20.1h-60.9V18.2z"/>
                <path class="st-hlgo-14" d="M705.2,18.2c6.5,0,10.9,4.4,10.9,10.9v71.4c0,6.5-4.4,10.9-10.9,10.9h-47.9c-6.5,0-10.9-4.4-10.9-10.9
                    V29.1c0-6.5,4.4-10.9,10.9-10.9H705.2z M692.1,39.9c0-0.8-0.7-1.5-1.5-1.5h-18.9c-0.6,0-1.2,0.7-1.2,1.5V90
                    c0,0.7,0.7,1.2,1.2,1.2h18.9c0.8,0,1.5-0.6,1.5-1.2V39.9z"/>
            </g>
            <polygon class="st-hlgo-14" points="753.9,18.3 728.6,18.3 722.8,33 731.5,33 731.5,100.2 722.5,100.2 722.5,111.4 761.4,111.4 
                761.4,100.2 753.9,100.2             "/>
            <g>
                <polygon class="st-hlgo-14" points="781.4,18.2 781.4,69.6 761.3,32.6 761.3,74.9 780.7,111.4 803.5,111.4 803.5,18.2                "/>
            </g>
            <rect x="512.3" y="18.2" class="st-hlgo-14" width="109.9" height="7.5"/>
            <rect x="512.3" y="103.9" class="st-hlgo-14" width="110.4" height="7.5"/>
        </g>
    </g>
</g>
</svg>
