<svg id="mof1_logo" data-name="Layer 1" xmlns="http://www.w3.org/2000/svg" viewBox="0 0 1068.36 63.85"><defs><style>.cls-mof1-1{fill:#792257;}</style></defs><title>mof1_logo</title><path class="cls-mof1-1" d="M286.86,2123h17.31l14.1,22.88,14.1-22.88h17.31v59.11h-16.3v-33.94l-15.07,23.14H318l-15-23v33.78H286.86V2123Z" transform="translate(-286.86 -2121.99)"/><path class="cls-mof1-1" d="M380.58,2122.58h15.79l25.17,59.53H404l-4.31-10.56h-22.8l-4.22,10.56H355.42Zm14.36,36.31-6.59-16.8-6.67,16.8h13.26Z" transform="translate(-286.86 -2121.99)"/><path class="cls-mof1-1" d="M450.5,2183.12a45.87,45.87,0,0,1-15.07-2.46,36.53,36.53,0,0,1-12.62-7.39l9.12-10.92a30.08,30.08,0,0,0,19.17,7.09,9.79,9.79,0,0,0,5-1.05,3.32,3.32,0,0,0,1.73-3v-0.17a3.19,3.19,0,0,0-.43-1.65,4.3,4.3,0,0,0-1.56-1.39,16.09,16.09,0,0,0-3-1.31,50.63,50.63,0,0,0-4.94-1.31q-4.73-1.09-8.78-2.4a26.81,26.81,0,0,1-7.05-3.37,14.39,14.39,0,0,1-6.46-12.77v-0.17a18.14,18.14,0,0,1,1.56-7.59,16.79,16.79,0,0,1,4.56-6,21.51,21.51,0,0,1,7.22-3.92,30.49,30.49,0,0,1,9.54-1.39,42.56,42.56,0,0,1,13.55,2,34.22,34.22,0,0,1,10.77,5.9l-8.19,11.61a33.2,33.2,0,0,0-8.32-4.35,25.1,25.1,0,0,0-8.23-1.48,7.41,7.41,0,0,0-4.43,1.1,3.25,3.25,0,0,0-1.48,2.7v0.17a3.31,3.31,0,0,0,.46,1.77,4.25,4.25,0,0,0,1.6,1.39,17.81,17.81,0,0,0,3.13,1.26q2,0.63,5,1.31a72.34,72.34,0,0,1,9.16,2.57,27.41,27.41,0,0,1,7,3.58,14.39,14.39,0,0,1,4.39,5.1,15.57,15.57,0,0,1,1.52,7.12v0.17a18.21,18.21,0,0,1-1.73,8.09,17.35,17.35,0,0,1-4.86,6,22,22,0,0,1-7.51,3.79A34.29,34.29,0,0,1,450.5,2183.12Z" transform="translate(-286.86 -2121.99)"/><path class="cls-mof1-1" d="M496.78,2137.36H479V2123h51.85v14.35H513.16v44.75H496.78v-44.75Z" transform="translate(-286.86 -2121.99)"/><path class="cls-mof1-1" d="M538.07,2123h47.46v13.93H554.2v9h28.37v12.92H554.2v9.37h31.75v13.93H538.07V2123Z" transform="translate(-286.86 -2121.99)"/><path class="cls-mof1-1" d="M594.39,2123h28a34.68,34.68,0,0,1,11.57,1.69,19.82,19.82,0,0,1,7.68,4.73q5.24,5.06,5.23,13.76v0.17a18.6,18.6,0,0,1-3.29,11.32,20.82,20.82,0,0,1-8.87,6.84l14.1,20.6H629.86L618,2164.21h-7.18v17.9H594.39V2123Zm27.19,28.37a9.89,9.89,0,0,0,6.5-1.9,6.3,6.3,0,0,0,2.28-5.11v-0.17a6.12,6.12,0,0,0-2.36-5.28,10.83,10.83,0,0,0-6.51-1.73H610.77v14.19h10.81Z" transform="translate(-286.86 -2121.99)"/><path class="cls-mof1-1" d="M707.27,2183.1a32,32,0,0,1-12.35-2.35,30.43,30.43,0,0,1-9.8-6.38,29.46,29.46,0,0,1-6.46-9.47,28.94,28.94,0,0,1-2.35-11.61v-0.16a29.38,29.38,0,0,1,8.9-21.21,31,31,0,0,1,9.88-6.42,33.67,33.67,0,0,1,24.71,0,30.46,30.46,0,0,1,9.8,6.38,29.44,29.44,0,0,1,6.46,9.47A29,29,0,0,1,738.4,2153v0.16a29.4,29.4,0,0,1-8.89,21.21,31.05,31.05,0,0,1-9.88,6.42A32,32,0,0,1,707.27,2183.1Zm0.12-14.41a14.43,14.43,0,0,0,6-1.24,13.87,13.87,0,0,0,4.63-3.34,15.54,15.54,0,0,0,3-4.9,16.41,16.41,0,0,0,1.07-5.93v-0.16a16.41,16.41,0,0,0-1.07-5.93,15.24,15.24,0,0,0-3.06-4.94,15.08,15.08,0,0,0-4.71-3.42,15,15,0,0,0-12,0,14.39,14.39,0,0,0-7.6,8.24,17.06,17.06,0,0,0-1,5.93v0.16a16.41,16.41,0,0,0,1.07,5.93,15.57,15.57,0,0,0,3,4.94,14.52,14.52,0,0,0,4.67,3.42A14,14,0,0,0,707.39,2168.68Z" transform="translate(-286.86 -2121.99)"/><path class="cls-mof1-1" d="M746.72,2124.29h46.12v14H762.69V2148H790v13.34H762.69v20.59h-16v-57.65Z" transform="translate(-286.86 -2121.99)"/><path class="cls-mof1-1" d="M852,2183.24a32.19,32.19,0,0,1-12.41-2.36,30.55,30.55,0,0,1-9.85-6.41,29.59,29.59,0,0,1-6.5-9.51,29.11,29.11,0,0,1-2.36-11.67v-0.17a29.52,29.52,0,0,1,8.94-21.3,31.18,31.18,0,0,1,9.93-6.45,33.84,33.84,0,0,1,24.82,0,30.59,30.59,0,0,1,9.85,6.41,29.64,29.64,0,0,1,6.49,9.52A29.11,29.11,0,0,1,883.3,2153v0.17a29.52,29.52,0,0,1-8.94,21.31,31.18,31.18,0,0,1-9.93,6.45A32.19,32.19,0,0,1,852,2183.24Zm0.12-14.48a14.51,14.51,0,0,0,6.06-1.24,13.93,13.93,0,0,0,4.65-3.35,15.55,15.55,0,0,0,3-4.92,16.49,16.49,0,0,0,1.08-6v-0.17a16.5,16.5,0,0,0-1.08-6,15.32,15.32,0,0,0-3.07-5,15.12,15.12,0,0,0-4.73-3.43,15.07,15.07,0,0,0-12.07,0,14.42,14.42,0,0,0-7.63,8.27,17.08,17.08,0,0,0-1,6v0.17a16.49,16.49,0,0,0,1.08,6,15.64,15.64,0,0,0,3,5,14.59,14.59,0,0,0,4.69,3.43A14.09,14.09,0,0,0,852.15,2168.76Z" transform="translate(-286.86 -2121.99)"/><path class="cls-mof1-1" d="M956.61,2124.16h46.5v13.65h-30.7v8.77h27.8v12.66h-27.8v9.18h31.11v13.65H956.61v-57.92Z" transform="translate(-286.86 -2121.99)"/><polygon class="cls-mof1-1" points="620.6 2.17 604.8 2.17 598.46 12.53 604.8 12.53 604.8 52.18 598.46 52.18 598.46 60.09 625.86 60.09 625.86 52.18 620.6 52.18 620.6 2.17"/><polygon class="cls-mof1-1" points="643.69 2.17 643.69 32.79 625.86 9.14 625.86 35.05 645.4 60.09 659.49 60.09 659.49 2.17 643.69 2.17"/><path class="cls-mof1-1" d="M1070.59,2137.05h12.77a18.15,18.15,0,0,1,5.3.73,12.3,12.3,0,0,1,4.12,2.11,9.59,9.59,0,0,1,2.69,3.37,10.42,10.42,0,0,1,1,4.55v0.1a10.08,10.08,0,0,1-4.1,8.39,13.26,13.26,0,0,1-4.37,2.11,19.19,19.19,0,0,1-5.25.7h-9.5v13.12h-2.62v-35.19Zm12.27,19.71a15.47,15.47,0,0,0,4.47-.61,10.24,10.24,0,0,0,3.44-1.74,7.9,7.9,0,0,0,3-6.35V2148a8.35,8.35,0,0,0-.78-3.72,7.26,7.26,0,0,0-2.19-2.65,10.09,10.09,0,0,0-3.37-1.62,15.84,15.84,0,0,0-4.32-.56h-9.95v17.34h9.65Z" transform="translate(-286.86 -2121.99)"/><path class="cls-mof1-1" d="M1120.25,2172.84a17.11,17.11,0,0,1-12.82-5.45,17.6,17.6,0,0,1-3.57-5.76,19,19,0,0,1-1.26-6.89v-0.1a18.91,18.91,0,0,1,1.28-6.91,18.33,18.33,0,0,1,3.59-5.81,17.06,17.06,0,0,1,5.58-4,18.54,18.54,0,0,1,14.53,0,17.25,17.25,0,0,1,5.58,4,17.67,17.67,0,0,1,3.57,5.76,19.08,19.08,0,0,1,1.25,6.89,0.06,0.06,0,0,1,0,.1,18.89,18.89,0,0,1-1.28,6.91,18.26,18.26,0,0,1-3.59,5.81,17,17,0,0,1-5.6,4A17.51,17.51,0,0,1,1120.25,2172.84Zm0.1-2.36a14.4,14.4,0,0,0,10.73-4.6,15.43,15.43,0,0,0,3.09-5,16.9,16.9,0,0,0,1.11-6.13v-0.1a16.73,16.73,0,0,0-1.13-6.16,15.76,15.76,0,0,0-3.12-5,14.76,14.76,0,0,0-4.75-3.39,14.69,14.69,0,0,0-16.77,3.34,15.47,15.47,0,0,0-3.09,5,16.91,16.91,0,0,0-1.1,6.13v0.1a16.71,16.71,0,0,0,1.13,6.16,15.74,15.74,0,0,0,3.12,5,14.74,14.74,0,0,0,4.75,3.39A14.43,14.43,0,0,0,1120.35,2170.48Z" transform="translate(-286.86 -2121.99)"/><path class="cls-mof1-1" d="M1146.89,2137.05h11.71a20.82,20.82,0,0,1,7.57,1.33,17.87,17.87,0,0,1,5.93,3.69,16.44,16.44,0,0,1,3.85,5.55,17.52,17.52,0,0,1,1.36,6.91v0.1a17.71,17.71,0,0,1-1.36,6.94,16.37,16.37,0,0,1-3.85,5.58,18.2,18.2,0,0,1-5.93,3.72,20.47,20.47,0,0,1-7.57,1.36h-11.71v-35.19Zm11.71,32.83a17.74,17.74,0,0,0,6.63-1.19,14.91,14.91,0,0,0,5-3.23,14.44,14.44,0,0,0,3.19-4.79,15.4,15.4,0,0,0,1.13-5.93v-0.1a15.45,15.45,0,0,0-1.13-5.9,14.64,14.64,0,0,0-3.19-4.84,15,15,0,0,0-5-3.28,17.38,17.38,0,0,0-6.63-1.21h-9.1v30.46h9.1Z" transform="translate(-286.86 -2121.99)"/><path class="cls-mof1-1" d="M1202.14,2172.84a17.18,17.18,0,0,1-12.54-5.25,17.45,17.45,0,0,1-3.64-5.75,19.15,19.15,0,0,1-1.31-7.09v-0.1a18.66,18.66,0,0,1,1.33-7,18.44,18.44,0,0,1,3.67-5.81,17,17,0,0,1,12.59-5.35,20.78,20.78,0,0,1,4.27.4,16.6,16.6,0,0,1,3.55,1.16,18.7,18.7,0,0,1,3.07,1.78,29.37,29.37,0,0,1,2.79,2.29L1214,2144a27.91,27.91,0,0,0-2.41-2.06,15.22,15.22,0,0,0-2.69-1.64,16,16,0,0,0-3.12-1.08,15.68,15.68,0,0,0-3.64-.4,14.26,14.26,0,0,0-10.58,4.55,15.81,15.81,0,0,0-3.12,5,16.65,16.65,0,0,0-1.13,6.18v0.1a16.57,16.57,0,0,0,1.16,6.21,16,16,0,0,0,3.14,5,14.52,14.52,0,0,0,4.7,3.37,14.08,14.08,0,0,0,5.88,1.23,14.67,14.67,0,0,0,6.63-1.41,21.27,21.27,0,0,0,5.48-4.07l1.76,1.71a32.77,32.77,0,0,1-2.89,2.49,17.89,17.89,0,0,1-3.17,1.94,17.62,17.62,0,0,1-3.64,1.26A19,19,0,0,1,1202.14,2172.84Z" transform="translate(-286.86 -2121.99)"/><path class="cls-mof1-1" d="M1236.67,2136.8h2.51l16.39,35.44h-2.87l-4.47-9.85h-20.76l-4.47,9.85h-2.72Zm10.46,23.22-9.25-20.36-9.3,20.36h18.55Z" transform="translate(-286.86 -2121.99)"/><path class="cls-mof1-1" d="M1274.92,2172.74a19.73,19.73,0,0,1-7.61-1.41,23.46,23.46,0,0,1-6.56-4.22l1.71-2a25.1,25.1,0,0,0,2.89,2.34,16.08,16.08,0,0,0,6.11,2.56,18.64,18.64,0,0,0,3.62.33,11.86,11.86,0,0,0,3.62-.53,8.54,8.54,0,0,0,2.81-1.46,6.74,6.74,0,0,0,1.81-2.21,6,6,0,0,0,.66-2.79v-0.1a6.88,6.88,0,0,0-.43-2.51,4.84,4.84,0,0,0-1.56-2,11.36,11.36,0,0,0-3-1.64,31.58,31.58,0,0,0-4.92-1.33,34.16,34.16,0,0,1-5.43-1.53,13.37,13.37,0,0,1-3.69-2.06,7.06,7.06,0,0,1-2.09-2.74,9.18,9.18,0,0,1-.65-3.57v-0.1a7.93,7.93,0,0,1,.85-3.64,9.28,9.28,0,0,1,2.36-2.94,11.12,11.12,0,0,1,3.57-2,13.89,13.89,0,0,1,4.52-.7,18.67,18.67,0,0,1,6.61,1.06,19.86,19.86,0,0,1,5.45,3.22l-1.66,2.06a15.11,15.11,0,0,0-10.51-4,11.15,11.15,0,0,0-3.55.53,8.71,8.71,0,0,0-2.72,1.43,6.34,6.34,0,0,0-1.73,2.11,5.68,5.68,0,0,0-.6,2.56v0.1a7.08,7.08,0,0,0,.43,2.54,5,5,0,0,0,1.56,2.06,11.07,11.07,0,0,0,3.14,1.68,35.91,35.91,0,0,0,5.13,1.41q6.13,1.26,8.85,3.54a7.64,7.64,0,0,1,2.71,6.16v0.1a8.69,8.69,0,0,1-.88,3.9,9.11,9.11,0,0,1-2.41,3,11.33,11.33,0,0,1-3.67,2A15,15,0,0,1,1274.92,2172.74Z" transform="translate(-286.86 -2121.99)"/><path class="cls-mof1-1" d="M1304.94,2139.41h-12.26v-2.36h27.14v2.36h-12.26v32.82h-2.61v-32.82Z" transform="translate(-286.86 -2121.99)"/><path class="cls-mof1-1" d="M1350,2128.19v52.46H1039.2v-52.46H1350m5.18-5.18H1034v62.83h321.21V2123h0Z" transform="translate(-286.86 -2121.99)"/></svg>