<svg width="247px" height="119px" class="big-mof1" viewBox="0 0 247 119" version="1.1" xmlns="http://www.w3.org/2000/svg" xmlns:xlink="http://www.w3.org/1999/xlink">
    <defs>
        <linearGradient x1="50%" y1="0%" x2="50%" y2="100%" id="linearGradient-1">
            <stop stop-color="#F2531D" offset="0%"></stop>
            <stop stop-color="#F13E2E" offset="100%"></stop>
        </linearGradient>
    </defs>
    <g id="Page-1" stroke="none" stroke-width="1" fill="none" fill-rule="evenodd">
        <g id="Mof1-Conf-Coming-Soon" transform="translate(-597.000000, -137.000000)" fill="url(#linearGradient-1)">
            <g id="mof1-logo" transform="translate(597.000000, 137.000000)">
                <path d="M15.6763356,98.3181091 L10.8190134,106.1752 L5.96324142,98.3181091 L0.00010334728,98.3181091 L0.00010334728,118.614048 L5.55605314,118.614048 L5.55605314,107.016442 L10.7177331,114.902897 L10.833482,114.902897 L16.0251326,106.958745 L16.0251326,118.614048 L21.6379234,118.614048 L21.6379234,98.3181091 L15.6763356,98.3181091 Z" id="Fill-1"></path>
                <path d="M32.2809364,98.1729909 L23.6147502,118.613688 L29.548951,118.613688 L31.0030473,114.989597 L38.8548569,114.989597 L40.3384071,118.613688 L46.3878402,118.613688 L37.7201038,98.1729909 L32.2809364,98.1729909 Z M34.9581477,104.870991 L37.2266205,110.640688 L32.6602209,110.640688 L34.9581477,104.870991 Z" id="Fill-2"></path>
                <path d="M56.363178,118.962085 C54.540132,118.962085 52.8090651,118.679782 51.1720441,118.116206 C49.533473,117.5516 48.0835107,116.705721 46.8242241,115.578055 L49.9654646,111.829812 C52.0008893,113.453055 54.2001195,114.264933 56.5667722,114.264933 C57.3222408,114.264933 57.8994354,114.144388 58.2978391,113.903297 C58.6946927,113.662721 58.8936362,113.31963 58.8936362,112.87557 L58.8936362,112.817873 C58.8936362,112.60563 58.8440295,112.417085 58.7473998,112.253267 C58.6507701,112.089448 58.4719793,111.930267 58.2099939,111.775721 C57.9474918,111.621691 57.5992115,111.472297 57.1625692,111.327539 C56.7264437,111.182267 56.1595839,111.032358 55.4609563,110.878842 C54.3758098,110.627964 53.3671404,110.352873 52.4370149,110.05357 C51.5058559,109.755297 50.6961299,109.368933 50.007837,108.896024 C49.3195441,108.42363 48.7759374,107.834812 48.3790839,107.130085 C47.9822303,106.426388 47.7832868,105.552691 47.7832868,104.511055 L47.7832868,104.453358 C47.7832868,103.508055 47.9620776,102.639509 48.3222429,101.848236 C48.6793077,101.057994 49.2037952,100.372327 49.8920881,99.793297 C50.580381,99.2147818 51.4092262,98.7666 52.3786236,98.4477212 C53.3480211,98.1298727 54.4435023,97.9701758 55.6645504,97.9701758 C57.410086,97.9701758 58.9654626,98.1994182 60.3332638,98.6563576 C61.6995149,99.113297 62.9355483,99.7891758 64.0408475,100.683479 L61.21895,104.668176 C60.2893412,104.011358 59.3344123,103.513206 58.3546801,103.174752 C57.3764981,102.836812 56.4303538,102.667327 55.5198642,102.667327 C54.8403559,102.667327 54.3318872,102.793024 53.9923914,103.043903 C53.6523789,103.295297 53.4839228,103.603358 53.4839228,103.96963 L53.4839228,104.027842 C53.4839228,104.259145 53.5366299,104.4616 53.6435944,104.635206 C53.7505588,104.808812 53.9350337,104.967994 54.1959856,105.113267 C54.4579709,105.258024 54.816586,105.402267 55.2723475,105.547024 C55.7275923,105.692297 56.3047868,105.841691 57.0028977,105.995721 C58.1660713,106.247115 59.2171132,106.540236 60.1586069,106.878176 C61.0990672,107.21663 61.8984584,107.625661 62.5572973,108.108358 C63.2166529,108.591055 63.7204709,109.174721 64.0703015,109.859358 C64.4185818,110.543994 64.5932387,111.360509 64.5932387,112.304782 L64.5932387,112.363509 C64.5932387,113.405145 64.3937785,114.331388 63.9969249,115.141721 C63.6000713,115.951539 63.0425128,116.641327 62.3247659,117.211085 C61.607019,117.780327 60.744586,118.2146 59.73695,118.513388 C58.7282805,118.812691 57.6033454,118.962085 56.363178,118.962085" id="Fill-3"></path>
                <path d="M72.3002071,103.246924 L66.1934163,103.246924 L66.1934163,98.3184697 L84.0502762,98.3184697 L84.0502762,103.246924 L77.9424519,103.246924 L77.9424519,118.613894 L72.3002071,118.613894 L72.3002071,103.246924 Z" id="Fill-5"></path>
                <path d="M86.5209479,98.3183152 L102.866354,98.3183152 L102.866354,103.102527 L92.0768977,103.102527 L92.0768977,106.175406 L101.8489,106.175406 L101.8489,110.611376 L92.0768977,110.611376 L92.0768977,113.829527 L103.011557,113.829527 L103.011557,118.613739 L86.5209479,118.613739 L86.5209479,98.3183152 Z" id="Fill-7"></path>
                <path d="M115.284615,108.060242 C116.254012,108.060242 117.000696,107.842848 117.523633,107.407545 C118.048121,106.972758 118.310106,106.388576 118.310106,105.653455 L118.310106,105.595758 C118.310106,104.784394 118.037786,104.179606 117.49573,103.783455 C116.95264,103.387818 116.205956,103.189485 115.255161,103.189485 L111.562046,103.189485 L111.562046,108.060242 L115.284615,108.060242 Z M105.919801,98.3182121 L115.5466,98.3182121 C117.116445,98.3182121 118.444974,98.5119091 119.531154,98.8977576 C120.616301,99.2846364 121.497853,99.8255455 122.177362,100.52203 C123.379807,101.681121 123.980255,103.25697 123.980255,105.247515 L123.980255,105.305212 C123.980255,106.871273 123.602521,108.166879 122.846535,109.191 C122.091067,110.215636 121.072062,110.998152 119.793656,111.539061 L124.649428,118.613636 L118.135966,118.613636 L114.034113,112.466848 L113.976755,112.466848 L111.562046,112.466848 L111.562046,118.613636 L105.919801,118.613636 L105.919801,98.3182121 Z" id="Fill-9"></path>
                <path d="M144.838888,114.003906 C145.597457,114.003906 146.289884,113.862755 146.915135,113.579936 C147.541419,113.297118 148.071591,112.914876 148.508233,112.434239 C148.943842,111.953603 149.285405,111.393118 149.531888,110.751755 C149.778888,110.110906 149.901355,109.432452 149.901355,108.715876 L149.901355,108.659209 C149.901355,107.943148 149.778888,107.264694 149.531888,106.62333 C149.285405,105.982482 148.934541,105.416845 148.479296,104.926421 C148.024568,104.436512 147.483545,104.045512 146.858294,103.752906 C146.233043,103.460815 145.540616,103.315027 144.782047,103.315027 C144.023995,103.315027 143.336735,103.456179 142.719235,103.738997 C142.103286,104.021815 141.573114,104.403027 141.127171,104.884694 C140.681227,105.36533 140.339664,105.925815 140.102482,106.567179 C139.866334,107.208027 139.747484,107.886482 139.747484,108.602542 L139.747484,108.659209 C139.747484,109.375785 139.869951,110.054239 140.116951,110.695603 C140.363434,111.336452 140.709131,111.902088 141.155074,112.391482 C141.600501,112.882421 142.136357,113.273421 142.762641,113.565512 C143.387892,113.858118 144.080319,114.003906 144.838888,114.003906 M144.796516,118.951936 C143.263876,118.951936 141.845951,118.684058 140.541708,118.146239 C139.236949,117.608936 138.112014,116.878452 137.165869,115.954785 C136.220242,115.031633 135.479242,113.947239 134.939769,112.702633 C134.400296,111.458542 134.131076,110.129967 134.131076,108.715876 L134.131076,108.659209 C134.131076,107.245633 134.400296,105.911906 134.939769,104.658542 C135.479242,103.404664 136.229543,102.310997 137.195323,101.378058 C138.159553,100.444603 139.29379,99.7094818 140.598032,99.1721788 C141.902792,98.6348758 143.320717,98.3659667 144.853357,98.3659667 C146.384963,98.3659667 147.802888,98.6348758 149.107131,99.1721788 C150.41189,99.7094818 151.536825,100.440482 152.482453,101.363633 C153.428597,102.2873 154.171147,103.371694 154.70907,104.615785 C155.248543,105.859361 155.517763,107.188967 155.517763,108.602542 L155.517763,108.659209 C155.517763,110.0733 155.248543,111.407027 154.70907,112.660906 C154.171147,113.91427 153.419296,115.007421 152.455066,115.940876 C151.490836,116.873815 150.355049,117.608936 149.05029,118.146239 C147.746047,118.684058 146.328122,118.951936 144.796516,118.951936" id="Fill-11"></path>
                <path d="M158.382704,98.7619636 L174.266664,98.7619636 L174.266664,103.569358 L163.88543,103.569358 L163.88543,106.906509 L173.274531,106.906509 L173.274531,111.487236 L163.88543,111.487236 L163.88543,118.556661 L158.382704,118.556661 L158.382704,98.7619636 Z" id="Fill-13"></path>
                <path d="M194.6962,114.028479 C195.457869,114.028479 196.153396,113.886297 196.782265,113.602448 C197.410616,113.318085 197.944405,112.934812 198.382597,112.4516 C198.820273,111.968903 199.163386,111.405327 199.410903,110.761388 C199.658419,110.117964 199.782953,109.435903 199.782953,108.716236 L199.782953,108.659055 C199.782953,107.939903 199.658419,107.257842 199.410903,106.613903 C199.163386,105.969964 198.810972,105.401752 198.354177,104.909267 C197.896348,104.416782 197.353775,104.024236 196.724907,103.730085 C196.096555,103.436964 195.401028,103.290145 194.639359,103.290145 C193.877173,103.290145 193.186296,103.431812 192.567246,103.716176 C191.948196,104.000024 191.414407,104.383812 190.966913,104.866509 C190.518903,105.349721 190.17579,105.913297 189.938091,106.556721 C189.699876,107.201176 189.581026,107.882721 189.581026,108.602388 L189.581026,108.659055 C189.581026,109.379236 189.705043,110.060782 189.95256,110.704721 C190.200076,111.348661 190.54784,111.916873 190.99585,112.409358 C191.442827,112.901842 191.981267,113.294903 192.610135,113.588024 C193.239003,113.882176 193.934014,114.028479 194.6962,114.028479 M194.653311,119.000206 C193.11447,119.000206 191.689827,118.730267 190.378867,118.190388 C189.068424,117.650509 187.937288,116.916933 186.988043,115.98863 C186.037765,115.060842 185.292114,113.971812 184.751091,112.721539 C184.209551,111.471782 183.938781,110.136509 183.938781,108.716236 L183.938781,108.659055 C183.938781,107.238782 184.209551,105.898873 184.751091,104.639327 C185.292114,103.379782 186.047583,102.281479 187.016463,101.343903 C187.985344,100.406327 189.125265,99.6676 190.436225,99.1282364 C191.746668,98.5883576 193.171311,98.3184182 194.710668,98.3184182 C196.248993,98.3184182 197.674152,98.5883576 198.985112,99.1282364 C200.295555,99.6676 201.425658,100.401691 202.375936,101.329479 C203.325698,102.257782 204.071348,103.346812 204.612888,104.59657 C205.154428,105.846842 205.425198,107.182115 205.425198,108.602388 L205.425198,108.659055 C205.425198,110.079842 205.154428,111.419752 204.612888,112.678782 C204.071348,113.938842 203.316396,115.037145 202.347516,115.974721 C201.378635,116.911782 200.238714,117.650509 198.927754,118.190388 C197.616794,118.730267 196.192152,119.000206 194.653311,119.000206" id="Fill-15"></path>
                <path d="M230.672267,98.7160121 L246.686961,98.7160121 L246.686961,103.403376 L236.115051,103.403376 L236.115051,106.414952 L245.68966,106.414952 L245.68966,110.761285 L236.115051,110.761285 L236.115051,113.915042 L246.82958,113.915042 L246.82958,118.602406 L230.672267,118.602406 L230.672267,98.7160121 Z" id="Fill-18"></path>
                <path d="M213.745791,98.7160121 L208.303006,98.7160121 L206.117728,102.271588 L208.303006,102.271588 L208.303006,115.886012 L206.117728,115.886012 L206.117728,118.602406 L215.555401,118.602406 L215.555401,115.886012 L213.745791,115.886012 L213.745791,98.7160121 Z" id="Fill-21"></path>
                <path d="M221.696245,98.7160121 L221.696245,109.227164 L215.555867,101.108891 L215.555867,110.005558 L222.284291,118.602406 L227.13903,118.602406 L227.13903,98.7160121 L221.696245,98.7160121 Z" id="Fill-23"></path>
                <path d="M147.552426,63.4053121 L147.552426,22.2632515 L134.351361,22.2632515 L129.051196,30.887403 L134.351361,30.887403 L134.351361,63.4053121 L129.051196,63.4053121 L129.051196,69.9930697 L151.942102,69.9930697 L151.942102,63.4053121 L147.552426,63.4053121 Z" id="Fill-25"></path>
                <path d="M128.418039,44.5105848 L125.550668,44.5105848 L125.550668,45.4321909 L128.143652,45.4321909 L128.143652,46.697403 L125.550668,46.697403 L125.550668,48.6503424 L124.029913,48.6503424 L124.029913,43.1825242 L128.418039,43.1825242 L128.418039,44.5105848 Z M123.239306,45.9164333 C123.239306,46.3069182 123.16438,46.6752515 123.016076,47.0219485 C122.86674,47.3681303 122.659528,47.6700091 122.392892,47.9275848 C122.126773,48.1856758 121.813114,48.3886455 121.452432,48.5370091 C121.092267,48.6853727 120.700581,48.7595545 120.27789,48.7595545 C119.854683,48.7595545 119.462997,48.6853727 119.102315,48.5370091 C118.74215,48.3886455 118.431591,48.1867061 118.170639,47.9317061 C117.909171,47.6767061 117.704543,47.377403 117.555206,47.0332818 C117.406386,46.6896758 117.331976,46.3223727 117.331976,45.932403 L117.331976,45.9164333 C117.331976,45.5259485 117.406386,45.1576152 117.555206,44.8114333 C117.704543,44.4647364 117.911754,44.1628576 118.177873,43.9052818 C118.444509,43.6471909 118.758168,43.4442212 119.117817,43.2958576 C119.478499,43.1474939 119.870185,43.0738273 120.293392,43.0738273 C120.716599,43.0738273 121.108286,43.1474939 121.468451,43.2958576 C121.829133,43.4442212 122.139691,43.6461606 122.400643,43.9011606 C122.662112,44.1566758 122.86674,44.4559788 123.016076,44.7995848 C123.16438,45.1431909 123.239306,45.5104939 123.239306,45.9009788 L123.239306,45.9164333 Z M131.960783,33.3132515 L127.512717,33.3132515 L122.906012,40.7664636 L111.493888,22.3039485 L97.4846475,22.3039485 L97.4846475,69.9925545 L110.537409,69.9925545 L110.537409,42.7415545 L122.666246,61.2725848 L122.940116,61.2725848 L131.960783,47.4670394 L131.960783,33.3132515 Z" id="Fill-27"></path>
                <path d="M121.295189,44.8855636 C121.169105,44.7500788 121.019769,44.641897 120.847179,44.5615333 C120.674072,44.4806545 120.483396,44.4404727 120.274118,44.4404727 C120.064323,44.4404727 119.874681,44.4791091 119.704158,44.5574121 C119.534151,44.6357152 119.387398,44.7408061 119.263898,44.8737152 C119.140915,45.0066242 119.046869,45.1616848 118.98176,45.3383818 C118.915618,45.5155939 118.883064,45.7031091 118.883064,45.9009273 L118.883064,45.9163818 C118.883064,46.1147152 118.917685,46.3017152 118.985377,46.4789273 C119.05307,46.6561394 119.148666,46.8122303 119.272166,46.9472 C119.395149,47.0832 119.542936,47.1908667 119.716043,47.2717455 C119.888633,47.3521091 120.080342,47.3928061 120.28962,47.3928061 C120.498898,47.3928061 120.690091,47.3536545 120.863197,47.2753515 C121.035787,47.1975636 121.182541,47.0919576 121.30294,46.9590485 C121.42334,46.8266545 121.517386,46.6715939 121.585595,46.4943818 C121.653804,46.3176848 121.687392,46.1301697 121.687392,45.9323515 L121.687392,45.9163818 C121.687392,45.7185636 121.653804,45.5310485 121.585595,45.3538364 C121.517386,45.1771394 121.420756,45.0210485 121.295189,44.8855636" id="Fill-29"></path>
                <path d="M165.896775,18.1519818 L155.389974,24.4054061 L158.489875,27.0919212 L152.649721,34.2540727 L162.902804,26.6787697 L160.193038,24.4445576 L165.896775,18.1519818 Z" id="Fill-31"></path>
                <path d="M79.4996887,17.4378788 L90.00649,23.691303 L86.9060715,26.3778182 L92.7467431,33.5399697 L82.4936594,25.9646667 L85.2034251,23.7304545 L79.4996887,17.4378788 Z" id="Fill-33"></path>
                <path d="M78.7303715,77.4484455 L89.2371728,71.1955364 L86.1367544,68.5090212 L91.9769092,61.3468697 L81.7233088,68.9216576 L84.4341079,71.1569 L78.7303715,77.4484455 Z" id="Fill-35"></path>
                <path d="M166.012059,76.2323273 L155.504741,69.9794182 L158.605159,67.292903 L152.764488,60.1307515 L163.018088,67.7055394 L160.307289,69.9407818 L166.012059,76.2323273 Z" id="Fill-37"></path>
                <path d="M123.415772,85.4601333 C111.739079,85.4601333 100.95169,80.2725576 93.6259184,71.2079515 L86.0515962,75.7155273 C95.0490105,87.4460424 108.639178,94.1723758 123.415772,94.1723758 C138.191333,94.1723758 151.782533,87.4450121 160.776847,75.714497 L153.204592,71.2079515 C145.876236,80.2725576 135.090914,85.4601333 123.415772,85.4601333" id="Fill-39"></path>
                <path d="M85.1262247,47.2886939 C85.1262247,42.3932091 86.0599674,37.6342394 87.8830134,33.1184212 L80.6652393,27.7855727 C77.827323,33.9467848 76.3866619,40.5077545 76.3866619,47.2886939 C76.3866619,54.0335727 77.8144046,60.5600273 80.6228669,66.6929061 L87.8421912,61.3595424 C86.0439485,56.8710273 85.1262247,52.1465727 85.1262247,47.2886939" id="Fill-41"></path>
                <path d="M123.415772,9.11792424 C135.054743,9.11792424 145.808544,14.2720152 153.132766,23.2820152 L160.706054,18.7744394 C151.711224,7.09904545 138.154128,0.405166667 123.415772,0.405166667 C108.678967,0.405166667 95.1234205,7.0975 86.1234226,18.7739242 L93.6967113,23.2815 C101.022483,14.2715 111.777318,9.11792424 123.415772,9.11792424" id="Fill-43"></path>
            </g>
        </g>
    </g>
</svg>