<svg width="16px" height="14px" viewBox="0 0 16 14" version="1.1" xmlns="http://www.w3.org/2000/svg" xmlns:xlink="http://www.w3.org/1999/xlink">
    <defs>
        <linearGradient x1="50%" y1="0%" x2="50%" y2="100%" id="linearGradient-1">
            <stop stop-color="#F13E2E" offset="0%"></stop>
            <stop stop-color="#EF227A" offset="100%"></stop>
        </linearGradient>
    </defs>
    <g id="Page-1" stroke="none" stroke-width="1" fill="none" fill-rule="evenodd">
        <g id="Mof1-Conf-Coming-Soon" transform="translate(-757.000000, -1069.000000)" fill="url(#linearGradient-1)">
            <g id="Shape-+-Path-+-Clip-2-+-Fill-1" transform="translate(668.000000, 1069.000000)">
                <path d="M96.7757891,4.39820361 L96.8098887,4.96049027 L96.2415617,4.89163884 C94.1728516,4.62770837 92.3655719,3.7326398 90.8310891,2.22938363 L90.0808975,1.48349316 L89.8876664,2.03430458 C89.478471,3.26215505 89.7399014,4.55885694 90.5923918,5.43097502 C91.0470533,5.91293502 90.9447545,5.98178645 90.1604633,5.6949055 C89.8876664,5.60310359 89.648969,5.53425217 89.626236,5.56867788 C89.5466702,5.64900455 89.8194671,6.6932512 90.0354314,7.10635977 C90.3309614,7.68012167 90.933388,8.24240833 91.5926472,8.57519023 L92.1496076,8.8391207 L91.4903484,8.85059594 C90.8538222,8.85059594 90.8310891,8.86207118 90.8992883,9.10305118 C91.1266191,9.84894164 92.0245757,10.6407331 93.0248312,10.9849902 L93.7295566,11.2259702 L93.1157635,11.5931778 C92.2064403,12.1210388 91.1379857,12.4193949 90.069531,12.4423454 C89.5580367,12.4538207 89.1374748,12.4997216 89.1374748,12.5341473 C89.1374748,12.6488997 90.5241926,13.291513 91.3312168,13.5439683 C93.7522897,14.2898587 96.628024,13.9685521 98.7876665,12.6948007 C100.322149,11.7882569 101.856632,9.9866445 102.572724,8.24240833 C102.959186,7.31291405 103.345649,5.61457883 103.345649,4.79983694 C103.345649,4.27197599 103.379748,4.20312456 104.016274,3.57198647 C104.39137,3.20477886 104.743733,2.80314553 104.811932,2.68839315 C104.925598,2.47036363 104.914231,2.47036363 104.334538,2.66544267 C103.368382,3.00969981 103.231983,2.96379886 103.709378,2.44741315 C104.061741,2.08020554 104.482303,1.41464173 104.482303,1.21956269 C104.482303,1.18513697 104.311804,1.24251316 104.118573,1.34579031 C103.913976,1.46054269 103.459314,1.63267125 103.118318,1.7359484 L102.504525,1.93102744 L101.947564,1.55234459 C101.640668,1.34579031 101.208739,1.11628555 100.981409,1.04743412 C100.401715,0.886780787 99.515125,0.909731263 98.9922642,1.09333507 C97.5714468,1.60972078 96.6734902,2.94084838 96.7757891,4.39820361 Z" id="Path"></path>
            </g>
        </g>
    </g>
</svg>