<svg width="15px" height="11px" viewBox="0 0 15 11" version="1.1" xmlns="http://www.w3.org/2000/svg" xmlns:xlink="http://www.w3.org/1999/xlink">
    <defs>
        <linearGradient x1="50%" y1="0%" x2="50%" y2="100%" id="linearGradient-1">
            <stop stop-color="#F13E2E" offset="0%"></stop>
            <stop stop-color="#EF227A" offset="100%"></stop>
        </linearGradient>
    </defs>
    <g id="Page-1" stroke="none" stroke-width="1" fill="none" fill-rule="evenodd">
        <g id="Mof1-Conf-Coming-Soon" transform="translate(-711.000000, -1071.000000)" fill="url(#linearGradient-1)">
            <g id="Shape-+-Path-+-Clip-2-+-Fill-1" transform="translate(668.000000, 1069.000000)">
                <g id="mail" transform="translate(43.000000, 2.000000)">
                    <g id="Page-1">
                        <g>
                            <g id="Icon-Set-Filled">
                                <path d="M7.04,6.56304 L5.58096,5.35348 L0.4906,10.5644 L13.46004,10.5644 L8.4634,5.34468 L7.04,6.56304 L7.04,6.56304 L7.04,6.56304 Z M9.1916,4.7916 L14.03248,9.82476 C14.0602,9.72708 14.08,9.62588 14.08,9.51896 L14.08,0.81928 L9.1916,4.7916 L9.1916,4.7916 L9.1916,4.7916 Z M0,0.79904 L0,9.51896 C0,9.62588 0.0198,9.72708 0.04752,9.82476 L4.90468,4.80788 L0,0.79904 L0,0.79904 L0,0.79904 Z M13.64,0 L0.44,0 L7.04,5.28836 L13.64,0 L13.64,0 L13.64,0 Z" id="mail"></path>
                            </g>
                        </g>
                    </g>
                </g>
            </g>
        </g>
    </g>
</svg>