<svg id="Layer_9" class="modal-itunes" data-name="Layer 1" xmlns="http://www.w3.org/2000/svg" viewBox="0 0 92.11 92.11"><defs><style>.cls-itunes-1{fill:#F9ED32;}</style></defs><title>itunes</title><path class="cls-itunes-1" d="M362.63,558.16a46.06,46.06,0,1,1,46.06-46.06A46.11,46.11,0,0,1,362.63,558.16Zm0-89.23a43.18,43.18,0,1,0,43.18,43.18A43.23,43.23,0,0,0,362.63,468.92Z" transform="translate(-316.58 -466.05)"/><path class="cls-itunes-1" d="M349.52,486.92v37.57a12.37,12.37,0,0,0-10.45.71c-5.59,2.88-7.17,8.12-5,11.44s8,4.72,13.62,1.85c4-2.07,6-5.37,5.94-8.29V502.49l26.71-5v20.21a12.38,12.38,0,0,0-10.45.71c-5.59,2.88-7.17,8.12-5,11.44s8,4.72,13.62,1.85c4-2.07,6-5.36,5.94-8.28V480.25Z" transform="translate(-316.58 -466.05)"/></svg>