<svg id="Layer_1" data-name="Layer 1" xmlns="http://www.w3.org/2000/svg" viewBox="123 0 504 41"><defs><style>.cls-logo-1{fill:#6D6E71;}</style></defs><title>modal_logo</title>
<path class="cls-logo-1" d="M543.68,283.78h7.43l6.05,9.82,6.05-9.82h7.43v25.38h-7V294.58l-6.47,9.93H557l-6.43-9.86v14.5h-6.93V283.78Z" transform="translate(-397.66 -276.02)"/>
<path class="cls-logo-1" d="M583.92,283.6h6.78l10.8,25.56H594l-1.85-4.53h-9.79l-1.81,4.53h-7.4Zm6.16,15.59L587.26,292l-2.86,7.21h5.69Z" transform="translate(-397.66 -276.02)"/>
<path class="cls-logo-1" d="M613.94,309.59a19.69,19.69,0,0,1-6.47-1.06,15.68,15.68,0,0,1-5.42-3.17l3.92-4.69a12.91,12.91,0,0,0,8.23,3,4.2,4.2,0,0,0,2.16-.45,1.43,1.43,0,0,0,.74-1.29v-0.07a1.37,1.37,0,0,0-.18-0.71,1.85,1.85,0,0,0-.67-0.6,6.91,6.91,0,0,0-1.31-.56,21.73,21.73,0,0,0-2.12-.56q-2-.47-3.77-1a11.51,11.51,0,0,1-3-1.45,6.18,6.18,0,0,1-2.77-5.48v-0.07a7.79,7.79,0,0,1,.67-3.26,7.21,7.21,0,0,1,2-2.57,9.23,9.23,0,0,1,3.1-1.68,13.09,13.09,0,0,1,4.1-.6,18.27,18.27,0,0,1,5.82.86,14.69,14.69,0,0,1,4.62,2.53l-3.52,5a14.25,14.25,0,0,0-3.57-1.87,10.78,10.78,0,0,0-3.53-.63,3.18,3.18,0,0,0-1.9.47,1.4,1.4,0,0,0-.63,1.16v0.07a1.42,1.42,0,0,0,.2.76,1.83,1.83,0,0,0,.69.6,7.65,7.65,0,0,0,1.34.54q0.85,0.27,2.16.56a31.06,31.06,0,0,1,3.93,1.1,11.77,11.77,0,0,1,3,1.54,6.18,6.18,0,0,1,1.89,2.19,6.69,6.69,0,0,1,.65,3.06v0.07a7.82,7.82,0,0,1-.74,3.47,7.45,7.45,0,0,1-2.08,2.59,9.43,9.43,0,0,1-3.23,1.63A14.72,14.72,0,0,1,613.94,309.59Z" transform="translate(-397.66 -276.02)"/>
<path class="cls-logo-1" d="M633.8,289.94h-7.61v-6.16h22.26v6.16h-7.61v19.21h-7V289.94Z" transform="translate(-397.66 -276.02)"/>
<path class="cls-logo-1" d="M651.53,283.78H671.9v6H658.46v3.84h12.18v5.55H658.46v4h13.63v6H651.53V283.78Z" transform="translate(-397.66 -276.02)"/>
<path class="cls-logo-1" d="M675.71,283.78h12a14.89,14.89,0,0,1,5,.72,8.51,8.51,0,0,1,3.3,2,7.84,7.84,0,0,1,2.25,5.91v0.07a8,8,0,0,1-1.41,4.86,8.94,8.94,0,0,1-3.81,2.94l6.05,8.85h-8.12l-5.11-7.69h-3.08v7.69h-7V283.78ZM687.38,296a4.24,4.24,0,0,0,2.79-.82,2.71,2.71,0,0,0,1-2.19v-0.07a2.63,2.63,0,0,0-1-2.27,4.65,4.65,0,0,0-2.79-.74h-4.6V296h4.64Z" transform="translate(-397.66 -276.02)"/>
<path class="cls-logo-1" d="M724.17,309.58a13.74,13.74,0,0,1-5.3-1,13.06,13.06,0,0,1-4.21-2.74,12.65,12.65,0,0,1-2.78-4.07,12.42,12.42,0,0,1-1-5v-0.07a12.61,12.61,0,0,1,3.82-9.1,13.31,13.31,0,0,1,4.24-2.76,14.46,14.46,0,0,1,10.61,0,13.08,13.08,0,0,1,4.21,2.74,12.64,12.64,0,0,1,2.78,4.07,12.43,12.43,0,0,1,1,5v0.07a12.62,12.62,0,0,1-3.82,9.1,13.33,13.33,0,0,1-4.24,2.76A13.74,13.74,0,0,1,724.17,309.58Zm0.05-6.19a6.19,6.19,0,0,0,2.59-.53,6,6,0,0,0,2-1.43,6.67,6.67,0,0,0,1.28-2.1,7,7,0,0,0,.46-2.55v-0.07a7,7,0,0,0-.46-2.55,6.54,6.54,0,0,0-1.31-2.12,6.47,6.47,0,0,0-2-1.47,6.44,6.44,0,0,0-5.16,0,6.18,6.18,0,0,0-3.26,3.54,7.33,7.33,0,0,0-.44,2.55v0.07a7,7,0,0,0,.46,2.55,6.69,6.69,0,0,0,1.29,2.12,6.23,6.23,0,0,0,2,1.47A6,6,0,0,0,724.22,303.39Z" transform="translate(-397.66 -276.02)"/>
<path class="cls-logo-1" d="M741.1,284.34h19.8v6H748v4.17h11.7v5.73H748v8.84H741.1V284.34Z" transform="translate(-397.66 -276.02)"/>
<path class="cls-logo-1" d="M786.31,309.64a13.82,13.82,0,0,1-5.33-1,13.12,13.12,0,0,1-4.23-2.75,12.7,12.7,0,0,1-2.79-4.08,12.5,12.5,0,0,1-1-5v-0.07a12.67,12.67,0,0,1,3.84-9.15,13.39,13.39,0,0,1,4.26-2.77,14.53,14.53,0,0,1,10.66,0,13.13,13.13,0,0,1,4.23,2.75,12.72,12.72,0,0,1,2.79,4.08,12.5,12.5,0,0,1,1,5v0.07a12.67,12.67,0,0,1-3.84,9.15,13.39,13.39,0,0,1-4.26,2.77A13.82,13.82,0,0,1,786.31,309.64Zm0.05-6.22a6.23,6.23,0,0,0,2.6-.53,6,6,0,0,0,2-1.44,6.68,6.68,0,0,0,1.28-2.11,7.08,7.08,0,0,0,.46-2.56v-0.07a7.09,7.09,0,0,0-.46-2.56,6.58,6.58,0,0,0-1.32-2.13,6.49,6.49,0,0,0-2-1.47,6.47,6.47,0,0,0-5.18,0,6.19,6.19,0,0,0-3.28,3.55,7.33,7.33,0,0,0-.45,2.56v0.07a7.08,7.08,0,0,0,.46,2.56,6.72,6.72,0,0,0,1.3,2.13,6.26,6.26,0,0,0,2,1.47A6,6,0,0,0,786.37,303.42Z" transform="translate(-397.66 -276.02)"/>
<path class="cls-logo-1" d="M831.21,284.28h20v5.86H838v3.77h11.93v5.43H838v3.94h13.36v5.86H831.21V284.28Z" transform="translate(-397.66 -276.02)"/><polygon class="cls-logo-1" points="412.45 8.26 405.66 8.26 402.94 12.7 405.66 12.7 405.66 29.72 402.94 29.72 402.94 33.12 414.7 33.12 414.7 29.72 412.45 29.72 412.45 8.26"/><polygon class="cls-logo-1" points="422.36 8.26 422.36 21.4 414.7 11.25 414.7 22.37 423.09 33.12 429.14 33.12 429.14 8.26 422.36 8.26"/>
<path class="cls-logo-1" d="M880.14,289.81h5.48a7.79,7.79,0,0,1,2.28.31,5.28,5.28,0,0,1,1.77.91,4.12,4.12,0,0,1,1.15,1.45,4.47,4.47,0,0,1,.41,2v0a4.33,4.33,0,0,1-1.76,3.6,5.69,5.69,0,0,1-1.88.91,8.24,8.24,0,0,1-2.25.3h-4.08v5.63h-1.12V289.81Zm5.27,8.46a6.64,6.64,0,0,0,1.92-.26,4.4,4.4,0,0,0,1.48-.75,3.39,3.39,0,0,0,1.31-2.72v0a3.58,3.58,0,0,0-.34-1.6,3.12,3.12,0,0,0-.94-1.14,4.33,4.33,0,0,0-1.45-.69,6.8,6.8,0,0,0-1.86-.24h-4.27v7.44h4.14Z" transform="translate(-397.66 -276.02)"/>
<path class="cls-logo-1" d="M901.46,305.18a7.34,7.34,0,0,1-5.5-2.34,7.56,7.56,0,0,1-1.53-2.47,8.16,8.16,0,0,1-.54-3v0a8.12,8.12,0,0,1,.55-3,7.87,7.87,0,0,1,1.54-2.49,7.32,7.32,0,0,1,2.4-1.72,8,8,0,0,1,6.24,0,7.41,7.41,0,0,1,2.39,1.7,7.59,7.59,0,0,1,1.53,2.47,8.19,8.19,0,0,1,.54,3,0,0,0,0,1,0,0,8.11,8.11,0,0,1-.55,3,7.84,7.84,0,0,1-1.54,2.49,7.28,7.28,0,0,1-2.41,1.72A7.52,7.52,0,0,1,901.46,305.18Zm0-1a6.18,6.18,0,0,0,4.61-2,6.62,6.62,0,0,0,1.33-2.15,7.26,7.26,0,0,0,.47-2.63v0a7.18,7.18,0,0,0-.49-2.64,6.76,6.76,0,0,0-1.34-2.16,6.34,6.34,0,0,0-2-1.46,6.3,6.3,0,0,0-7.2,1.43,6.64,6.64,0,0,0-1.33,2.15,7.26,7.26,0,0,0-.47,2.63v0a7.17,7.17,0,0,0,.48,2.64,6.76,6.76,0,0,0,1.34,2.16,6.33,6.33,0,0,0,2,1.46A6.2,6.2,0,0,0,901.51,304.16Z" transform="translate(-397.66 -276.02)"/>
<path class="cls-logo-1" d="M912.9,289.81h5a8.94,8.94,0,0,1,3.25.57,7.67,7.67,0,0,1,2.55,1.59,7.06,7.06,0,0,1,1.65,2.38,7.52,7.52,0,0,1,.58,3v0a7.6,7.6,0,0,1-.58,3,7,7,0,0,1-1.65,2.4,7.82,7.82,0,0,1-2.55,1.6,8.79,8.79,0,0,1-3.25.58h-5V289.81Zm5,14.09a7.62,7.62,0,0,0,2.85-.51,6.4,6.4,0,0,0,2.16-1.39,6.2,6.2,0,0,0,1.37-2.06,6.61,6.61,0,0,0,.48-2.54v0a6.63,6.63,0,0,0-.48-2.53,6.28,6.28,0,0,0-1.37-2.08,6.44,6.44,0,0,0-2.16-1.41,7.46,7.46,0,0,0-2.85-.52H914V303.9h3.91Z" transform="translate(-397.66 -276.02)"/>
<path class="cls-logo-1" d="M936.62,305.18a7.37,7.37,0,0,1-5.38-2.25,7.49,7.49,0,0,1-1.56-2.47,8.22,8.22,0,0,1-.56-3v0a8,8,0,0,1,.57-3,7.92,7.92,0,0,1,1.57-2.49,7.3,7.3,0,0,1,5.41-2.3,8.92,8.92,0,0,1,1.83.17,7.13,7.13,0,0,1,1.52.5,8,8,0,0,1,1.32.77,12.61,12.61,0,0,1,1.2,1l-0.8.82a12,12,0,0,0-1-.88,6.53,6.53,0,0,0-1.15-.7,6.85,6.85,0,0,0-1.34-.46,6.73,6.73,0,0,0-1.56-.17,6.12,6.12,0,0,0-4.54,2,6.79,6.79,0,0,0-1.34,2.15,7.15,7.15,0,0,0-.48,2.65v0a7.11,7.11,0,0,0,.5,2.67,6.87,6.87,0,0,0,1.35,2.16,6.23,6.23,0,0,0,2,1.45,6,6,0,0,0,2.53.53,6.3,6.3,0,0,0,2.85-.6,9.13,9.13,0,0,0,2.35-1.75l0.76,0.73a14.07,14.07,0,0,1-1.24,1.07,7.68,7.68,0,0,1-1.36.83,7.57,7.57,0,0,1-1.56.54A8.15,8.15,0,0,1,936.62,305.18Z" transform="translate(-397.66 -276.02)"/>
<path class="cls-logo-1" d="M951.44,289.7h1.08l7,15.21h-1.23l-1.92-4.23h-8.91l-1.92,4.23h-1.17Zm4.49,10-4-8.74-4,8.74h8Z" transform="translate(-397.66 -276.02)"/>
<path class="cls-logo-1" d="M967.87,305.13a8.47,8.47,0,0,1-3.27-.6,10.07,10.07,0,0,1-2.82-1.81l0.73-.84a10.77,10.77,0,0,0,1.24,1,6.9,6.9,0,0,0,2.62,1.1,8,8,0,0,0,1.55.14,5.09,5.09,0,0,0,1.55-.23,3.67,3.67,0,0,0,1.21-.63,2.89,2.89,0,0,0,.78-0.95,2.59,2.59,0,0,0,.28-1.2v0a3,3,0,0,0-.18-1.08,2.08,2.08,0,0,0-.67-0.86,4.88,4.88,0,0,0-1.31-.7,13.56,13.56,0,0,0-2.11-.57,14.66,14.66,0,0,1-2.33-.66,5.74,5.74,0,0,1-1.59-.89,3,3,0,0,1-.9-1.18,3.94,3.94,0,0,1-.28-1.53v0a3.4,3.4,0,0,1,.37-1.56,4,4,0,0,1,1-1.26,4.77,4.77,0,0,1,1.53-.84,6,6,0,0,1,1.94-.3,8,8,0,0,1,2.84.45,8.53,8.53,0,0,1,2.34,1.38l-0.71.89a6.49,6.49,0,0,0-4.51-1.71,4.79,4.79,0,0,0-1.52.23,3.74,3.74,0,0,0-1.17.62,2.72,2.72,0,0,0-.74.91,2.44,2.44,0,0,0-.26,1.1v0a3,3,0,0,0,.18,1.09,2.13,2.13,0,0,0,.67.89,4.75,4.75,0,0,0,1.35.72,15.42,15.42,0,0,0,2.2.6,8.69,8.69,0,0,1,3.8,1.52,3.28,3.28,0,0,1,1.17,2.64v0a3.73,3.73,0,0,1-.38,1.67,3.91,3.91,0,0,1-1,1.31,4.86,4.86,0,0,1-1.58.84A6.43,6.43,0,0,1,967.87,305.13Z" transform="translate(-397.66 -276.02)"/>
<path class="cls-logo-1" d="M980.75,290.83h-5.27v-1h11.65v1h-5.27v14.09h-1.12V290.83Z" transform="translate(-397.66 -276.02)"/>
<path class="cls-logo-1" d="M1000.11,286v22.52H866.67V286h133.44m2.23-2.23H864.44v27h137.9v-27h0Z" transform="translate(-397.66 -276.02)"/></svg>