<svg id="modal-subscribe-svg" data-name="Layer 1" xmlns="http://www.w3.org/2000/svg" viewBox="0 0 294.3 235.74"><defs><style>.cls-review-1{font-size:13.15px;font-family:Gotham Book;}.cls-review-1,.cls-review-2{fill:#fff;}</style></defs><title>reviews</title><text class="cls-review-1" transform="translate(56.25 38.79)">“THIS IS A GREAT PODCAST.”<tspan x="54.5" y="15.78">-RACHEL G.</tspan></text><polygon class="cls-review-2" points="112.71 0 114.34 6.22 120.76 5.85 115.35 9.32 117.69 15.31 112.71 11.24 107.74 15.31 110.08 9.32 104.67 5.85 111.08 6.22 112.71 0"/><polygon class="cls-review-2" points="130.22 0 131.85 6.22 138.27 5.85 132.86 9.32 135.2 15.31 130.22 11.24 125.25 15.31 127.58 9.32 122.17 5.85 128.59 6.22 130.22 0"/><polygon class="cls-review-2" points="147.31 0 148.94 6.22 155.36 5.85 149.95 9.32 152.28 15.31 147.31 11.24 142.33 15.31 144.67 9.32 139.26 5.85 145.68 6.22 147.31 0"/><polygon class="cls-review-2" points="164.64 0 166.28 6.22 172.69 5.85 167.28 9.32 169.62 15.31 164.64 11.24 159.67 15.31 162 9.32 156.6 5.85 163.01 6.22 164.64 0"/><polygon class="cls-review-2" points="181.59 0 183.22 6.22 189.64 5.85 184.23 9.32 186.56 15.31 181.59 11.24 176.61 15.31 178.95 9.32 173.54 5.85 179.96 6.22 181.59 0"/><text class="cls-review-1" transform="translate(5.68 115.62)">“GET READY TO LAUGH ALONG WITH THEM, <tspan x="25.31" y="15.78">AND START CALLING THEM FAMILY.”</tspan><tspan x="79.17" y="31.56">-FIGHTPRIESTFIGHT</tspan></text><polygon class="cls-review-2" points="112.71 76.83 114.34 83.05 120.76 82.68 115.35 86.15 117.69 92.14 112.71 88.07 107.74 92.14 110.08 86.15 104.67 82.68 111.08 83.05 112.71 76.83"/><polygon class="cls-review-2" points="130.22 76.83 131.85 83.05 138.27 82.68 132.86 86.15 135.2 92.14 130.22 88.07 125.25 92.14 127.58 86.15 122.17 82.68 128.59 83.05 130.22 76.83"/><polygon class="cls-review-2" points="147.31 76.83 148.94 83.05 155.36 82.68 149.95 86.15 152.28 92.14 147.31 88.07 142.33 92.14 144.67 86.15 139.26 82.68 145.68 83.05 147.31 76.83"/><polygon class="cls-review-2" points="164.64 76.83 166.28 83.05 172.69 82.68 167.28 86.15 169.62 92.14 164.64 88.07 159.67 92.14 162 86.15 156.6 82.68 163.01 83.05 164.64 76.83"/><polygon class="cls-review-2" points="181.59 76.83 183.22 83.05 189.64 82.68 184.23 86.15 186.56 92.14 181.59 88.07 176.61 92.14 178.95 86.15 173.54 82.68 179.96 83.05 181.59 76.83"/><text class="cls-review-1" transform="translate(0 201.96)">“THIS PODCAST HAS MADE ME LAUGH, LEARN,<tspan x="11.22" y="15.78">AND INSPIRED ME TO BE MORE CREATIVE.”</tspan><tspan x="99.04" y="31.56">-SCRUMBLKINS</tspan></text><polygon class="cls-review-2" points="112.71 163.17 114.34 169.39 120.76 169.02 115.35 172.49 117.69 178.48 112.71 174.41 107.74 178.48 110.08 172.49 104.67 169.02 111.08 169.39 112.71 163.17"/><polygon class="cls-review-2" points="130.22 163.17 131.85 169.39 138.27 169.02 132.86 172.49 135.2 178.48 130.22 174.41 125.25 178.48 127.58 172.49 122.17 169.02 128.59 169.39 130.22 163.17"/><polygon class="cls-review-2" points="147.31 163.17 148.94 169.39 155.36 169.02 149.95 172.49 152.28 178.48 147.31 174.41 142.33 178.48 144.67 172.49 139.26 169.02 145.68 169.39 147.31 163.17"/><polygon class="cls-review-2" points="164.64 163.17 166.28 169.39 172.69 169.02 167.28 172.49 169.62 178.48 164.64 174.41 159.67 178.48 162 172.49 156.6 169.02 163.01 169.39 164.64 163.17"/><polygon class="cls-review-2" points="181.59 163.17 183.22 169.39 189.64 169.02 184.23 172.49 186.56 178.48 181.59 174.41 176.61 178.48 178.95 172.49 173.54 169.02 179.96 169.39 181.59 163.17"/></svg>