<svg id="Layer_10" class="modal-stitcher" data-name="Layer 1" xmlns="http://www.w3.org/2000/svg" xmlns:xlink="http://www.w3.org/1999/xlink" viewBox="0 0 94.1 92.11"><defs><style>.cls-stitcher-1{fill:none;}.cls-stitcher-2{clip-path:url(#clip-the-path);}.cls-stitcher-3{fill:#F9ED32;}</style><clipPath id="clip-the-path" transform="translate(-429.37 -466.56)"><circle class="cls-stitcher-1" cx="476.72" cy="512.62" r="44.62"/></clipPath></defs><title>stitcher</title><g class="cls-stitcher-2"><rect class="cls-stitcher-3" x="9.11" y="31.45" width="4.78" height="29.21"/><rect class="cls-stitcher-3" y="31.45" width="7.92" height="29.21"/><rect class="cls-stitcher-3" x="14.94" y="31.45" width="16.51" height="29.21"/><rect class="cls-stitcher-3" x="32.49" y="31.45" width="25.5" height="29.21"/><rect class="cls-stitcher-3" x="71.79" y="31.45" width="22.31" height="29.21"/><rect class="cls-stitcher-3" x="62.76" y="22.72" width="4.25" height="46.67"/></g><path class="cls-stitcher-3" d="M476.72,558.67a46.06,46.06,0,1,1,46.06-46.06A46.11,46.11,0,0,1,476.72,558.67Zm0-89.23a43.18,43.18,0,1,0,43.18,43.18A43.23,43.23,0,0,0,476.72,469.44Z" transform="translate(-429.37 -466.56)"/></svg>