<svg id="Layer_1" data-name="Layer 1" xmlns="http://www.w3.org/2000/svg" viewBox="0 0 245 84"><defs><style>.cls-sub-1{font-size:28.93px;font-family:Gotham Book;letter-spacing:-1px;}.cls-sub-1,.cls-sub-3{fill:#F9ED32;}.cls-sub-2{fill:none;stroke:#F9ED32;stroke-miterlimit:10;stroke-width:1.15px;}</style></defs><title>subscribe</title><text class="cls-sub-1" transform="translate(0 79.24)">SUBSCRIBE NOW</text><path class="cls-sub-2" d="M425,384.77a5.26,5.26,0,1,1-5.26-5.26A5.24,5.24,0,0,1,425,384.77Z" transform="translate(-299.6 -371.39)"/><path class="cls-sub-2" d="M416.67,393.29a9,9,0,1,1,6.19,0" transform="translate(-299.6 -371.39)"/><path class="cls-sub-2" d="M415.2,396.76a12.81,12.81,0,1,1,9.37-.13" transform="translate(-299.6 -371.39)"/><path class="cls-sub-3" d="M429.37,412.8l0.43,1.05h2.6l-11-27.1a2.58,2.58,0,1,0-3.09.15L407.4,413.85H410l0.43-1.05,3.95-2,4.28,7.77v2.07h2.49v-2.07l4.28-7.77Zm-3.3-3.12,1.17-2.13,1.37,3.39ZM422.75,399l-1.61-1.84V392.5l2.12,5.22Zm1.24,0.5,0.69,1.71-0.94-1.08Zm-5.34,3.69-1.07-2.78,1.07-1.22v4Zm2.49-4,1.07,1.22-1.07,2.78v-4Zm-2.49-2L417,399l-0.51-1.31,2.12-5.22v4.69Zm-2.61,3-0.94,1.07,0.69-1.71ZM413.57,405l3-3.45,2.06,5.37v0.29l-3.73,1.84L413.2,406Zm7.57,1.92,2.06-5.37,3,3.45L426.6,406l-1.72,3.13-3.73-1.84v-0.29Zm-10,4,1.37-3.39,1.17,2.13Zm4.39-.68,3.08-1.52v7.12Zm5.58,5.59v-7.12l3.08,1.52Z" transform="translate(-299.6 -371.39)"/><polygon class="cls-sub-3" points="138.52 1.64 134.6 3.97 135.76 4.98 133.58 7.66 137.41 4.82 136.4 3.99 138.52 1.64"/><polygon class="cls-sub-3" points="101.64 1.64 105.56 3.97 104.4 4.98 106.58 7.66 102.75 4.82 103.76 3.99 101.64 1.64"/><polygon class="cls-sub-3" points="101.64 26.21 105.56 23.87 104.4 22.86 106.58 20.18 102.75 23.02 103.76 23.85 101.64 26.21"/><polygon class="cls-sub-3" points="138.52 26.21 134.6 23.87 135.76 22.86 133.58 20.18 137.41 23.02 136.4 23.85 138.52 26.21"/></svg>