<?xml version="1.0" encoding="utf-8"?>
<!-- Generator: Adobe Illustrator 18.1.1, SVG Export Plug-In . SVG Version: 6.00 Build 0)  -->
<svg version="1.1" id="controls.fw-Page_x25_201" xmlns="http://www.w3.org/2000/svg" xmlns:xlink="http://www.w3.org/1999/xlink"
	 x="0px" y="0px" viewBox="-248.5 419.5 84 114" enable-background="new -248.5 419.5 84 114" xml:space="preserve">
<path fill="none" d="z"/>
<g id="BG">
</g>
<path fill="none" d="z"/>
<g>
	<path fill="#58595B" d="M-219,529.1c-14.2,0-25.8-11.6-25.8-25.8c0-14.2,11.6-25.8,25.8-25.8s25.8,11.6,25.8,25.8
		C-193.2,517.5-204.8,529.1-219,529.1z M-219,479.5c-13.1,0-23.8,10.7-23.8,23.8s10.7,23.8,23.8,23.8s23.8-10.7,23.8-23.8
		S-205.9,479.5-219,479.5z"/>
	<g>
		<rect x="-229.2" y="491.3" fill="#58595B" width="5.9" height="24"/>
		<rect x="-214.8" y="491.3" fill="#58595B" width="5.9" height="24"/>
	</g>
</g>
<g>
	<path fill="#58595B" d="M-219,474.1c-14.2,0-25.8-11.6-25.8-25.8c0-14.2,11.6-25.8,25.8-25.8s25.8,11.6,25.8,25.8
		C-193.2,462.5-204.8,474.1-219,474.1z M-219,424.5c-13.1,0-23.8,10.7-23.8,23.8s10.7,23.8,23.8,23.8s23.8-10.7,23.8-23.8
		S-205.9,424.5-219,424.5z"/>
	<polygon fill="#58595B" points="-224.3,437.1 -206.1,449.1 -224.3,461.1 	"/>
</g>
<polygon fill="#58595B" points="-172.5,443.7 -176.9,446.5 -180.7,446.5 -180.7,449 -180.7,449.1 -180.7,449.1 -180.7,451.6 
	-176.9,451.6 -172.5,454.5 "/>
<rect x="-178.3" y="496.6" transform="matrix(0.9332 0.3592 -0.3592 0.9332 168.8121 97.2432)" fill="#58595B" width="2" height="12.5"/>
<g>
	<polygon fill="#58595B" points="-180.7,505.8 -180.5,505.8 -178.5,500.8 -180.7,500.8 -180.7,503.3 -180.7,503.3 -180.7,503.3 	"/>
	<polygon fill="#58595B" points="-173.5,498.5 -176.4,506.1 -172.5,508.7 -172.5,497.9 	"/>
</g>
<g>
	<path fill="#58595B" d="M-103.4,529.1c-14.2,0-25.8-11.6-25.8-25.8c0-14.2,11.6-25.8,25.8-25.8s25.8,11.6,25.8,25.8
		C-77.6,517.5-89.2,529.1-103.4,529.1z M-103.4,479.5c-13.1,0-23.8,10.7-23.8,23.8s10.7,23.8,23.8,23.8s23.8-10.7,23.8-23.8
		S-90.3,479.5-103.4,479.5z"/>
	<g>
		<rect x="-113.6" y="491.3" fill="#58595B" width="5.9" height="24"/>
		<rect x="-99.2" y="491.3" fill="#58595B" width="5.9" height="24"/>
	</g>
</g>
<g>
	<path fill="#58595B" d="M-103.4,474.1c-14.2,0-25.8-11.6-25.8-25.8c0-14.2,11.6-25.8,25.8-25.8s25.8,11.6,25.8,25.8
		C-77.6,462.5-89.2,474.1-103.4,474.1z M-103.4,424.5c-13.1,0-23.8,10.7-23.8,23.8s10.7,23.8,23.8,23.8s23.8-10.7,23.8-23.8
		S-90.3,424.5-103.4,424.5z"/>
	<polygon fill="#58595B" points="-108.7,437.1 -90.5,449.1 -108.7,461.1 	"/>
</g>
<polygon fill="#58595B" points="-56.9,443.7 -61.3,446.5 -65.1,446.5 -65.1,449 -65.2,449.1 -65.1,449.1 -65.1,451.6 -61.3,451.6 
	-56.9,454.5 "/>
<rect x="-62.7" y="496.6" transform="matrix(0.9332 0.3592 -0.3592 0.9332 176.5268 55.7266)" fill="#58595B" width="2" height="12.5"/>
<g>
	<polygon fill="#58595B" points="-65.1,505.8 -64.9,505.8 -62.9,500.8 -65.1,500.8 -65.1,503.3 -65.2,503.3 -65.1,503.3 	"/>
	<polygon fill="#58595B" points="-58,498.5 -60.9,506.1 -56.9,508.7 -56.9,497.9 	"/>
</g>
</svg>
